%TF.GenerationSoftware,KiCad,Pcbnew,9.0.4*%
%TF.CreationDate,2025-10-09T03:03:52-07:00*%
%TF.ProjectId,ThermoBoard,54686572-6d6f-4426-9f61-72642e6b6963,1A*%
%TF.SameCoordinates,Original*%
%TF.FileFunction,Soldermask,Top*%
%TF.FilePolarity,Negative*%
%FSLAX46Y46*%
G04 Gerber Fmt 4.6, Leading zero omitted, Abs format (unit mm)*
G04 Created by KiCad (PCBNEW 9.0.4) date 2025-10-09 03:03:52*
%MOMM*%
%LPD*%
G01*
G04 APERTURE LIST*
G04 Aperture macros list*
%AMRoundRect*
0 Rectangle with rounded corners*
0 $1 Rounding radius*
0 $2 $3 $4 $5 $6 $7 $8 $9 X,Y pos of 4 corners*
0 Add a 4 corners polygon primitive as box body*
4,1,4,$2,$3,$4,$5,$6,$7,$8,$9,$2,$3,0*
0 Add four circle primitives for the rounded corners*
1,1,$1+$1,$2,$3*
1,1,$1+$1,$4,$5*
1,1,$1+$1,$6,$7*
1,1,$1+$1,$8,$9*
0 Add four rect primitives between the rounded corners*
20,1,$1+$1,$2,$3,$4,$5,0*
20,1,$1+$1,$4,$5,$6,$7,0*
20,1,$1+$1,$6,$7,$8,$9,0*
20,1,$1+$1,$8,$9,$2,$3,0*%
G04 Aperture macros list end*
%ADD10R,2.655000X2.655000*%
%ADD11C,2.655000*%
%ADD12RoundRect,0.250000X0.650000X-1.000000X0.650000X1.000000X-0.650000X1.000000X-0.650000X-1.000000X0*%
%ADD13R,2.500000X1.100000*%
%ADD14C,1.000000*%
%ADD15RoundRect,0.140000X0.140000X0.170000X-0.140000X0.170000X-0.140000X-0.170000X0.140000X-0.170000X0*%
%ADD16RoundRect,0.225000X-0.250000X0.225000X-0.250000X-0.225000X0.250000X-0.225000X0.250000X0.225000X0*%
%ADD17RoundRect,0.135000X-0.185000X0.135000X-0.185000X-0.135000X0.185000X-0.135000X0.185000X0.135000X0*%
%ADD18RoundRect,0.140000X0.170000X-0.140000X0.170000X0.140000X-0.170000X0.140000X-0.170000X-0.140000X0*%
%ADD19RoundRect,0.112500X0.187500X0.112500X-0.187500X0.112500X-0.187500X-0.112500X0.187500X-0.112500X0*%
%ADD20RoundRect,0.140000X-0.140000X-0.170000X0.140000X-0.170000X0.140000X0.170000X-0.140000X0.170000X0*%
%ADD21RoundRect,0.075000X-0.075000X-0.700000X0.075000X-0.700000X0.075000X0.700000X-0.075000X0.700000X0*%
%ADD22RoundRect,0.075000X-0.700000X-0.075000X0.700000X-0.075000X0.700000X0.075000X-0.700000X0.075000X0*%
%ADD23RoundRect,0.140000X-0.170000X0.140000X-0.170000X-0.140000X0.170000X-0.140000X0.170000X0.140000X0*%
%ADD24RoundRect,0.135000X-0.135000X-0.185000X0.135000X-0.185000X0.135000X0.185000X-0.135000X0.185000X0*%
%ADD25RoundRect,0.200000X0.200000X0.275000X-0.200000X0.275000X-0.200000X-0.275000X0.200000X-0.275000X0*%
%ADD26R,0.900000X0.800000*%
%ADD27RoundRect,0.147500X-0.147500X-0.172500X0.147500X-0.172500X0.147500X0.172500X-0.147500X0.172500X0*%
%ADD28RoundRect,0.200000X-0.200000X-0.275000X0.200000X-0.275000X0.200000X0.275000X-0.200000X0.275000X0*%
%ADD29C,1.700000*%
%ADD30R,1.700000X1.700000*%
%ADD31RoundRect,0.112500X-0.187500X-0.112500X0.187500X-0.112500X0.187500X0.112500X-0.187500X0.112500X0*%
%ADD32RoundRect,0.100000X-0.100000X0.637500X-0.100000X-0.637500X0.100000X-0.637500X0.100000X0.637500X0*%
%ADD33RoundRect,0.150000X-0.150000X0.512500X-0.150000X-0.512500X0.150000X-0.512500X0.150000X0.512500X0*%
%ADD34RoundRect,0.135000X0.135000X0.185000X-0.135000X0.185000X-0.135000X-0.185000X0.135000X-0.185000X0*%
%ADD35RoundRect,0.062500X0.062500X-0.375000X0.062500X0.375000X-0.062500X0.375000X-0.062500X-0.375000X0*%
%ADD36RoundRect,0.062500X0.375000X-0.062500X0.375000X0.062500X-0.375000X0.062500X-0.375000X-0.062500X0*%
%ADD37R,2.500000X2.500000*%
%ADD38R,1.500000X1.000000*%
%ADD39RoundRect,0.135000X0.185000X-0.135000X0.185000X0.135000X-0.185000X0.135000X-0.185000X-0.135000X0*%
%ADD40C,2.500000*%
%ADD41C,1.500000*%
%ADD42RoundRect,0.250500X-0.499500X0.499500X-0.499500X-0.499500X0.499500X-0.499500X0.499500X0.499500X0*%
%ADD43RoundRect,0.250000X-0.475000X0.250000X-0.475000X-0.250000X0.475000X-0.250000X0.475000X0.250000X0*%
%ADD44RoundRect,0.250000X-0.250000X-0.475000X0.250000X-0.475000X0.250000X0.475000X-0.250000X0.475000X0*%
%ADD45RoundRect,0.150000X-0.512500X-0.150000X0.512500X-0.150000X0.512500X0.150000X-0.512500X0.150000X0*%
%ADD46RoundRect,0.225000X0.250000X-0.225000X0.250000X0.225000X-0.250000X0.225000X-0.250000X-0.225000X0*%
%ADD47RoundRect,0.225000X-0.225000X-0.250000X0.225000X-0.250000X0.225000X0.250000X-0.225000X0.250000X0*%
%ADD48RoundRect,0.150000X0.512500X0.150000X-0.512500X0.150000X-0.512500X-0.150000X0.512500X-0.150000X0*%
%ADD49RoundRect,0.225000X0.225000X0.250000X-0.225000X0.250000X-0.225000X-0.250000X0.225000X-0.250000X0*%
%ADD50RoundRect,0.147500X0.147500X0.172500X-0.147500X0.172500X-0.147500X-0.172500X0.147500X-0.172500X0*%
%ADD51RoundRect,0.218750X0.218750X0.256250X-0.218750X0.256250X-0.218750X-0.256250X0.218750X-0.256250X0*%
%ADD52RoundRect,0.150000X-0.150000X0.825000X-0.150000X-0.825000X0.150000X-0.825000X0.150000X0.825000X0*%
%ADD53RoundRect,0.147500X0.172500X-0.147500X0.172500X0.147500X-0.172500X0.147500X-0.172500X-0.147500X0*%
%ADD54O,1.600000X1.000000*%
%ADD55O,2.100000X1.000000*%
%ADD56R,1.450000X0.600000*%
%ADD57R,1.450000X0.300000*%
%ADD58RoundRect,0.249999X0.850001X-0.850001X0.850001X0.850001X-0.850001X0.850001X-0.850001X-0.850001X0*%
%ADD59C,2.200000*%
G04 APERTURE END LIST*
%TO.C,JP200*%
G36*
X31500000Y-70100000D02*
G01*
X30000000Y-70100000D01*
X30000000Y-70400000D01*
X31500000Y-70400000D01*
X31500000Y-70100000D01*
G37*
%TD*%
D10*
%TO.C,J108*%
X22000000Y-19000000D03*
D11*
X8300000Y-19000000D03*
X23100000Y-5500000D03*
X7400000Y-5500000D03*
%TD*%
D10*
%TO.C,J107*%
X44000000Y-19000000D03*
D11*
X30300000Y-19000000D03*
X45100000Y-5500000D03*
X29400000Y-5500000D03*
%TD*%
D10*
%TO.C,J106*%
X65986500Y-19250000D03*
D11*
X52286500Y-19250000D03*
X67086500Y-5750000D03*
X51386500Y-5750000D03*
%TD*%
D10*
%TO.C,J105*%
X88000000Y-19361000D03*
D11*
X74300000Y-19361000D03*
X89100000Y-5861000D03*
X73400000Y-5861000D03*
%TD*%
D12*
%TO.C,D105*%
X85550000Y-62070000D03*
X85550000Y-58070000D03*
%TD*%
D13*
%TO.C,SW100*%
X14810000Y-61490000D03*
X23309872Y-61490000D03*
X14810000Y-65989872D03*
X23309872Y-65989872D03*
%TD*%
D14*
%TO.C,TP112*%
X93670000Y-58370000D03*
%TD*%
D15*
%TO.C,C208*%
X27000000Y-82500000D03*
X27960000Y-82500000D03*
%TD*%
D16*
%TO.C,C115*%
X78950580Y-66475000D03*
X78950580Y-64925000D03*
%TD*%
D17*
%TO.C,R100*%
X44600000Y-53460000D03*
X44600000Y-52440000D03*
%TD*%
D18*
%TO.C,C105*%
X38400000Y-59520000D03*
X38400000Y-60480000D03*
%TD*%
D15*
%TO.C,C312*%
X11040000Y-25412500D03*
X12000000Y-25412500D03*
%TD*%
D14*
%TO.C,TP115*%
X65500000Y-36500000D03*
%TD*%
D18*
%TO.C,C109*%
X47600000Y-52460000D03*
X47600000Y-53420000D03*
%TD*%
D19*
%TO.C,D100*%
X8620000Y-53675000D03*
X10720000Y-53675000D03*
%TD*%
D17*
%TO.C,R313*%
X11000000Y-32020000D03*
X11000000Y-31000000D03*
%TD*%
D14*
%TO.C,TP100*%
X53500000Y-49750000D03*
%TD*%
D20*
%TO.C,C315*%
X11960000Y-24200000D03*
X11000000Y-24200000D03*
%TD*%
D21*
%TO.C,U100*%
X47536500Y-56325000D03*
X48036500Y-56325000D03*
X48536500Y-56325000D03*
X49036500Y-56325000D03*
X49536500Y-56325000D03*
X50036500Y-56325000D03*
X50536500Y-56325000D03*
X51036500Y-56325000D03*
X51536500Y-56325000D03*
X52036500Y-56325000D03*
X52536500Y-56325000D03*
X53036500Y-56325000D03*
X53536500Y-56325000D03*
X54036500Y-56325000D03*
X54536500Y-56325000D03*
X55036500Y-56325000D03*
D22*
X56961500Y-58250000D03*
X56961500Y-58750000D03*
X56961500Y-59250000D03*
X56961500Y-59750000D03*
X56961500Y-60250000D03*
X56961500Y-60750000D03*
X56961500Y-61250000D03*
X56961500Y-61750000D03*
X56961500Y-62250000D03*
X56961500Y-62750000D03*
X56961500Y-63250000D03*
X56961500Y-63750000D03*
X56961500Y-64250000D03*
X56961500Y-64750000D03*
X56961500Y-65250000D03*
X56961500Y-65750000D03*
D21*
X55036500Y-67675000D03*
X54536500Y-67675000D03*
X54036500Y-67675000D03*
X53536500Y-67675000D03*
X53036500Y-67675000D03*
X52536500Y-67675000D03*
X52036500Y-67675000D03*
X51536500Y-67675000D03*
X51036500Y-67675000D03*
X50536500Y-67675000D03*
X50036500Y-67675000D03*
X49536500Y-67675000D03*
X49036500Y-67675000D03*
X48536500Y-67675000D03*
X48036500Y-67675000D03*
X47536500Y-67675000D03*
D22*
X45611500Y-65750000D03*
X45611500Y-65250000D03*
X45611500Y-64750000D03*
X45611500Y-64250000D03*
X45611500Y-63750000D03*
X45611500Y-63250000D03*
X45611500Y-62750000D03*
X45611500Y-62250000D03*
X45611500Y-61750000D03*
X45611500Y-61250000D03*
X45611500Y-60750000D03*
X45611500Y-60250000D03*
X45611500Y-59750000D03*
X45611500Y-59250000D03*
X45611500Y-58750000D03*
X45611500Y-58250000D03*
%TD*%
D23*
%TO.C,C313*%
X12000000Y-32000000D03*
X12000000Y-31040000D03*
%TD*%
D20*
%TO.C,C108*%
X57266500Y-68250000D03*
X56306500Y-68250000D03*
%TD*%
D14*
%TO.C,TP109*%
X43500000Y-36500000D03*
%TD*%
D15*
%TO.C,C110*%
X47540000Y-69500000D03*
X48500000Y-69500000D03*
%TD*%
D14*
%TO.C,TP110*%
X30500000Y-36500000D03*
%TD*%
D18*
%TO.C,C101*%
X45600000Y-52440000D03*
X45600000Y-53400000D03*
%TD*%
D24*
%TO.C,R300*%
X85760000Y-31000000D03*
X84740000Y-31000000D03*
%TD*%
D14*
%TO.C,TP122*%
X9500000Y-36500000D03*
%TD*%
%TO.C,TP121*%
X22000000Y-36500000D03*
%TD*%
D17*
%TO.C,R101*%
X48600000Y-53450000D03*
X48600000Y-52430000D03*
%TD*%
D25*
%TO.C,R308*%
X85000000Y-26000000D03*
X86650000Y-26000000D03*
%TD*%
D26*
%TO.C,Y100*%
X37000000Y-58699822D03*
X35599950Y-58699822D03*
X35599950Y-57600000D03*
X37000000Y-57600000D03*
%TD*%
D20*
%TO.C,C107*%
X57286500Y-69250000D03*
X56326500Y-69250000D03*
%TD*%
D14*
%TO.C,TP107*%
X85400000Y-36500000D03*
%TD*%
%TO.C,TP116*%
X56000000Y-34500000D03*
%TD*%
%TO.C,TP120*%
X6000000Y-36500000D03*
%TD*%
D20*
%TO.C,C308*%
X85710000Y-24600000D03*
X84750000Y-24600000D03*
%TD*%
D14*
%TO.C,TP106*%
X74500000Y-36500000D03*
%TD*%
D18*
%TO.C,C111*%
X43786500Y-64140000D03*
X43786500Y-65100000D03*
%TD*%
D27*
%TO.C,D300*%
X85745000Y-29750000D03*
X84775000Y-29750000D03*
%TD*%
D14*
%TO.C,TP108*%
X28500000Y-36500000D03*
%TD*%
D18*
%TO.C,C104*%
X46600000Y-52480000D03*
X46600000Y-53440000D03*
%TD*%
D17*
%TO.C,R303*%
X55250000Y-31760000D03*
X55250000Y-30740000D03*
%TD*%
D28*
%TO.C,R315*%
X12800000Y-22612500D03*
X11150000Y-22612500D03*
%TD*%
D23*
%TO.C,C102*%
X38400000Y-58460000D03*
X38400000Y-57500000D03*
%TD*%
D29*
%TO.C,J101*%
X41700000Y-48310000D03*
X41700000Y-50850000D03*
D30*
X41700000Y-53390000D03*
%TD*%
D14*
%TO.C,TP300*%
X76500000Y-35500000D03*
%TD*%
%TO.C,TP114*%
X54500000Y-36500000D03*
%TD*%
D17*
%TO.C,R312*%
X33250000Y-32020000D03*
X33250000Y-31000000D03*
%TD*%
D20*
%TO.C,C317*%
X15326500Y-22612500D03*
X16286500Y-22612500D03*
%TD*%
D30*
%TO.C,J100*%
X3000000Y-49460000D03*
D29*
X3000000Y-52000000D03*
X3000000Y-54540000D03*
X3000000Y-57080000D03*
X3000000Y-59620000D03*
%TD*%
D14*
%TO.C,TP105*%
X49250000Y-49750000D03*
%TD*%
%TO.C,TP104*%
X51500000Y-49750000D03*
%TD*%
D24*
%TO.C,R105*%
X12000000Y-50950000D03*
X13020000Y-50950000D03*
%TD*%
%TO.C,R103*%
X12000000Y-56200000D03*
X13020000Y-56200000D03*
%TD*%
%TO.C,R102*%
X11750000Y-58725000D03*
X12770000Y-58725000D03*
%TD*%
D31*
%TO.C,D102*%
X8770000Y-56087500D03*
X10870000Y-56087500D03*
%TD*%
%TO.C,D101*%
X8570000Y-58725000D03*
X10670000Y-58725000D03*
%TD*%
%TO.C,D104*%
X8720000Y-50950000D03*
X10820000Y-50950000D03*
%TD*%
D23*
%TO.C,C301*%
X77500000Y-31362500D03*
X77500000Y-32322500D03*
%TD*%
%TO.C,C303*%
X56250000Y-30790000D03*
X56250000Y-31750000D03*
%TD*%
D25*
%TO.C,R317*%
X20800000Y-22612500D03*
X19150000Y-22612500D03*
%TD*%
D20*
%TO.C,C319*%
X19026500Y-24112500D03*
X19986500Y-24112500D03*
%TD*%
%TO.C,C314*%
X33021500Y-24400000D03*
X33981500Y-24400000D03*
%TD*%
D27*
%TO.C,D301*%
X63030000Y-30000000D03*
X64000000Y-30000000D03*
%TD*%
D20*
%TO.C,C309*%
X63086500Y-24112500D03*
X64046500Y-24112500D03*
%TD*%
D32*
%TO.C,U302*%
X39431500Y-24750000D03*
X38781500Y-24750000D03*
X38131500Y-24750000D03*
X37481500Y-24750000D03*
X36831500Y-24750000D03*
X36181500Y-24750000D03*
X35531500Y-24750000D03*
X35531500Y-30475000D03*
X36181500Y-30475000D03*
X36831500Y-30475000D03*
X37481500Y-30475000D03*
X38131500Y-30475000D03*
X38781500Y-30475000D03*
X39431500Y-30475000D03*
%TD*%
D28*
%TO.C,R305*%
X55350000Y-22612500D03*
X57000000Y-22612500D03*
%TD*%
D20*
%TO.C,C306*%
X80821500Y-23112500D03*
X81781500Y-23112500D03*
%TD*%
D24*
%TO.C,R311*%
X18880000Y-31050000D03*
X19900000Y-31050000D03*
%TD*%
D27*
%TO.C,D303*%
X18915000Y-29800000D03*
X19885000Y-29800000D03*
%TD*%
D25*
%TO.C,R307*%
X65000000Y-22612500D03*
X63350000Y-22612500D03*
%TD*%
D27*
%TO.C,D302*%
X41030000Y-30000000D03*
X42000000Y-30000000D03*
%TD*%
D20*
%TO.C,C318*%
X41001500Y-24112500D03*
X41961500Y-24112500D03*
%TD*%
D32*
%TO.C,U301*%
X61536500Y-24750000D03*
X60886500Y-24750000D03*
X60236500Y-24750000D03*
X59586500Y-24750000D03*
X58936500Y-24750000D03*
X58286500Y-24750000D03*
X57636500Y-24750000D03*
X57636500Y-30475000D03*
X58286500Y-30475000D03*
X58936500Y-30475000D03*
X59586500Y-30475000D03*
X60236500Y-30475000D03*
X60886500Y-30475000D03*
X61536500Y-30475000D03*
%TD*%
D25*
%TO.C,R316*%
X43000000Y-22600000D03*
X41350000Y-22600000D03*
%TD*%
D28*
%TO.C,R314*%
X33350000Y-22612500D03*
X35000000Y-22612500D03*
%TD*%
D32*
%TO.C,U303*%
X17436500Y-24750000D03*
X16786500Y-24750000D03*
X16136500Y-24750000D03*
X15486500Y-24750000D03*
X14836500Y-24750000D03*
X14186500Y-24750000D03*
X13536500Y-24750000D03*
X13536500Y-30475000D03*
X14186500Y-30475000D03*
X14836500Y-30475000D03*
X15486500Y-30475000D03*
X16136500Y-30475000D03*
X16786500Y-30475000D03*
X17436500Y-30475000D03*
%TD*%
D25*
%TO.C,R318*%
X42881500Y-25612500D03*
X41231500Y-25612500D03*
%TD*%
D24*
%TO.C,R301*%
X63010000Y-31000000D03*
X64030000Y-31000000D03*
%TD*%
D20*
%TO.C,C316*%
X37326500Y-22612500D03*
X38286500Y-22612500D03*
%TD*%
%TO.C,C304*%
X76290000Y-24612500D03*
X77250000Y-24612500D03*
%TD*%
D15*
%TO.C,C310*%
X33981500Y-25412500D03*
X33021500Y-25412500D03*
%TD*%
D24*
%TO.C,R310*%
X40995000Y-31250000D03*
X42015000Y-31250000D03*
%TD*%
D20*
%TO.C,C305*%
X55040000Y-24500000D03*
X56000000Y-24500000D03*
%TD*%
%TO.C,C307*%
X59431500Y-22612500D03*
X60391500Y-22612500D03*
%TD*%
D15*
%TO.C,C300*%
X77250000Y-25712500D03*
X76290000Y-25712500D03*
%TD*%
D23*
%TO.C,C311*%
X34250000Y-31000000D03*
X34250000Y-31960000D03*
%TD*%
D28*
%TO.C,R304*%
X76425000Y-22750000D03*
X78075000Y-22750000D03*
%TD*%
D32*
%TO.C,U300*%
X82926500Y-24750000D03*
X82276500Y-24750000D03*
X81626500Y-24750000D03*
X80976500Y-24750000D03*
X80326500Y-24750000D03*
X79676500Y-24750000D03*
X79026500Y-24750000D03*
X79026500Y-30475000D03*
X79676500Y-30475000D03*
X80326500Y-30475000D03*
X80976500Y-30475000D03*
X81626500Y-30475000D03*
X82276500Y-30475000D03*
X82926500Y-30475000D03*
%TD*%
D15*
%TO.C,C302*%
X56086500Y-25612500D03*
X55126500Y-25612500D03*
%TD*%
D25*
%TO.C,R319*%
X20811500Y-25612500D03*
X19161500Y-25612500D03*
%TD*%
%TO.C,R309*%
X64986500Y-25612500D03*
X63336500Y-25612500D03*
%TD*%
D17*
%TO.C,R214*%
X23110000Y-79949000D03*
X23110000Y-80969000D03*
%TD*%
D23*
%TO.C,C205*%
X38760000Y-83739000D03*
X38760000Y-84699000D03*
%TD*%
D16*
%TO.C,C202*%
X29250000Y-84000000D03*
X29250000Y-85550000D03*
%TD*%
D33*
%TO.C,U201*%
X29260000Y-79699000D03*
X28310000Y-79699000D03*
X27360000Y-79699000D03*
X27360000Y-77424000D03*
X28310000Y-77424000D03*
X29260000Y-77424000D03*
%TD*%
D34*
%TO.C,R202*%
X41020000Y-77449000D03*
X40000000Y-77449000D03*
%TD*%
D17*
%TO.C,R203*%
X37010000Y-72739000D03*
X37010000Y-73759000D03*
%TD*%
D34*
%TO.C,R218*%
X10584000Y-87119000D03*
X9564000Y-87119000D03*
%TD*%
%TO.C,R207*%
X41020000Y-75449000D03*
X40000000Y-75449000D03*
%TD*%
D35*
%TO.C,U200*%
X34697500Y-80136500D03*
X35197500Y-80136500D03*
X35697500Y-80136500D03*
X36197500Y-80136500D03*
X36697500Y-80136500D03*
X37197500Y-80136500D03*
D36*
X37885000Y-79449000D03*
X37885000Y-78949000D03*
X37885000Y-78449000D03*
X37885000Y-77949000D03*
X37885000Y-77449000D03*
X37885000Y-76949000D03*
D35*
X37197500Y-76261500D03*
X36697500Y-76261500D03*
X36197500Y-76261500D03*
X35697500Y-76261500D03*
X35197500Y-76261500D03*
X34697500Y-76261500D03*
D36*
X34010000Y-76949000D03*
X34010000Y-77449000D03*
X34010000Y-77949000D03*
X34010000Y-78449000D03*
X34010000Y-78949000D03*
X34010000Y-79449000D03*
D37*
X35947500Y-78199000D03*
%TD*%
D24*
%TO.C,R216*%
X20814000Y-86869000D03*
X21834000Y-86869000D03*
%TD*%
D18*
%TO.C,C203*%
X30610000Y-75749000D03*
X30610000Y-74789000D03*
%TD*%
D20*
%TO.C,C204*%
X40020000Y-78449000D03*
X40980000Y-78449000D03*
%TD*%
D34*
%TO.C,R201*%
X41010000Y-81449000D03*
X39990000Y-81449000D03*
%TD*%
D38*
%TO.C,JP200*%
X30750000Y-69600000D03*
X30750000Y-70900000D03*
%TD*%
D34*
%TO.C,R204*%
X41010000Y-80449000D03*
X39990000Y-80449000D03*
%TD*%
D26*
%TO.C,Y200*%
X35010000Y-84798822D03*
X36410050Y-84798822D03*
X36410050Y-83699000D03*
X35010000Y-83699000D03*
%TD*%
D23*
%TO.C,C200*%
X37760000Y-83739000D03*
X37760000Y-84699000D03*
%TD*%
D17*
%TO.C,R210*%
X31510000Y-83699000D03*
X31510000Y-84719000D03*
%TD*%
D39*
%TO.C,R215*%
X25000000Y-80069000D03*
X25000000Y-79049000D03*
%TD*%
D23*
%TO.C,C206*%
X30510000Y-83699000D03*
X30510000Y-84659000D03*
%TD*%
D34*
%TO.C,R205*%
X41020000Y-82449000D03*
X40000000Y-82449000D03*
%TD*%
D40*
%TO.C,J200*%
X14435500Y-85619000D03*
X14435500Y-70129000D03*
D41*
X6485500Y-84499000D03*
X6485500Y-81959000D03*
X6485500Y-73789000D03*
X6485500Y-71249000D03*
X20285500Y-82314000D03*
X17745500Y-81054000D03*
X20285500Y-79774000D03*
X17745500Y-78514000D03*
X20285500Y-77234000D03*
X17745500Y-75974000D03*
X20285500Y-74694000D03*
D42*
X17745500Y-73434000D03*
%TD*%
D17*
%TO.C,R213*%
X26810000Y-74929000D03*
X26810000Y-75949000D03*
%TD*%
D34*
%TO.C,R200*%
X41040000Y-79449000D03*
X40020000Y-79449000D03*
%TD*%
D23*
%TO.C,C201*%
X33510000Y-83739000D03*
X33510000Y-84699000D03*
%TD*%
D17*
%TO.C,R208*%
X38010000Y-72729000D03*
X38010000Y-73749000D03*
%TD*%
D24*
%TO.C,R217*%
X9050000Y-66175000D03*
X10070000Y-66175000D03*
%TD*%
D17*
%TO.C,R209*%
X32510000Y-83679000D03*
X32510000Y-84699000D03*
%TD*%
D39*
%TO.C,R212*%
X25610000Y-74259000D03*
X25610000Y-73239000D03*
%TD*%
D34*
%TO.C,R206*%
X41020000Y-76449000D03*
X40000000Y-76449000D03*
%TD*%
D18*
%TO.C,C207*%
X24500000Y-73199000D03*
X24500000Y-72239000D03*
%TD*%
D39*
%TO.C,R211*%
X23750000Y-77510000D03*
X23750000Y-76490000D03*
%TD*%
D43*
%TO.C,C121*%
X81349420Y-55350000D03*
X81349420Y-57250000D03*
%TD*%
%TO.C,C123*%
X77099420Y-55350000D03*
X77099420Y-57250000D03*
%TD*%
%TO.C,C122*%
X79250000Y-55350000D03*
X79250000Y-57250000D03*
%TD*%
D44*
%TO.C,C118*%
X75200580Y-66200000D03*
X77100580Y-66200000D03*
%TD*%
D14*
%TO.C,TP101*%
X87250000Y-69750000D03*
%TD*%
%TO.C,TP111*%
X83440000Y-64590000D03*
%TD*%
%TO.C,TP102*%
X74680000Y-57110000D03*
%TD*%
D30*
%TO.C,J102*%
X69710000Y-93750000D03*
D29*
X72250000Y-93750000D03*
X74790000Y-93750000D03*
%TD*%
D45*
%TO.C,U101*%
X81250000Y-59250000D03*
X81250000Y-61150000D03*
X78975000Y-61150000D03*
X78975000Y-60200000D03*
X78975000Y-59250000D03*
%TD*%
D17*
%TO.C,R302*%
X76500000Y-31330000D03*
X76500000Y-32350000D03*
%TD*%
D34*
%TO.C,R104*%
X91130000Y-70400000D03*
X92150000Y-70400000D03*
%TD*%
D18*
%TO.C,C400*%
X67500000Y-79460000D03*
X67500000Y-78500000D03*
%TD*%
D46*
%TO.C,C403*%
X67800000Y-86050000D03*
X67800000Y-84500000D03*
%TD*%
%TO.C,FB100*%
X88500000Y-40500000D03*
X88500000Y-38950000D03*
%TD*%
D47*
%TO.C,C114*%
X90025000Y-40750000D03*
X91575000Y-40750000D03*
%TD*%
D34*
%TO.C,R109*%
X92980000Y-36000000D03*
X94000000Y-36000000D03*
%TD*%
D15*
%TO.C,C116*%
X82500000Y-82750000D03*
X81540000Y-82750000D03*
%TD*%
D48*
%TO.C,U102*%
X83087500Y-81250000D03*
X83087500Y-80300000D03*
X83087500Y-79350000D03*
X80812500Y-79350000D03*
X80812500Y-80300000D03*
X80812500Y-81250000D03*
%TD*%
D49*
%TO.C,C112*%
X75500000Y-59500000D03*
X77050000Y-59500000D03*
%TD*%
D16*
%TO.C,C113*%
X80700580Y-66475000D03*
X80700580Y-64925000D03*
%TD*%
D47*
%TO.C,C117*%
X91575000Y-39000000D03*
X90025000Y-39000000D03*
%TD*%
D50*
%TO.C,D106*%
X93030000Y-34750000D03*
X94000000Y-34750000D03*
%TD*%
D47*
%TO.C,F101*%
X86200000Y-76750000D03*
X84650000Y-76750000D03*
%TD*%
D23*
%TO.C,C106*%
X59500000Y-58000000D03*
X59500000Y-58960000D03*
%TD*%
D34*
%TO.C,R107*%
X85325000Y-78875000D03*
X86345000Y-78875000D03*
%TD*%
D50*
%TO.C,D103*%
X92125000Y-69350000D03*
X91155000Y-69350000D03*
%TD*%
D46*
%TO.C,F100*%
X86250000Y-66550000D03*
X86250000Y-65000000D03*
%TD*%
D41*
%TO.C,TP103*%
X88500000Y-36500000D03*
%TD*%
D16*
%TO.C,C100*%
X61000000Y-57200000D03*
X61000000Y-58750000D03*
%TD*%
D51*
%TO.C,L100*%
X80525580Y-62925000D03*
X78950580Y-62925000D03*
%TD*%
D34*
%TO.C,R108*%
X85325000Y-81875000D03*
X86345000Y-81875000D03*
%TD*%
D30*
%TO.C,JP400*%
X65100000Y-85550000D03*
D29*
X65100000Y-88090000D03*
%TD*%
D24*
%TO.C,R106*%
X90465000Y-86675000D03*
X89445000Y-86675000D03*
%TD*%
D33*
%TO.C,D400*%
X72000000Y-88000000D03*
X70100000Y-88000000D03*
X71050000Y-90275000D03*
%TD*%
D39*
%TO.C,R403*%
X72550000Y-86000000D03*
X72550000Y-84980000D03*
%TD*%
D24*
%TO.C,R401*%
X71550000Y-82990000D03*
X72570000Y-82990000D03*
%TD*%
D34*
%TO.C,R402*%
X70550000Y-83000000D03*
X69530000Y-83000000D03*
%TD*%
D17*
%TO.C,R404*%
X69550000Y-86000000D03*
X69550000Y-84980000D03*
%TD*%
D52*
%TO.C,U400*%
X72890000Y-79750000D03*
X71620000Y-79750000D03*
X70350000Y-79750000D03*
X69080000Y-79750000D03*
X69080000Y-74800000D03*
X70350000Y-74800000D03*
X71620000Y-74800000D03*
X72890000Y-74800000D03*
%TD*%
D46*
%TO.C,C402*%
X71050000Y-84475000D03*
X71050000Y-86025000D03*
%TD*%
D53*
%TO.C,D107*%
X56500000Y-86500000D03*
X56500000Y-85530000D03*
%TD*%
D39*
%TO.C,R110*%
X56500000Y-88800000D03*
X56500000Y-87780000D03*
%TD*%
D44*
%TO.C,C119*%
X77100580Y-63950000D03*
X75200580Y-63950000D03*
%TD*%
%TO.C,C120*%
X77100580Y-61730000D03*
X75200580Y-61730000D03*
%TD*%
D53*
%TO.C,D109*%
X59000000Y-86500000D03*
X59000000Y-85530000D03*
%TD*%
D39*
%TO.C,R112*%
X59000000Y-88790000D03*
X59000000Y-87770000D03*
%TD*%
D23*
%TO.C,C401*%
X67500000Y-75460000D03*
X67500000Y-74500000D03*
%TD*%
D39*
%TO.C,R111*%
X57750000Y-88800000D03*
X57750000Y-87780000D03*
%TD*%
D53*
%TO.C,D108*%
X57750000Y-85530000D03*
X57750000Y-86500000D03*
%TD*%
D25*
%TO.C,R306*%
X84925000Y-22750000D03*
X86575000Y-22750000D03*
%TD*%
D18*
%TO.C,C103*%
X45100000Y-57080000D03*
X45100000Y-56120000D03*
%TD*%
D54*
%TO.C,J104*%
X93795000Y-76330000D03*
D55*
X89615000Y-76330000D03*
D54*
X93795000Y-84970000D03*
D55*
X89615000Y-84970000D03*
D56*
X88700000Y-83900000D03*
X88700000Y-83100000D03*
D57*
X88700000Y-82400000D03*
X88700000Y-81400000D03*
X88700000Y-79900000D03*
X88700000Y-78900000D03*
D56*
X88700000Y-78200000D03*
X88700000Y-77400000D03*
X88700000Y-77400000D03*
X88700000Y-78200000D03*
D57*
X88700000Y-79400000D03*
X88700000Y-80400000D03*
X88700000Y-80900000D03*
X88700000Y-81900000D03*
D56*
X88700000Y-83100000D03*
X88700000Y-83900000D03*
%TD*%
D30*
%TO.C,JP100*%
X87540000Y-73000000D03*
D29*
X85000000Y-73000000D03*
%TD*%
D58*
%TO.C,J103*%
X90900000Y-66390000D03*
D59*
X90900000Y-63850000D03*
%TD*%
M02*
