%TF.GenerationSoftware,KiCad,Pcbnew,9.0.4*%
%TF.CreationDate,2025-10-09T03:03:52-07:00*%
%TF.ProjectId,ThermoBoard,54686572-6d6f-4426-9f61-72642e6b6963,1A*%
%TF.SameCoordinates,Original*%
%TF.FileFunction,Soldermask,Bot*%
%TF.FilePolarity,Negative*%
%FSLAX46Y46*%
G04 Gerber Fmt 4.6, Leading zero omitted, Abs format (unit mm)*
G04 Created by KiCad (PCBNEW 9.0.4) date 2025-10-09 03:03:52*
%MOMM*%
%LPD*%
G01*
G04 APERTURE LIST*
G04 Aperture macros list*
%AMRoundRect*
0 Rectangle with rounded corners*
0 $1 Rounding radius*
0 $2 $3 $4 $5 $6 $7 $8 $9 X,Y pos of 4 corners*
0 Add a 4 corners polygon primitive as box body*
4,1,4,$2,$3,$4,$5,$6,$7,$8,$9,$2,$3,0*
0 Add four circle primitives for the rounded corners*
1,1,$1+$1,$2,$3*
1,1,$1+$1,$4,$5*
1,1,$1+$1,$6,$7*
1,1,$1+$1,$8,$9*
0 Add four rect primitives between the rounded corners*
20,1,$1+$1,$2,$3,$4,$5,0*
20,1,$1+$1,$4,$5,$6,$7,0*
20,1,$1+$1,$6,$7,$8,$9,0*
20,1,$1+$1,$8,$9,$2,$3,0*%
G04 Aperture macros list end*
%ADD10R,2.655000X2.655000*%
%ADD11C,2.655000*%
%ADD12C,1.700000*%
%ADD13R,1.700000X1.700000*%
%ADD14C,3.200000*%
%ADD15C,2.500000*%
%ADD16C,1.500000*%
%ADD17RoundRect,0.250500X-0.499500X0.499500X-0.499500X-0.499500X0.499500X-0.499500X0.499500X0.499500X0*%
%ADD18C,3.250000*%
%ADD19O,1.600000X1.000000*%
%ADD20O,2.100000X1.000000*%
%ADD21C,0.650000*%
%ADD22C,1.100000*%
%ADD23RoundRect,0.249999X0.850001X-0.850001X0.850001X0.850001X-0.850001X0.850001X-0.850001X-0.850001X0*%
%ADD24C,2.200000*%
G04 APERTURE END LIST*
D10*
%TO.C,J108*%
X22000000Y-19000000D03*
D11*
X8300000Y-19000000D03*
X23100000Y-5500000D03*
X7400000Y-5500000D03*
%TD*%
D10*
%TO.C,J107*%
X44000000Y-19000000D03*
D11*
X30300000Y-19000000D03*
X45100000Y-5500000D03*
X29400000Y-5500000D03*
%TD*%
D10*
%TO.C,J106*%
X65986500Y-19250000D03*
D11*
X52286500Y-19250000D03*
X67086500Y-5750000D03*
X51386500Y-5750000D03*
%TD*%
D10*
%TO.C,J105*%
X88000000Y-19361000D03*
D11*
X74300000Y-19361000D03*
X89100000Y-5861000D03*
X73400000Y-5861000D03*
%TD*%
D12*
%TO.C,J101*%
X41700000Y-48310000D03*
X41700000Y-50850000D03*
D13*
X41700000Y-53390000D03*
%TD*%
%TO.C,J100*%
X3000000Y-49460000D03*
D12*
X3000000Y-52000000D03*
X3000000Y-54540000D03*
X3000000Y-57080000D03*
X3000000Y-59620000D03*
%TD*%
D14*
%TO.C,H1*%
X4000000Y-26000000D03*
%TD*%
%TO.C,H2*%
X93000000Y-27000000D03*
%TD*%
%TO.C,H3*%
X92000000Y-91000000D03*
%TD*%
%TO.C,H4*%
X5035534Y-91000000D03*
%TD*%
D15*
%TO.C,J200*%
X14435500Y-85619000D03*
X14435500Y-70129000D03*
D16*
X6485500Y-84499000D03*
X6485500Y-81959000D03*
X6485500Y-73789000D03*
X6485500Y-71249000D03*
X20285500Y-82314000D03*
X17745500Y-81054000D03*
X20285500Y-79774000D03*
X17745500Y-78514000D03*
X20285500Y-77234000D03*
X17745500Y-75974000D03*
X20285500Y-74694000D03*
D17*
X17745500Y-73434000D03*
D18*
X11385500Y-83589000D03*
X11385500Y-72159000D03*
%TD*%
D13*
%TO.C,J102*%
X69710000Y-93750000D03*
D12*
X72250000Y-93750000D03*
X74790000Y-93750000D03*
%TD*%
D13*
%TO.C,JP400*%
X65100000Y-85550000D03*
D12*
X65100000Y-88090000D03*
%TD*%
D19*
%TO.C,J104*%
X93795000Y-76330000D03*
D20*
X89615000Y-76330000D03*
D19*
X93795000Y-84970000D03*
D20*
X89615000Y-84970000D03*
D21*
X90145000Y-77760000D03*
X90145000Y-83540000D03*
%TD*%
D13*
%TO.C,JP100*%
X87540000Y-73000000D03*
D12*
X85000000Y-73000000D03*
%TD*%
D22*
%TO.C,J103*%
X93440000Y-66390000D03*
X93440000Y-63850000D03*
D23*
X90900000Y-66390000D03*
D24*
X90900000Y-63850000D03*
%TD*%
M02*
