%TF.GenerationSoftware,KiCad,Pcbnew,9.0.4-1.fc42*%
%TF.CreationDate,2025-10-10T00:36:46-07:00*%
%TF.ProjectId,ThermoBoard,54686572-6d6f-4426-9f61-72642e6b6963,1A*%
%TF.SameCoordinates,Original*%
%TF.FileFunction,Soldermask,Bot*%
%TF.FilePolarity,Negative*%
%FSLAX46Y46*%
G04 Gerber Fmt 4.6, Leading zero omitted, Abs format (unit mm)*
G04 Created by KiCad (PCBNEW 9.0.4-1.fc42) date 2025-10-10 00:36:46*
%MOMM*%
%LPD*%
G01*
G04 APERTURE LIST*
G04 Aperture macros list*
%AMRoundRect*
0 Rectangle with rounded corners*
0 $1 Rounding radius*
0 $2 $3 $4 $5 $6 $7 $8 $9 X,Y pos of 4 corners*
0 Add a 4 corners polygon primitive as box body*
4,1,4,$2,$3,$4,$5,$6,$7,$8,$9,$2,$3,0*
0 Add four circle primitives for the rounded corners*
1,1,$1+$1,$2,$3*
1,1,$1+$1,$4,$5*
1,1,$1+$1,$6,$7*
1,1,$1+$1,$8,$9*
0 Add four rect primitives between the rounded corners*
20,1,$1+$1,$2,$3,$4,$5,0*
20,1,$1+$1,$4,$5,$6,$7,0*
20,1,$1+$1,$6,$7,$8,$9,0*
20,1,$1+$1,$8,$9,$2,$3,0*%
G04 Aperture macros list end*
%ADD10R,2.655000X2.655000*%
%ADD11C,2.655000*%
%ADD12R,1.700000X1.700000*%
%ADD13C,1.700000*%
%ADD14C,0.650000*%
%ADD15O,2.100000X1.000000*%
%ADD16O,1.600000X1.000000*%
%ADD17C,3.250000*%
%ADD18RoundRect,0.250500X-0.499500X0.499500X-0.499500X-0.499500X0.499500X-0.499500X0.499500X0.499500X0*%
%ADD19C,1.500000*%
%ADD20C,2.500000*%
%ADD21C,3.200000*%
%ADD22C,1.100000*%
%ADD23RoundRect,0.249999X0.850001X-0.850001X0.850001X0.850001X-0.850001X0.850001X-0.850001X-0.850001X0*%
%ADD24C,2.200000*%
G04 APERTURE END LIST*
D10*
%TO.C,J107*%
X43961500Y-19000000D03*
D11*
X30261500Y-19000000D03*
X45061500Y-5500000D03*
X29361500Y-5500000D03*
%TD*%
D12*
%TO.C,JP400*%
X61629000Y-86615000D03*
D13*
X61629000Y-89155000D03*
%TD*%
D12*
%TO.C,J101*%
X41661500Y-53390000D03*
D13*
X41661500Y-50850000D03*
X41661500Y-48310000D03*
%TD*%
D14*
%TO.C,J104*%
X90245000Y-62640000D03*
X90245000Y-56860000D03*
D15*
X89715000Y-64070000D03*
D16*
X93895000Y-64070000D03*
D15*
X89715000Y-55430000D03*
D16*
X93895000Y-55430000D03*
%TD*%
D17*
%TO.C,J200*%
X11347000Y-72159000D03*
X11347000Y-83589000D03*
D18*
X17707000Y-73434000D03*
D19*
X20247000Y-74694000D03*
X17707000Y-75974000D03*
X20247000Y-77234000D03*
X17707000Y-78514000D03*
X20247000Y-79774000D03*
X17707000Y-81054000D03*
X20247000Y-82314000D03*
X6447000Y-71249000D03*
X6447000Y-73789000D03*
X6447000Y-81959000D03*
X6447000Y-84499000D03*
D20*
X14397000Y-70129000D03*
X14397000Y-85619000D03*
%TD*%
D10*
%TO.C,J108*%
X21961500Y-19000000D03*
D11*
X8261500Y-19000000D03*
X23061500Y-5500000D03*
X7361500Y-5500000D03*
%TD*%
D12*
%TO.C,J100*%
X2961500Y-49460000D03*
D13*
X2961500Y-52000000D03*
X2961500Y-54540000D03*
X2961500Y-57080000D03*
X2961500Y-59620000D03*
%TD*%
D21*
%TO.C,H1*%
X4500000Y-26000000D03*
%TD*%
D10*
%TO.C,J106*%
X65948000Y-19250000D03*
D11*
X52248000Y-19250000D03*
X67048000Y-5750000D03*
X51348000Y-5750000D03*
%TD*%
D21*
%TO.C,H2*%
X92500000Y-27000000D03*
%TD*%
%TO.C,H4*%
X4500000Y-92550000D03*
%TD*%
%TO.C,H3*%
X92500000Y-92550000D03*
%TD*%
D22*
%TO.C,J103*%
X93340000Y-82829596D03*
X93340000Y-80289596D03*
D23*
X90800000Y-82829596D03*
D24*
X90800000Y-80289596D03*
%TD*%
D12*
%TO.C,JP100*%
X93790000Y-69300000D03*
D13*
X91250000Y-69300000D03*
%TD*%
D12*
%TO.C,J102*%
X66239000Y-94815000D03*
D13*
X68779000Y-94815000D03*
X71319000Y-94815000D03*
%TD*%
D10*
%TO.C,J105*%
X87961500Y-19361000D03*
D11*
X74261500Y-19361000D03*
X89061500Y-5861000D03*
X73361500Y-5861000D03*
%TD*%
M02*
