M48
; DRILL file {KiCad 9.0.4} date 2025-10-09T03:03:52-0700
; FORMAT={-:-/ absolute / inch / decimal}
; #@! TF.CreationDate,2025-10-09T03:03:52-07:00
; #@! TF.GenerationSoftware,Kicad,Pcbnew,9.0.4
; #@! TF.FileFunction,Plated,1,4,PTH
FMAT,2
INCH
; #@! TA.AperFunction,Plated,PTH,ComponentDrill
T1C0.0079
; #@! TA.AperFunction,Plated,PTH,ViaDrill
T2C0.0118
; #@! TA.AperFunction,Plated,PTH,ViaDrill
T3C0.0157
; #@! TA.AperFunction,Plated,PTH,ComponentDrill
T4C0.0236
; #@! TA.AperFunction,Plated,PTH,ComponentDrill
T5C0.0350
; #@! TA.AperFunction,Plated,PTH,ComponentDrill
T6C0.0394
; #@! TA.AperFunction,Plated,PTH,ComponentDrill
T7C0.0402
; #@! TA.AperFunction,Plated,PTH,ComponentDrill
T8C0.0433
; #@! TA.AperFunction,Plated,PTH,ComponentDrill
T9C0.0642
; #@! TA.AperFunction,Plated,PTH,ComponentDrill
T10C0.0697
%
G90
G05
T1
X1.3759Y-3.0393
X1.3759Y-3.0787
X1.3759Y-3.1181
X1.4153Y-3.0393
X1.4153Y-3.0787
X1.4153Y-3.1181
X1.4546Y-3.0393
X1.4546Y-3.0787
X1.4546Y-3.1181
T2
X0.0984Y-0.0984
X0.0984Y-0.1969
X0.0984Y-0.2953
X0.0984Y-0.3937
X0.0984Y-0.4921
X0.0984Y-0.5906
X0.0984Y-0.689
X0.0984Y-0.7874
X0.0984Y-0.8858
X0.0984Y-1.1811
X0.0984Y-1.2795
X0.0984Y-1.378
X0.0984Y-1.4764
X0.0984Y-1.5748
X0.0984Y-1.6732
X0.0984Y-1.7717
X0.0984Y-1.8701
X0.0984Y-2.4606
X0.0984Y-2.5591
X0.0984Y-2.6575
X0.0984Y-2.7559
X0.0984Y-2.8543
X0.0984Y-2.9528
X0.0984Y-3.0512
X0.0984Y-3.1496
X0.0984Y-3.248
X0.0984Y-3.3465
X0.0984Y-3.4449
X0.0984Y-3.5433
X0.0984Y-3.6417
X0.1969Y-0.0984
X0.1969Y-0.1969
X0.1969Y-0.2953
X0.1969Y-0.3937
X0.1969Y-0.4921
X0.1969Y-0.5906
X0.1969Y-0.689
X0.1969Y-0.7874
X0.1969Y-0.8858
X0.1969Y-1.1811
X0.1969Y-1.2795
X0.1969Y-1.6732
X0.1969Y-1.7717
X0.1969Y-1.8701
X0.1969Y-2.3622
X0.1969Y-2.4606
X0.1969Y-2.5591
X0.1969Y-3.0512
X0.1969Y-3.1496
X0.1969Y-3.4449
X0.2559Y-2.185
X0.2953Y-0.0984
X0.2953Y-0.3937
X0.2953Y-0.4921
X0.2953Y-0.5906
X0.2953Y-0.8858
X0.2953Y-0.9843
X0.2953Y-1.0827
X0.2953Y-1.1811
X0.2953Y-1.378
X0.2953Y-1.4764
X0.2953Y-1.5748
X0.2953Y-1.7717
X0.2953Y-2.0079
X0.2953Y-2.0472
X0.2953Y-2.185
X0.2953Y-2.4606
X0.2953Y-2.5591
X0.2953Y-3.0512
X0.2953Y-3.1496
X0.2953Y-3.5433
X0.2953Y-3.6417
X0.315Y-2.3031
X0.315Y-2.3425
X0.3543Y-2.0472
X0.3543Y-2.3425
X0.3543Y-3.4055
X0.3735Y-1.2047
X0.374Y-2.2244
X0.3937Y-0.0984
X0.3937Y-0.1969
X0.3937Y-0.2953
X0.3937Y-0.3937
X0.3937Y-0.4921
X0.3937Y-0.5906
X0.3937Y-1.6732
X0.3937Y-2.4606
X0.3937Y-2.5591
X0.3937Y-2.6575
X0.3937Y-3.1496
X0.3937Y-3.5433
X0.3937Y-3.6417
X0.4016Y-0.9685
X0.4016Y-1.0
X0.4016Y-1.0315
X0.4331Y-2.5591
X0.4331Y-2.5984
X0.4449Y-1.0315
X0.4488Y-1.2086
X0.4837Y-1.5157
X0.4921Y-0.0984
X0.4921Y-0.1969
X0.4921Y-0.2953
X0.4921Y-0.3937
X0.4921Y-0.4921
X0.4921Y-0.5906
X0.4921Y-0.689
X0.4921Y-0.7874
X0.4921Y-1.2086
X0.4921Y-1.7717
X0.4921Y-2.0669
X0.4921Y-2.1654
X0.4921Y-2.2638
X0.4921Y-2.3622
X0.4921Y-2.6575
X0.4921Y-2.9528
X0.4921Y-3.5433
X0.4921Y-3.6417
X0.5062Y-0.9432
X0.5087Y-1.5685
X0.5118Y-1.252
X0.531Y-1.0118
X0.5315Y-1.063
X0.5315Y-1.1024
X0.5315Y-1.1417
X0.5709Y-1.0236
X0.5709Y-1.063
X0.5709Y-1.1024
X0.5709Y-1.1417
X0.5841Y-0.9397
X0.5906Y-0.0984
X0.5906Y-0.1969
X0.5906Y-0.2953
X0.5906Y-0.3937
X0.5906Y-0.4921
X0.5906Y-0.5906
X0.5906Y-0.689
X0.5906Y-0.7874
X0.5906Y-1.6732
X0.5906Y-2.1654
X0.5906Y-2.2638
X0.5906Y-2.3622
X0.5906Y-2.6575
X0.5906Y-3.5433
X0.5906Y-3.6417
X0.6018Y-1.6142
X0.6102Y-1.0236
X0.6102Y-1.063
X0.6102Y-1.1024
X0.6102Y-1.1417
X0.6496Y-1.063
X0.6496Y-1.1024
X0.6496Y-1.1417
X0.661Y-2.1697
X0.6693Y-2.5787
X0.689Y-0.0984
X0.689Y-0.1969
X0.689Y-0.2953
X0.689Y-0.3937
X0.689Y-0.4921
X0.689Y-0.5906
X0.689Y-0.689
X0.689Y-0.7874
X0.689Y-1.063
X0.689Y-1.1024
X0.689Y-1.4764
X0.689Y-1.5748
X0.689Y-1.6732
X0.689Y-1.7717
X0.689Y-1.9685
X0.689Y-2.6575
X0.689Y-2.7559
X0.689Y-3.5433
X0.689Y-3.6417
X0.6929Y-2.2106
X0.7087Y-2.5787
X0.7165Y-0.9758
X0.7165Y-1.2086
X0.7366Y-2.3874
X0.7396Y-1.6929
X0.748Y-2.5787
X0.7559Y-1.2677
X0.7874Y-0.0984
X0.7874Y-0.1969
X0.7874Y-0.2953
X0.7874Y-0.3937
X0.7874Y-0.4921
X0.7874Y-0.5906
X0.7874Y-1.0827
X0.7874Y-1.4764
X0.7874Y-1.5748
X0.7874Y-1.7717
X0.7874Y-2.0669
X0.7874Y-2.3819
X0.7874Y-2.5787
X0.7874Y-2.6575
X0.7874Y-2.7559
X0.7874Y-2.8543
X0.7874Y-3.5433
X0.7874Y-3.6417
X0.8268Y-2.5787
X0.8661Y-3.3858
X0.8756Y-3.1307
X0.8858Y-0.0984
X0.8858Y-0.3937
X0.8858Y-0.4921
X0.8858Y-0.5906
X0.8858Y-0.8858
X0.8858Y-1.0827
X0.8858Y-1.2795
X0.8858Y-2.1654
X0.8858Y-2.6575
X0.8858Y-2.7559
X0.8858Y-2.8543
X0.8858Y-3.0512
X0.8858Y-3.248
X0.8858Y-3.5433
X0.8858Y-3.6417
X0.9055Y-3.3858
X0.9055Y-3.4252
X0.9646Y-2.7953
X0.972Y-2.9413
X0.9843Y-0.0984
X0.9843Y-0.3937
X0.9843Y-0.4921
X0.9843Y-0.5906
X0.9843Y-0.689
X0.9843Y-0.7874
X0.9843Y-0.8858
X0.9843Y-1.0827
X0.9843Y-1.2795
X0.9843Y-1.378
X0.9843Y-1.4764
X0.9843Y-1.5748
X0.9843Y-1.7717
X0.9843Y-1.9685
X0.9843Y-2.2638
X0.9843Y-2.6575
X0.9843Y-3.5433
X0.9843Y-3.6417
X1.0039Y-2.7953
X1.0039Y-2.8346
X1.0236Y-3.248
X1.0236Y-3.2874
X1.063Y-3.2874
X1.0827Y-0.0984
X1.0827Y-0.3937
X1.0827Y-0.4921
X1.0827Y-0.5906
X1.0827Y-0.689
X1.0827Y-0.7874
X1.0827Y-0.8858
X1.0827Y-1.0827
X1.0827Y-1.2795
X1.0827Y-1.9685
X1.0827Y-2.0669
X1.0827Y-2.7559
X1.0827Y-2.8543
X1.0827Y-3.5433
X1.0827Y-3.6417
X1.1024Y-3.3661
X1.1024Y-3.4055
X1.1122Y-3.0118
X1.1122Y-3.189
X1.122Y-3.4724
X1.1417Y-3.4055
X1.1506Y-2.6526
X1.1811Y-0.0984
X1.1811Y-0.3937
X1.1811Y-0.4921
X1.1811Y-0.5906
X1.1811Y-0.8858
X1.1811Y-1.0827
X1.1811Y-1.9685
X1.1811Y-2.0669
X1.1811Y-2.1654
X1.1811Y-2.4606
X1.1811Y-3.5433
X1.1811Y-3.6417
X1.2008Y-2.8937
X1.2008Y-3.176
X1.2008Y-3.2579
X1.2205Y-3.3858
X1.2402Y-2.8937
X1.2402Y-2.9331
X1.2598Y-0.9764
X1.2598Y-1.0079
X1.2598Y-1.0394
X1.2598Y-3.3858
X1.2795Y-0.0984
X1.2795Y-0.1969
X1.2795Y-0.2953
X1.2795Y-0.3937
X1.2795Y-0.4921
X1.2795Y-0.5906
X1.2795Y-0.689
X1.2795Y-1.4764
X1.2795Y-1.5748
X1.2795Y-1.7717
X1.2795Y-2.0669
X1.2795Y-2.1654
X1.2795Y-2.2638
X1.2795Y-2.6575
X1.2795Y-3.0033
X1.2795Y-3.2382
X1.2795Y-3.5433
X1.2795Y-3.6417
X1.2829Y-1.126
X1.3031Y-1.0394
X1.3165Y-3.2535
X1.3189Y-2.9626
X1.3268Y-1.2086
X1.3362Y-2.9165
X1.3398Y-2.7937
X1.3499Y-1.5157
X1.3583Y-2.2244
X1.3583Y-2.2638
X1.3583Y-2.9528
X1.3661Y-1.2086
X1.3686Y-0.9449
X1.378Y-0.0984
X1.378Y-0.1969
X1.378Y-0.2953
X1.378Y-0.3937
X1.378Y-0.4921
X1.378Y-0.5906
X1.378Y-0.689
X1.378Y-0.7874
X1.378Y-1.7717
X1.378Y-2.1654
X1.378Y-2.6575
X1.378Y-2.8346
X1.378Y-3.3858
X1.378Y-3.4449
X1.378Y-3.5433
X1.378Y-3.6417
X1.3814Y-2.4921
X1.3814Y-2.5512
X1.3858Y-1.2598
X1.3937Y-1.063
X1.3937Y-1.1024
X1.3937Y-1.1417
X1.3971Y-1.0118
X1.3976Y-2.2244
X1.3976Y-2.9626
X1.3976Y-3.2087
X1.4024Y-2.8941
X1.4028Y-3.2578
X1.4079Y-1.561
X1.4173Y-3.3858
X1.4331Y-1.0236
X1.4331Y-1.063
X1.4331Y-1.1024
X1.4331Y-1.1417
X1.4413Y-1.4413
X1.4501Y-0.9397
X1.4567Y-3.3858
X1.468Y-1.6142
X1.4724Y-1.0236
X1.4724Y-1.063
X1.4724Y-1.1024
X1.4724Y-1.1417
X1.4764Y-0.0984
X1.4764Y-0.1969
X1.4764Y-0.2953
X1.4764Y-0.3937
X1.4764Y-0.4921
X1.4764Y-0.5906
X1.4764Y-0.689
X1.4764Y-0.7874
X1.4764Y-1.7717
X1.4764Y-2.3425
X1.4764Y-3.4449
X1.4764Y-3.5433
X1.4764Y-3.6417
X1.4961Y-2.8346
X1.4961Y-3.3858
X1.5118Y-1.063
X1.5118Y-1.1024
X1.5118Y-1.1417
X1.5153Y-1.0281
X1.5354Y-3.3858
X1.5364Y-3.0423
X1.5402Y-1.4425
X1.5441Y-1.6528
X1.5445Y-1.5673
X1.5512Y-1.063
X1.5512Y-1.1024
X1.5523Y-3.0938
X1.5551Y-2.8827
X1.5748Y-0.0984
X1.5748Y-0.1969
X1.5748Y-0.2953
X1.5748Y-0.3937
X1.5748Y-0.4921
X1.5748Y-0.5906
X1.5748Y-0.689
X1.5748Y-0.7874
X1.5748Y-3.4449
X1.5748Y-3.5433
X1.5748Y-3.6417
X1.5827Y-0.9758
X1.5827Y-1.2086
X1.6058Y-1.6929
X1.622Y-1.2677
X1.6339Y-2.9232
X1.6354Y-2.7878
X1.6437Y-1.4567
X1.6535Y-3.0866
X1.6551Y-1.5717
X1.6569Y-2.4843
X1.6709Y-2.7531
X1.6732Y-0.0984
X1.6732Y-0.1969
X1.6732Y-0.2953
X1.6732Y-0.3937
X1.6732Y-0.4921
X1.6732Y-0.5906
X1.6732Y-1.0827
X1.6732Y-1.2795
X1.6732Y-3.3465
X1.6732Y-3.4449
X1.6732Y-3.5433
X1.6732Y-3.6417
X1.6752Y-2.6559
X1.6882Y-3.0268
X1.6929Y-3.183
X1.7003Y-2.4961
X1.7224Y-3.061
X1.7276Y-2.6311
X1.7283Y-2.8827
X1.7288Y-2.595
X1.7323Y-2.1654
X1.7323Y-2.2047
X1.7717Y-0.0984
X1.7717Y-0.3937
X1.7717Y-0.4921
X1.7717Y-0.5906
X1.7717Y-0.8858
X1.7717Y-1.0827
X1.7717Y-1.2795
X1.7717Y-1.378
X1.7717Y-1.4764
X1.7717Y-1.5748
X1.7717Y-1.7717
X1.7717Y-2.1654
X1.7717Y-3.248
X1.7717Y-3.3465
X1.7717Y-3.4449
X1.7717Y-3.5433
X1.7717Y-3.6417
X1.7913Y-2.0276
X1.811Y-2.7756
X1.8307Y-2.0276
X1.8346Y-3.0374
X1.8406Y-2.7362
X1.8504Y-2.1654
X1.8701Y-0.0984
X1.8701Y-0.1969
X1.8701Y-0.2953
X1.8701Y-0.3937
X1.8701Y-0.4921
X1.8701Y-0.5906
X1.8701Y-0.689
X1.8701Y-0.7874
X1.8701Y-0.8858
X1.8701Y-1.0827
X1.8701Y-1.2795
X1.8701Y-1.378
X1.8701Y-1.4764
X1.8701Y-1.5748
X1.8701Y-1.7717
X1.8701Y-1.8701
X1.8701Y-2.0276
X1.8701Y-2.5197
X1.8701Y-3.3465
X1.8701Y-3.4449
X1.8701Y-3.5433
X1.8701Y-3.6417
X1.8839Y-2.4567
X1.8862Y-2.9374
X1.8898Y-2.2756
X1.8898Y-2.5787
X1.9016Y-2.3307
X1.9247Y-2.1457
X1.9343Y-2.8886
X1.9404Y-1.6929
X1.9685Y-0.0984
X1.9685Y-0.3937
X1.9685Y-0.4921
X1.9685Y-0.5906
X1.9685Y-0.689
X1.9685Y-0.7874
X1.9685Y-0.8858
X1.9685Y-1.0827
X1.9685Y-1.2795
X1.9685Y-1.378
X1.9685Y-1.4764
X1.9685Y-1.5748
X1.9685Y-2.4606
X1.9685Y-3.3465
X1.9685Y-3.4449
X1.9685Y-3.5433
X1.9685Y-3.6417
X1.9713Y-3.0303
X1.9837Y-2.1457
X2.029Y-1.6142
X2.0335Y-2.9618
X2.0378Y-3.1232
X2.0669Y-0.0984
X2.0669Y-0.3937
X2.0669Y-0.4921
X2.0669Y-0.5906
X2.0669Y-0.8858
X2.0669Y-1.0827
X2.0669Y-1.2795
X2.0669Y-1.378
X2.0669Y-1.7717
X2.0669Y-1.8701
X2.0669Y-2.4606
X2.0669Y-3.248
X2.0669Y-3.3465
X2.0669Y-3.4449
X2.0669Y-3.5433
X2.0669Y-3.6417
X2.0673Y-1.5685
X2.0839Y-3.0823
X2.0867Y-2.6043
X2.1058Y-1.5177
X2.1339Y-0.9764
X2.1339Y-1.0079
X2.1339Y-1.0394
X2.137Y-3.0201
X2.1417Y-1.1732
X2.1433Y-2.8382
X2.1654Y-0.0984
X2.1654Y-0.1969
X2.1654Y-0.2953
X2.1654Y-0.3937
X2.1654Y-0.4921
X2.1654Y-0.5906
X2.1654Y-0.689
X2.1654Y-2.4606
X2.1654Y-3.248
X2.1654Y-3.3465
X2.1654Y-3.6417
X2.1772Y-1.0394
X2.1811Y-3.5039
X2.1811Y-3.5354
X2.1929Y-1.2086
X2.1949Y-2.3317
X2.2402Y-1.2086
X2.2421Y-0.9444
X2.2441Y-1.252
X2.2441Y-3.5354
X2.2475Y-1.5177
X2.2638Y-0.0984
X2.2638Y-0.1969
X2.2638Y-0.2953
X2.2638Y-0.3937
X2.2638Y-0.4921
X2.2638Y-0.5906
X2.2638Y-0.689
X2.2638Y-0.7874
X2.2638Y-1.063
X2.2638Y-1.1024
X2.2638Y-1.1417
X2.2638Y-1.5748
X2.2638Y-1.7717
X2.2638Y-1.8701
X2.2638Y-2.8543
X2.2638Y-2.9528
X2.2638Y-3.6417
X2.2672Y-1.0157
X2.2795Y-1.4665
X2.2835Y-2.687
X2.2835Y-2.7264
X2.2933Y-2.5295
X2.2933Y-2.5886
X2.2992Y-3.5354
X2.3031Y-1.0236
X2.3031Y-1.063
X2.3031Y-1.1024
X2.3031Y-1.1417
X2.3203Y-0.9397
X2.3381Y-1.6122
X2.3425Y-1.0236
X2.3425Y-1.063
X2.3425Y-1.1024
X2.3425Y-1.1417
X2.3496Y-2.837
X2.3508Y-2.9693
X2.3516Y-2.6484
X2.3543Y-3.4961
X2.3543Y-3.5354
X2.3622Y-0.0984
X2.3622Y-0.1969
X2.3622Y-0.2953
X2.3622Y-0.3937
X2.3622Y-0.4921
X2.3622Y-0.5906
X2.3622Y-0.689
X2.3622Y-0.7874
X2.3622Y-1.7717
X2.3622Y-3.6417
X2.3819Y-1.063
X2.3819Y-1.1024
X2.3819Y-1.1417
X2.387Y-3.1358
X2.4213Y-1.063
X2.4213Y-1.1024
X2.4319Y-1.6539
X2.4409Y-2.8469
X2.4413Y-3.052
X2.4421Y-2.748
X2.4441Y-2.9559
X2.4503Y-1.2086
X2.4606Y-0.0984
X2.4606Y-0.1969
X2.4606Y-0.2953
X2.4606Y-0.3937
X2.4606Y-0.4921
X2.4606Y-0.5906
X2.4606Y-0.689
X2.4606Y-0.7874
X2.4606Y-1.2598
X2.4606Y-3.248
X2.4606Y-3.3465
X2.4606Y-3.4449
X2.4606Y-3.5433
X2.4606Y-3.6417
X2.4636Y-0.9765
X2.4758Y-1.6909
X2.5134Y-1.6665
X2.5177Y-1.4752
X2.5453Y-2.7799
X2.5591Y-0.0984
X2.5591Y-0.3937
X2.5591Y-0.4921
X2.5591Y-0.5906
X2.5591Y-1.0827
X2.5591Y-1.2795
X2.5591Y-1.8701
X2.5591Y-2.1654
X2.5591Y-3.0512
X2.5591Y-3.1496
X2.5591Y-3.248
X2.5591Y-3.5433
X2.5591Y-3.6417
X2.6181Y-2.9331
X2.6181Y-2.9724
X2.6181Y-3.0512
X2.6181Y-3.0906
X2.6213Y-3.2839
X2.6575Y-0.0984
X2.6575Y-0.3937
X2.6575Y-0.4921
X2.6575Y-0.5906
X2.6575Y-0.8858
X2.6575Y-1.0827
X2.6575Y-1.2795
X2.6575Y-1.378
X2.6575Y-1.4764
X2.6575Y-1.5748
X2.6575Y-1.7717
X2.6575Y-1.9685
X2.6575Y-2.1654
X2.6575Y-3.4449
X2.6575Y-3.5433
X2.6575Y-3.6417
X2.6732Y-3.2913
X2.6878Y-3.2335
X2.7165Y-2.874
X2.7539Y-3.3071
X2.7559Y-0.0984
X2.7559Y-0.1969
X2.7559Y-0.2953
X2.7559Y-0.3937
X2.7559Y-0.4921
X2.7559Y-0.5906
X2.7559Y-0.689
X2.7559Y-0.7874
X2.7559Y-0.8858
X2.7559Y-1.0827
X2.7559Y-1.2795
X2.7559Y-1.378
X2.7559Y-1.4764
X2.7559Y-1.5748
X2.7559Y-1.8701
X2.7559Y-2.1654
X2.7559Y-2.3622
X2.7756Y-2.8346
X2.7756Y-2.874
X2.815Y-2.8346
X2.815Y-2.874
X2.8169Y-1.4264
X2.8382Y-3.3114
X2.8543Y-0.0984
X2.8543Y-0.3937
X2.8543Y-0.4921
X2.8543Y-0.5906
X2.8543Y-0.8858
X2.8543Y-1.0827
X2.8543Y-1.2795
X2.8543Y-1.378
X2.8543Y-1.4764
X2.8543Y-1.5748
X2.8543Y-1.7717
X2.8543Y-2.1654
X2.8701Y-2.8819
X2.9528Y-0.0984
X2.9528Y-0.3937
X2.9528Y-0.4921
X2.9528Y-0.5906
X2.9528Y-0.8858
X2.9528Y-2.1654
X2.9528Y-2.7559
X2.9528Y-3.248
X2.9528Y-3.3465
X2.9528Y-3.4449
X2.9528Y-3.5433
X2.9606Y-0.9843
X2.9606Y-1.0157
X2.9606Y-1.0472
X2.986Y-1.1592
X3.0039Y-1.0472
X3.0236Y-1.2086
X3.0512Y-0.0984
X3.0512Y-0.1969
X3.0512Y-0.2953
X3.0512Y-0.3937
X3.0512Y-0.4921
X3.0512Y-0.5906
X3.0512Y-0.689
X3.0512Y-0.7874
X3.0512Y-1.311
X3.0512Y-1.5748
X3.0512Y-1.7717
X3.0512Y-1.8701
X3.0512Y-3.1496
X3.0512Y-3.248
X3.0512Y-3.3465
X3.0512Y-3.4449
X3.0512Y-3.5433
X3.0512Y-3.6417
X3.0625Y-1.5177
X3.063Y-1.2086
X3.0712Y-0.9475
X3.0906Y-1.2717
X3.1097Y-1.0315
X3.1102Y-1.063
X3.1102Y-1.1024
X3.1102Y-1.1417
X3.1496Y-0.0984
X3.1496Y-0.1969
X3.1496Y-0.2953
X3.1496Y-0.3937
X3.1496Y-0.4921
X3.1496Y-0.5906
X3.1496Y-0.689
X3.1496Y-0.7874
X3.1496Y-1.0236
X3.1496Y-1.063
X3.1496Y-1.1024
X3.1496Y-1.1417
X3.1496Y-1.4764
X3.1496Y-1.7717
X3.1496Y-1.8701
X3.1496Y-1.9685
X3.1496Y-2.7559
X3.1496Y-3.3465
X3.1496Y-3.4449
X3.1496Y-3.5433
X3.1496Y-3.6417
X3.1625Y-0.9397
X3.1806Y-1.6161
X3.189Y-1.0236
X3.189Y-1.063
X3.189Y-1.1024
X3.189Y-1.1417
X3.226Y-1.6496
X3.2283Y-1.063
X3.2283Y-1.1024
X3.2283Y-1.1417
X3.2441Y-3.2913
X3.248Y-0.0984
X3.248Y-0.1969
X3.248Y-0.2953
X3.248Y-0.3937
X3.248Y-0.4921
X3.248Y-0.5906
X3.248Y-0.689
X3.248Y-0.7874
X3.248Y-1.4764
X3.248Y-1.5748
X3.248Y-1.7717
X3.248Y-1.8701
X3.248Y-1.9685
X3.248Y-3.4449
X3.248Y-3.5433
X3.248Y-3.6417
X3.2677Y-1.063
X3.2677Y-1.1024
X3.2835Y-3.252
X3.2835Y-3.2913
X3.2992Y-0.9764
X3.3031Y-1.2086
X3.3169Y-3.1654
X3.3184Y-1.6949
X3.3228Y-3.1004
X3.3268Y-1.2559
X3.3465Y-0.0984
X3.3465Y-0.1969
X3.3465Y-0.2953
X3.3465Y-0.3937
X3.3465Y-0.4921
X3.3465Y-0.5906
X3.3465Y-0.689
X3.3465Y-0.7874
X3.3465Y-1.0827
X3.3465Y-1.7717
X3.3465Y-1.9685
X3.3465Y-3.4449
X3.3465Y-3.5433
X3.3465Y-3.6417
X3.3543Y-3.2677
X3.3543Y-3.3071
X3.3787Y-0.9996
X3.3937Y-3.2677
X3.3937Y-3.3071
X3.4331Y-3.2677
X3.4331Y-3.3071
X3.4409Y-3.0157
X3.4409Y-3.0472
X3.4449Y-0.0984
X3.4449Y-0.3937
X3.4449Y-0.4921
X3.4449Y-0.5906
X3.4449Y-2.1654
X3.4449Y-2.2638
X3.4449Y-3.4449
X3.4449Y-3.5433
X3.4449Y-3.6417
X3.5433Y-0.0984
X3.5433Y-0.3937
X3.5433Y-0.4921
X3.5433Y-0.5906
X3.5433Y-0.8858
X3.5433Y-0.9843
X3.5433Y-1.0827
X3.5433Y-1.1811
X3.5433Y-1.2795
X3.5433Y-1.6732
X3.5433Y-1.7717
X3.5433Y-1.8701
X3.5433Y-1.9685
X3.5433Y-2.0669
X3.5433Y-2.1654
X3.5433Y-2.2638
X3.5433Y-2.3622
X3.5591Y-3.4488
X3.5984Y-3.4094
X3.5984Y-3.4488
X3.6181Y-1.4173
X3.6181Y-1.4567
X3.6417Y-0.0984
X3.6417Y-0.1969
X3.6417Y-0.2953
X3.6417Y-0.3937
X3.6417Y-0.4921
X3.6417Y-0.5906
X3.6417Y-0.689
X3.6417Y-0.7874
X3.6417Y-0.8858
X3.6417Y-1.1811
X3.6417Y-1.2795
X3.6417Y-1.6732
X3.6417Y-1.7717
X3.6417Y-1.8701
X3.6417Y-1.9685
X3.6417Y-2.0669
X3.6417Y-2.1654
X3.6417Y-2.2638
X3.6417Y-2.3622
X3.6417Y-3.1496
X3.6417Y-3.248
X3.6535Y-1.5276
X3.6535Y-1.5591
X3.6535Y-1.5906
X3.6535Y-1.622
X3.6575Y-1.4567
X3.7402Y-0.1969
X3.7402Y-0.2953
X3.7402Y-0.3937
X3.7402Y-0.4921
X3.7402Y-0.5906
X3.7402Y-0.689
X3.7402Y-0.7874
X3.7402Y-0.8858
X3.7402Y-1.1811
X3.7402Y-1.2795
X3.7402Y-1.4764
X3.7402Y-1.5748
X3.7402Y-1.6732
X3.7402Y-1.7717
X3.7402Y-1.8701
X3.7402Y-1.9685
X3.7402Y-2.0669
X3.7402Y-2.1654
X3.7402Y-2.2638
X3.7402Y-2.3622
X3.7402Y-2.4606
X3.7402Y-2.5591
X3.7402Y-2.6575
X3.7402Y-2.7559
X3.7402Y-2.8543
X3.7402Y-2.9528
X3.7402Y-3.1496
X3.7402Y-3.248
X3.7402Y-3.4449
X3.7402Y-3.5433
X3.7402Y-3.6417
T3
X0.9217Y-2.9193
X0.9476Y-3.1543
X0.9833Y-3.0469
X1.063Y-2.9134
X1.5768Y-3.2968
X2.3031Y-2.3228
X2.4409Y-2.3228
X2.6583Y-3.1929
X2.6594Y-2.9043
X2.7213Y-3.1929
X2.7717Y-2.9882
X2.7972Y-3.618
X2.9035Y-2.3524
X2.9035Y-2.4311
X2.9035Y-2.5197
X2.9035Y-2.6083
X3.0287Y-2.8386
X3.0315Y-2.1161
X3.0906Y-2.1161
X3.1024Y-2.6693
X3.1496Y-2.1161
X3.1496Y-2.6693
X3.1507Y-2.3809
X3.1969Y-2.6693
X3.2087Y-2.1161
X3.2201Y-2.2988
X3.3307Y-2.2173
X3.4071Y-2.2169
X3.4843Y-0.9449
X3.4843Y-1.7087
X3.5433Y-2.7756
X3.5433Y-2.815
X3.5827Y-2.815
T5
X0.6986Y-2.8911
X0.6986Y-2.9911
X0.6986Y-3.0911
X0.6986Y-3.1911
X0.7986Y-2.9407
X0.7986Y-3.0407
X0.7986Y-3.1407
X0.7986Y-3.2407
T6
X0.1181Y-1.9472
X0.1181Y-2.0472
X0.1181Y-2.1472
X0.1181Y-2.2472
X0.1181Y-2.3472
X1.6417Y-1.902
X1.6417Y-2.002
X1.6417Y-2.102
X2.563Y-3.3681
X2.563Y-3.4681
X2.7445Y-3.6909
X2.8445Y-3.6909
X2.9445Y-3.6909
X3.3465Y-2.874
X3.4465Y-2.874
T7
X0.2553Y-2.8051
X0.2553Y-2.9051
X0.2553Y-3.2267
X0.2553Y-3.3267
T8
X3.5787Y-2.5138
X3.5787Y-2.6138
T9
X0.5683Y-2.761
X0.5683Y-3.3708
T10
X0.2913Y-0.2165
X0.3268Y-0.748
X0.8661Y-0.748
X0.9094Y-0.2165
X1.1575Y-0.2165
X1.1929Y-0.748
X1.7323Y-0.748
X1.7756Y-0.2165
X2.0231Y-0.2264
X2.0585Y-0.7579
X2.5979Y-0.7579
X2.6412Y-0.2264
X2.8898Y-0.2307
X2.9252Y-0.7622
X3.4646Y-0.7622
X3.5079Y-0.2307
T4
G00X3.5065Y-3.0051
M15
G01X3.5498Y-3.0051
M16
G05
G00X3.5065Y-3.3453
M15
G01X3.5498Y-3.3453
M16
G05
G00X3.6809Y-3.0051
M15
G01X3.7045Y-3.0051
M16
G05
G00X3.6809Y-3.3453
M15
G01X3.7045Y-3.3453
M16
G05
M30
