M48
; DRILL file {KiCad 9.0.4} date 2025-10-09T14:55:44-0700
; FORMAT={-:-/ absolute / inch / decimal}
; #@! TF.CreationDate,2025-10-09T14:55:44-07:00
; #@! TF.GenerationSoftware,Kicad,Pcbnew,9.0.4
; #@! TF.FileFunction,Plated,1,4,PTH
FMAT,2
INCH
; #@! TA.AperFunction,Plated,PTH,ComponentDrill
T1C0.0079
; #@! TA.AperFunction,Plated,PTH,ViaDrill
T2C0.0118
; #@! TA.AperFunction,Plated,PTH,ViaDrill
T3C0.0157
; #@! TA.AperFunction,Plated,PTH,ComponentDrill
T4C0.0236
; #@! TA.AperFunction,Plated,PTH,ComponentDrill
T5C0.0350
; #@! TA.AperFunction,Plated,PTH,ComponentDrill
T6C0.0394
; #@! TA.AperFunction,Plated,PTH,ComponentDrill
T7C0.0402
; #@! TA.AperFunction,Plated,PTH,ComponentDrill
T8C0.0433
; #@! TA.AperFunction,Plated,PTH,ComponentDrill
T9C0.0642
; #@! TA.AperFunction,Plated,PTH,ComponentDrill
T10C0.0697
%
G90
G05
T1
X1.3744Y-3.0393
X1.3744Y-3.0787
X1.3744Y-3.1181
X1.4137Y-3.0393
X1.4137Y-3.0787
X1.4137Y-3.1181
X1.4531Y-3.0393
X1.4531Y-3.0787
X1.4531Y-3.1181
T2
X0.0787Y-0.0787
X0.0787Y-0.1575
X0.0787Y-0.2362
X0.0787Y-0.315
X0.0787Y-0.3937
X0.0787Y-0.4724
X0.0787Y-0.5512
X0.0787Y-0.6299
X0.0787Y-0.7087
X0.0787Y-0.7874
X0.0787Y-0.8661
X0.0787Y-0.9449
X0.0787Y-1.0236
X0.0787Y-1.1024
X0.0787Y-1.1811
X0.0787Y-1.2598
X0.0787Y-1.3386
X0.0787Y-1.4173
X0.0787Y-1.4961
X0.0787Y-1.5748
X0.0787Y-1.6535
X0.0787Y-1.7323
X0.0787Y-1.811
X0.0787Y-2.4409
X0.0787Y-2.5197
X0.0787Y-2.5984
X0.0787Y-2.6772
X0.0787Y-2.7559
X0.0787Y-2.8346
X0.0787Y-2.9134
X0.0787Y-2.9921
X0.0787Y-3.0709
X0.0787Y-3.1496
X0.0787Y-3.2283
X0.0787Y-3.3071
X0.0787Y-3.3858
X0.0787Y-3.4646
X0.0787Y-3.5433
X0.0787Y-3.622
X0.0787Y-3.7008
X0.1575Y-0.0787
X0.1575Y-0.1575
X0.1575Y-0.2362
X0.1575Y-0.315
X0.1575Y-0.3937
X0.1575Y-0.4724
X0.1575Y-0.5512
X0.1575Y-0.6299
X0.1575Y-0.7087
X0.1575Y-0.7874
X0.1575Y-0.8661
X0.1575Y-1.1811
X0.1575Y-1.2598
X0.1575Y-1.3386
X0.1575Y-1.4173
X0.1575Y-1.4961
X0.1575Y-1.5748
X0.1575Y-1.6535
X0.1575Y-1.7323
X0.1575Y-1.811
X0.1575Y-2.4409
X0.1575Y-2.5197
X0.1575Y-2.5984
X0.1575Y-2.6772
X0.1575Y-2.7559
X0.1575Y-2.8346
X0.1575Y-2.9134
X0.1575Y-2.9921
X0.1575Y-3.0709
X0.1575Y-3.1496
X0.1575Y-3.2283
X0.1575Y-3.3071
X0.1575Y-3.3858
X0.1575Y-3.4646
X0.2362Y-0.0787
X0.2362Y-0.315
X0.2362Y-0.3937
X0.2362Y-0.4724
X0.2362Y-0.5512
X0.2362Y-0.6299
X0.2362Y-0.7087
X0.2362Y-0.7874
X0.2362Y-0.8661
X0.2362Y-1.1811
X0.2362Y-1.7323
X0.2362Y-1.811
X0.2362Y-2.0472
X0.2362Y-2.3622
X0.2362Y-2.4409
X0.2362Y-2.5197
X0.2362Y-2.9921
X0.2362Y-3.0709
X0.2362Y-3.1496
X0.2362Y-3.4646
X0.2544Y-2.185
X0.2938Y-2.0079
X0.2938Y-2.0472
X0.2938Y-2.185
X0.3134Y-2.3031
X0.3134Y-2.3425
X0.315Y-0.0787
X0.315Y-0.315
X0.315Y-0.3937
X0.315Y-0.4724
X0.315Y-0.5512
X0.315Y-0.6299
X0.315Y-0.8661
X0.315Y-0.9449
X0.315Y-1.0236
X0.315Y-1.1024
X0.315Y-1.4173
X0.315Y-1.4961
X0.315Y-1.5748
X0.315Y-2.4409
X0.315Y-2.5197
X0.315Y-2.6772
X0.315Y-2.7559
X0.315Y-2.9921
X0.315Y-3.0709
X0.315Y-3.1496
X0.315Y-3.5433
X0.315Y-3.622
X0.315Y-3.7008
X0.3386Y-1.189
X0.3528Y-2.0472
X0.3528Y-2.3425
X0.3528Y-3.4055
X0.372Y-1.2047
X0.3725Y-2.2244
X0.3922Y-2.5591
X0.3937Y-0.0787
X0.3937Y-0.1575
X0.3937Y-0.2362
X0.3937Y-0.315
X0.3937Y-0.3937
X0.3937Y-0.4724
X0.3937Y-0.5512
X0.3937Y-0.6299
X0.3937Y-1.8898
X0.3937Y-2.4409
X0.3937Y-2.6772
X0.3937Y-3.0709
X0.3937Y-3.1496
X0.3937Y-3.5433
X0.3937Y-3.622
X0.3937Y-3.7008
X0.4001Y-0.9685
X0.4001Y-1.0
X0.4001Y-1.0315
X0.4134Y-1.4882
X0.4316Y-2.5591
X0.4316Y-2.5984
X0.4434Y-1.0315
X0.4473Y-1.2086
X0.4724Y-0.0787
X0.4724Y-0.1575
X0.4724Y-0.2362
X0.4724Y-0.315
X0.4724Y-0.3937
X0.4724Y-0.4724
X0.4724Y-0.5512
X0.4724Y-0.6299
X0.4724Y-0.7087
X0.4724Y-0.7874
X0.4724Y-2.3622
X0.4724Y-2.4409
X0.4724Y-2.6772
X0.4724Y-3.1496
X0.4724Y-3.5433
X0.4724Y-3.622
X0.4724Y-3.7008
X0.4822Y-1.5157
X0.4906Y-1.2086
X0.5046Y-0.9432
X0.5071Y-1.5685
X0.5103Y-1.252
X0.5294Y-1.0118
X0.53Y-1.063
X0.53Y-1.1024
X0.53Y-1.1417
X0.5512Y-0.0787
X0.5512Y-0.1575
X0.5512Y-0.2362
X0.5512Y-0.315
X0.5512Y-0.3937
X0.5512Y-0.4724
X0.5512Y-0.5512
X0.5512Y-0.6299
X0.5512Y-0.7087
X0.5512Y-0.7874
X0.5512Y-1.4173
X0.5512Y-1.5748
X0.5512Y-1.6535
X0.5512Y-2.126
X0.5512Y-2.3622
X0.5512Y-2.6772
X0.5512Y-3.5433
X0.5512Y-3.622
X0.5512Y-3.7008
X0.5694Y-1.0236
X0.5694Y-1.063
X0.5694Y-1.1024
X0.5694Y-1.1417
X0.5826Y-0.9397
X0.6003Y-1.6142
X0.6087Y-1.0236
X0.6087Y-1.063
X0.6087Y-1.1024
X0.6087Y-1.1417
X0.6299Y-0.0787
X0.6299Y-0.1575
X0.6299Y-0.2362
X0.6299Y-0.315
X0.6299Y-0.3937
X0.6299Y-0.4724
X0.6299Y-0.5512
X0.6299Y-0.6299
X0.6299Y-0.7087
X0.6299Y-0.7874
X0.6299Y-1.6654
X0.6299Y-1.7323
X0.6299Y-2.3622
X0.6299Y-2.6772
X0.6299Y-2.9134
X0.6299Y-2.9921
X0.6299Y-3.0709
X0.6299Y-3.1496
X0.6299Y-3.5433
X0.6299Y-3.622
X0.6299Y-3.7008
X0.6481Y-1.063
X0.6481Y-1.1024
X0.6481Y-1.1417
X0.6595Y-2.1697
X0.6678Y-2.5787
X0.6875Y-1.063
X0.6875Y-1.1024
X0.6914Y-2.2106
X0.7071Y-2.5787
X0.7087Y-0.0787
X0.7087Y-0.1575
X0.7087Y-0.2362
X0.7087Y-0.315
X0.7087Y-0.3937
X0.7087Y-0.4724
X0.7087Y-0.5512
X0.7087Y-0.6299
X0.7087Y-0.7087
X0.7087Y-0.7874
X0.7087Y-2.6772
X0.7087Y-2.7559
X0.7087Y-3.5433
X0.7087Y-3.622
X0.7087Y-3.7008
X0.715Y-0.9758
X0.715Y-1.2086
X0.7351Y-2.3874
X0.7381Y-1.6929
X0.7465Y-2.5787
X0.7544Y-1.2677
X0.7677Y-1.7441
X0.7859Y-2.3819
X0.7859Y-2.5787
X0.7874Y-0.0787
X0.7874Y-0.1575
X0.7874Y-0.2362
X0.7874Y-0.315
X0.7874Y-0.3937
X0.7874Y-0.4724
X0.7874Y-0.5512
X0.7874Y-0.6299
X0.7874Y-1.1024
X0.7874Y-1.5748
X0.7874Y-1.6535
X0.7874Y-1.8898
X0.7874Y-2.6772
X0.7874Y-2.7559
X0.7874Y-2.8346
X0.7874Y-3.5433
X0.7874Y-3.622
X0.7874Y-3.7008
X0.8253Y-2.5787
X0.8646Y-3.3858
X0.8661Y-0.0787
X0.8661Y-0.315
X0.8661Y-0.3937
X0.8661Y-0.4724
X0.8661Y-0.5512
X0.8661Y-0.6299
X0.8661Y-0.8661
X0.8661Y-1.0236
X0.8661Y-1.1024
X0.8661Y-1.2598
X0.8661Y-1.3386
X0.8661Y-2.6772
X0.8661Y-2.7559
X0.8661Y-2.8346
X0.8661Y-3.5433
X0.8661Y-3.622
X0.8661Y-3.7008
X0.8741Y-3.1307
X0.904Y-3.3858
X0.904Y-3.4252
X0.9421Y-3.1753
X0.9449Y-0.0787
X0.9449Y-0.315
X0.9449Y-0.3937
X0.9449Y-0.4724
X0.9449Y-0.5512
X0.9449Y-0.6299
X0.9449Y-0.8661
X0.9449Y-1.0236
X0.9449Y-1.1024
X0.9449Y-1.2598
X0.9449Y-1.3386
X0.9449Y-1.4173
X0.9449Y-1.5748
X0.9449Y-1.6535
X0.9449Y-1.7539
X0.9449Y-1.8898
X0.9449Y-2.6772
X0.9449Y-3.5433
X0.9449Y-3.622
X0.9449Y-3.7008
X0.9631Y-2.7953
X0.9705Y-2.9413
X0.9902Y-3.1077
X0.9996Y-3.0488
X1.0019Y-3.2346
X1.0024Y-2.7953
X1.0024Y-2.8346
X1.0098Y-3.1701
X1.0236Y-0.0787
X1.0236Y-0.1575
X1.0236Y-0.2362
X1.0236Y-0.315
X1.0236Y-0.3937
X1.0236Y-0.4724
X1.0236Y-0.5512
X1.0236Y-0.6299
X1.0236Y-0.7087
X1.0236Y-0.7874
X1.0236Y-0.8661
X1.0236Y-1.0236
X1.0236Y-1.1024
X1.0236Y-1.2598
X1.0236Y-1.3386
X1.0236Y-1.4173
X1.0236Y-1.5748
X1.0236Y-1.6535
X1.0236Y-1.7539
X1.0236Y-1.8898
X1.0236Y-1.9685
X1.0236Y-2.6772
X1.0236Y-3.3858
X1.0236Y-3.5433
X1.0236Y-3.622
X1.0236Y-3.7008
X1.07Y-3.0039
X1.07Y-3.1811
X1.0728Y-3.2799
X1.1008Y-3.3661
X1.1008Y-3.4055
X1.1024Y-0.0787
X1.1024Y-0.315
X1.1024Y-0.3937
X1.1024Y-0.4724
X1.1024Y-0.5512
X1.1024Y-0.6299
X1.1024Y-0.7087
X1.1024Y-0.7874
X1.1024Y-0.8661
X1.1024Y-1.0236
X1.1024Y-1.1024
X1.1024Y-1.2598
X1.1024Y-1.8898
X1.1024Y-1.9685
X1.1024Y-2.0472
X1.1024Y-2.7559
X1.1024Y-2.8346
X1.1024Y-2.9134
X1.1024Y-3.5433
X1.1024Y-3.622
X1.1024Y-3.7008
X1.1402Y-3.4055
X1.1491Y-2.6526
X1.1614Y-3.0039
X1.1811Y-0.0787
X1.1811Y-0.315
X1.1811Y-0.3937
X1.1811Y-0.4724
X1.1811Y-0.5512
X1.1811Y-0.6299
X1.1811Y-0.8661
X1.1811Y-1.0236
X1.1811Y-1.1024
X1.1811Y-1.9685
X1.1811Y-2.0472
X1.1811Y-2.126
X1.1811Y-3.5433
X1.1811Y-3.622
X1.1811Y-3.7008
X1.1993Y-2.8937
X1.2008Y-3.2402
X1.219Y-3.3858
X1.2386Y-2.8937
X1.2386Y-2.9331
X1.2402Y-1.126
X1.2402Y-3.1417
X1.2583Y-0.9764
X1.2583Y-1.0079
X1.2583Y-1.0394
X1.2583Y-3.3858
X1.2598Y-0.0787
X1.2598Y-0.1575
X1.2598Y-0.2362
X1.2598Y-0.315
X1.2598Y-0.3937
X1.2598Y-0.4724
X1.2598Y-0.5512
X1.2598Y-0.6299
X1.2598Y-1.5748
X1.2598Y-1.6535
X1.2598Y-1.7539
X1.2598Y-2.0472
X1.2598Y-2.126
X1.2598Y-2.2047
X1.2598Y-2.6772
X1.2598Y-3.4646
X1.2598Y-3.5433
X1.2598Y-3.622
X1.2598Y-3.7008
X1.2697Y-3.0033
X1.2814Y-1.126
X1.2992Y-1.4685
X1.3016Y-1.0394
X1.3091Y-3.2402
X1.3174Y-2.9626
X1.3253Y-1.2086
X1.3287Y-3.183
X1.3347Y-2.9165
X1.3382Y-2.7937
X1.3386Y-0.0787
X1.3386Y-0.1575
X1.3386Y-0.2362
X1.3386Y-0.315
X1.3386Y-0.3937
X1.3386Y-0.4724
X1.3386Y-0.5512
X1.3386Y-0.6299
X1.3386Y-0.7087
X1.3386Y-0.7874
X1.3386Y-1.5748
X1.3386Y-1.6535
X1.3386Y-1.7539
X1.3386Y-2.126
X1.3386Y-2.5984
X1.3386Y-2.6772
X1.3386Y-3.4646
X1.3386Y-3.5433
X1.3386Y-3.622
X1.3386Y-3.7008
X1.3483Y-1.5157
X1.3568Y-2.2244
X1.3568Y-2.2638
X1.3568Y-2.9528
X1.3646Y-1.2086
X1.367Y-0.9449
X1.3764Y-2.8346
X1.3764Y-3.3858
X1.3798Y-2.4921
X1.3798Y-2.5512
X1.3843Y-1.2598
X1.3922Y-1.063
X1.3922Y-1.1024
X1.3922Y-1.1417
X1.3956Y-1.0118
X1.3961Y-2.2244
X1.3961Y-2.9626
X1.3976Y-3.2086
X1.4012Y-3.2578
X1.4064Y-1.561
X1.4083Y-3.5268
X1.4083Y-3.5661
X1.4158Y-3.3858
X1.4173Y-0.0787
X1.4173Y-0.1575
X1.4173Y-0.2362
X1.4173Y-0.315
X1.4173Y-0.3937
X1.4173Y-0.4724
X1.4173Y-0.5512
X1.4173Y-0.6299
X1.4173Y-0.7087
X1.4173Y-0.7874
X1.4173Y-1.6535
X1.4173Y-1.7539
X1.4173Y-1.8898
X1.4173Y-2.5984
X1.4173Y-3.4646
X1.4173Y-3.622
X1.4173Y-3.7008
X1.4316Y-1.0236
X1.4316Y-1.063
X1.4316Y-1.1024
X1.4316Y-1.1417
X1.4398Y-1.4413
X1.4476Y-3.5661
X1.4485Y-0.9397
X1.4552Y-3.3858
X1.4665Y-1.6142
X1.4709Y-1.0236
X1.4709Y-1.063
X1.4709Y-1.1024
X1.4709Y-1.1417
X1.4749Y-2.3425
X1.4862Y-2.8268
X1.4945Y-3.3858
X1.4961Y-0.0787
X1.4961Y-0.1575
X1.4961Y-0.2362
X1.4961Y-0.315
X1.4961Y-0.3937
X1.4961Y-0.4724
X1.4961Y-0.5512
X1.4961Y-0.6299
X1.4961Y-0.7087
X1.4961Y-0.7874
X1.4961Y-2.5984
X1.4961Y-3.622
X1.4961Y-3.7008
X1.5103Y-1.063
X1.5103Y-1.1024
X1.5103Y-1.1417
X1.5137Y-1.0281
X1.5157Y-3.2402
X1.5339Y-3.3858
X1.5349Y-3.0423
X1.5386Y-1.4425
X1.5426Y-1.6528
X1.543Y-1.5673
X1.5453Y-1.7539
X1.5497Y-1.063
X1.5497Y-1.1024
X1.5509Y-3.0993
X1.5512Y-2.3465
X1.5536Y-2.8827
X1.5748Y-0.0787
X1.5748Y-0.1575
X1.5748Y-0.2362
X1.5748Y-0.315
X1.5748Y-0.3937
X1.5748Y-0.4724
X1.5748Y-0.5512
X1.5748Y-0.6299
X1.5748Y-0.7087
X1.5748Y-0.7874
X1.5748Y-2.0472
X1.5748Y-3.5433
X1.5748Y-3.622
X1.5748Y-3.7008
X1.5812Y-0.9758
X1.5812Y-1.2086
X1.5865Y-3.301
X1.6043Y-1.6929
X1.6205Y-1.2677
X1.6339Y-2.7878
X1.6422Y-1.4567
X1.652Y-3.0866
X1.6535Y-0.0787
X1.6535Y-0.1575
X1.6535Y-0.2362
X1.6535Y-0.315
X1.6535Y-0.3937
X1.6535Y-0.4724
X1.6535Y-0.5512
X1.6535Y-0.6299
X1.6535Y-1.1024
X1.6535Y-2.1772
X1.6535Y-2.9232
X1.6535Y-3.3858
X1.6535Y-3.4646
X1.6535Y-3.5433
X1.6535Y-3.622
X1.6535Y-3.7008
X1.6536Y-1.5717
X1.6554Y-2.4843
X1.6694Y-2.7531
X1.6732Y-2.8563
X1.6737Y-2.6559
X1.6867Y-3.0268
X1.6914Y-3.183
X1.6987Y-2.4961
X1.7126Y-2.0492
X1.7209Y-3.061
X1.726Y-2.6311
X1.7268Y-2.8827
X1.7273Y-2.595
X1.7308Y-2.1654
X1.7308Y-2.2047
X1.7323Y-0.0787
X1.7323Y-0.315
X1.7323Y-0.3937
X1.7323Y-0.4724
X1.7323Y-0.5512
X1.7323Y-0.6299
X1.7323Y-1.1024
X1.7323Y-1.2598
X1.7323Y-1.3386
X1.7323Y-3.3071
X1.7323Y-3.3858
X1.7323Y-3.4646
X1.7323Y-3.5433
X1.7323Y-3.622
X1.7323Y-3.7008
X1.7701Y-2.1654
X1.7898Y-2.0276
X1.811Y-0.0787
X1.811Y-0.315
X1.811Y-0.3937
X1.811Y-0.4724
X1.811Y-0.5512
X1.811Y-0.6299
X1.811Y-0.8661
X1.811Y-1.0236
X1.811Y-1.1024
X1.811Y-1.2598
X1.811Y-1.3386
X1.811Y-1.4173
X1.811Y-1.5748
X1.811Y-1.6535
X1.811Y-1.811
X1.811Y-3.3071
X1.811Y-3.3858
X1.811Y-3.4646
X1.811Y-3.5433
X1.811Y-3.622
X1.811Y-3.7008
X1.8292Y-2.0276
X1.839Y-2.7362
X1.8489Y-2.1654
X1.8686Y-2.0276
X1.8686Y-2.5197
X1.8823Y-2.4567
X1.8847Y-2.9374
X1.8882Y-2.2756
X1.8898Y-0.0787
X1.8898Y-0.1575
X1.8898Y-0.2362
X1.8898Y-0.315
X1.8898Y-0.3937
X1.8898Y-0.4724
X1.8898Y-0.5512
X1.8898Y-0.6299
X1.8898Y-0.7087
X1.8898Y-0.7874
X1.8898Y-0.8661
X1.8898Y-1.0236
X1.8898Y-1.1024
X1.8898Y-1.2598
X1.8898Y-1.3386
X1.8898Y-1.4173
X1.8898Y-1.5748
X1.8898Y-1.6535
X1.8898Y-1.7441
X1.8898Y-1.811
X1.8898Y-1.8898
X1.8898Y-3.3071
X1.8898Y-3.3858
X1.8898Y-3.4646
X1.8898Y-3.5433
X1.8898Y-3.622
X1.8898Y-3.7008
X1.9001Y-2.3307
X1.9185Y-2.1417
X1.9327Y-2.8886
X1.9389Y-1.6929
X1.9685Y-0.0787
X1.9685Y-0.315
X1.9685Y-0.3937
X1.9685Y-0.4724
X1.9685Y-0.5512
X1.9685Y-0.6299
X1.9685Y-0.7087
X1.9685Y-0.7874
X1.9685Y-0.8661
X1.9685Y-1.0236
X1.9685Y-1.1024
X1.9685Y-1.2598
X1.9685Y-1.3386
X1.9685Y-1.4173
X1.9685Y-1.5748
X1.9685Y-2.2835
X1.9685Y-2.4409
X1.9685Y-3.3858
X1.9685Y-3.4646
X1.9685Y-3.5433
X1.9685Y-3.622
X1.9685Y-3.7008
X1.9697Y-3.0303
X1.9764Y-2.1417
X2.0275Y-1.6142
X2.0319Y-2.9618
X2.0472Y-0.0787
X2.0472Y-0.315
X2.0472Y-0.3937
X2.0472Y-0.4724
X2.0472Y-0.5512
X2.0472Y-0.6299
X2.0472Y-0.8661
X2.0472Y-1.0236
X2.0472Y-1.1024
X2.0472Y-1.2598
X2.0472Y-1.3386
X2.0472Y-1.4173
X2.0472Y-2.9134
X2.0472Y-3.3071
X2.0472Y-3.7008
X2.0658Y-1.5685
X2.0669Y-3.1319
X2.0852Y-2.6043
X2.1043Y-1.5177
X2.1063Y-1.1693
X2.1074Y-3.5774
X2.126Y-0.0787
X2.126Y-0.1575
X2.126Y-0.2362
X2.126Y-0.315
X2.126Y-0.3937
X2.126Y-0.4724
X2.126Y-0.5512
X2.126Y-0.6299
X2.126Y-1.1024
X2.126Y-3.0709
X2.126Y-3.7008
X2.1323Y-0.9764
X2.1323Y-1.0079
X2.1323Y-1.0394
X2.1402Y-1.1732
X2.1418Y-2.8382
X2.1626Y-3.5774
X2.1756Y-1.0394
X2.1914Y-1.2086
X2.1934Y-2.3317
X2.1949Y-2.9252
X2.2047Y-0.0787
X2.2047Y-0.1575
X2.2047Y-0.2362
X2.2047Y-0.315
X2.2047Y-0.3937
X2.2047Y-0.4724
X2.2047Y-0.5512
X2.2047Y-0.6299
X2.2047Y-0.7087
X2.2047Y-0.7874
X2.2047Y-2.9921
X2.2047Y-3.7008
X2.2177Y-3.538
X2.2177Y-3.5774
X2.2386Y-1.2086
X2.2406Y-0.9444
X2.2426Y-1.252
X2.246Y-1.5177
X2.2623Y-1.063
X2.2623Y-1.1024
X2.2623Y-1.1417
X2.2657Y-1.0157
X2.2736Y-2.2657
X2.278Y-1.4665
X2.2819Y-2.687
X2.2819Y-2.7264
X2.2835Y-0.0787
X2.2835Y-0.1575
X2.2835Y-0.2362
X2.2835Y-0.315
X2.2835Y-0.3937
X2.2835Y-0.4724
X2.2835Y-0.5512
X2.2835Y-0.6299
X2.2835Y-0.7087
X2.2835Y-0.7874
X2.2835Y-1.4173
X2.2835Y-1.5669
X2.2835Y-1.6535
X2.2835Y-1.811
X2.2835Y-1.8898
X2.2835Y-3.4646
X2.2835Y-3.5433
X2.2835Y-3.622
X2.2835Y-3.7008
X2.2918Y-2.5295
X2.2918Y-2.5886
X2.3016Y-1.0236
X2.3016Y-1.063
X2.3016Y-1.1024
X2.3016Y-1.1417
X2.3188Y-0.9397
X2.3228Y-2.6398
X2.3365Y-1.6122
X2.341Y-1.0236
X2.341Y-1.063
X2.341Y-1.1024
X2.341Y-1.1417
X2.3622Y-0.0787
X2.3622Y-0.1575
X2.3622Y-0.2362
X2.3622Y-0.315
X2.3622Y-0.3937
X2.3622Y-0.4724
X2.3622Y-0.5512
X2.3622Y-0.6299
X2.3622Y-0.7087
X2.3622Y-0.7874
X2.3622Y-1.811
X2.3622Y-3.622
X2.3622Y-3.7008
X2.3804Y-1.063
X2.3804Y-1.1024
X2.3804Y-1.1417
X2.4197Y-1.063
X2.4197Y-1.1024
X2.4304Y-1.6539
X2.4409Y-0.0787
X2.4409Y-0.1575
X2.4409Y-0.2362
X2.4409Y-0.315
X2.4409Y-0.3937
X2.4409Y-0.4724
X2.4409Y-0.5512
X2.4409Y-0.6299
X2.4409Y-0.7087
X2.4409Y-0.7874
X2.4409Y-3.3071
X2.4409Y-3.622
X2.4409Y-3.7008
X2.4487Y-1.2086
X2.4591Y-1.2598
X2.462Y-0.9765
X2.4743Y-1.6909
X2.4815Y-3.0931
X2.4815Y-3.1325
X2.5119Y-1.6665
X2.5162Y-1.4752
X2.5197Y-0.0787
X2.5197Y-0.1575
X2.5197Y-0.2362
X2.5197Y-0.315
X2.5197Y-0.3937
X2.5197Y-0.4724
X2.5197Y-0.5512
X2.5197Y-0.6299
X2.5197Y-1.1024
X2.5197Y-1.5748
X2.5197Y-1.8898
X2.5197Y-2.2047
X2.5197Y-2.2835
X2.5197Y-2.5984
X2.5197Y-2.6772
X2.5197Y-2.7559
X2.5197Y-2.8346
X2.5197Y-2.9134
X2.5197Y-2.9921
X2.5197Y-3.5433
X2.5197Y-3.622
X2.5197Y-3.7008
X2.5295Y-3.3189
X2.5591Y-3.2598
X2.5846Y-2.9106
X2.5984Y-0.0787
X2.5984Y-0.315
X2.5984Y-0.3937
X2.5984Y-0.4724
X2.5984Y-0.5512
X2.5984Y-0.6299
X2.5984Y-1.1024
X2.5984Y-1.2598
X2.5984Y-1.3386
X2.5984Y-1.811
X2.5984Y-2.2047
X2.5984Y-2.2835
X2.6083Y-3.3484
X2.6378Y-2.8563
X2.6575Y-3.5354
X2.6772Y-0.0787
X2.6772Y-0.315
X2.6772Y-0.3937
X2.6772Y-0.4724
X2.6772Y-0.5512
X2.6772Y-0.6299
X2.6772Y-0.8661
X2.6772Y-1.0236
X2.6772Y-1.1024
X2.6772Y-1.2598
X2.6772Y-1.3386
X2.6772Y-1.4173
X2.6772Y-1.5748
X2.6772Y-1.6535
X2.6772Y-1.9685
X2.6772Y-2.2047
X2.6772Y-2.2835
X2.6772Y-2.6772
X2.6772Y-2.7559
X2.6772Y-2.8661
X2.7346Y-2.9146
X2.7559Y-0.0787
X2.7559Y-0.1575
X2.7559Y-0.2362
X2.7559Y-0.315
X2.7559Y-0.3937
X2.7559Y-0.4724
X2.7559Y-0.5512
X2.7559Y-0.6299
X2.7559Y-0.7087
X2.7559Y-0.7874
X2.7559Y-0.8661
X2.7559Y-1.0236
X2.7559Y-1.1024
X2.7559Y-1.2598
X2.7559Y-1.3386
X2.7559Y-1.4173
X2.7559Y-1.5748
X2.7559Y-1.6535
X2.7559Y-1.8898
X2.7559Y-2.2047
X2.7559Y-2.2835
X2.7559Y-2.4409
X2.7559Y-3.5433
X2.7559Y-3.622
X2.8154Y-1.4264
X2.8346Y-0.0787
X2.8346Y-0.315
X2.8346Y-0.3937
X2.8346Y-0.4724
X2.8346Y-0.5512
X2.8346Y-0.6299
X2.8346Y-0.7087
X2.8346Y-0.7874
X2.8346Y-0.8661
X2.8346Y-1.0236
X2.8346Y-1.1024
X2.8346Y-1.2598
X2.8346Y-1.3386
X2.8346Y-1.5748
X2.8346Y-1.811
X2.8346Y-2.2047
X2.8346Y-2.2835
X2.8346Y-2.4409
X2.8346Y-2.5197
X2.8346Y-3.3071
X2.8346Y-3.3858
X2.8346Y-3.4646
X2.8346Y-3.5433
X2.8346Y-3.622
X2.9134Y-0.0787
X2.9134Y-0.315
X2.9134Y-0.3937
X2.9134Y-0.4724
X2.9134Y-0.5512
X2.9134Y-0.6299
X2.9134Y-0.8661
X2.9134Y-1.0236
X2.9134Y-1.1024
X2.9134Y-2.126
X2.9134Y-2.2047
X2.9134Y-2.2835
X2.9134Y-3.4646
X2.9134Y-3.5433
X2.9134Y-3.622
X2.9134Y-3.7008
X2.9409Y-1.1575
X2.9591Y-0.9843
X2.9591Y-1.0157
X2.9591Y-1.0472
X2.9724Y-2.8366
X2.9844Y-1.1592
X2.9921Y-0.0787
X2.9921Y-0.1575
X2.9921Y-0.2362
X2.9921Y-0.315
X2.9921Y-0.3937
X2.9921Y-0.4724
X2.9921Y-0.5512
X2.9921Y-0.6299
X2.9921Y-2.0472
X2.9921Y-2.126
X2.9921Y-2.2047
X2.9921Y-2.2835
X2.9921Y-2.5984
X2.9921Y-2.6772
X2.9921Y-2.7559
X2.9921Y-3.4646
X2.9921Y-3.5433
X2.9921Y-3.622
X2.9921Y-3.7008
X3.0024Y-1.0472
X3.0118Y-2.8366
X3.0221Y-1.2086
X3.0497Y-1.311
X3.0512Y-2.8366
X3.0609Y-1.5177
X3.0615Y-1.2086
X3.0697Y-0.9475
X3.0709Y-0.0787
X3.0709Y-0.1575
X3.0709Y-0.2362
X3.0709Y-0.315
X3.0709Y-0.3937
X3.0709Y-0.4724
X3.0709Y-0.5512
X3.0709Y-0.6299
X3.0709Y-0.7087
X3.0709Y-0.7874
X3.0709Y-1.6535
X3.0709Y-1.811
X3.0709Y-1.9685
X3.0709Y-2.0472
X3.0709Y-2.126
X3.0709Y-2.2047
X3.0709Y-2.5197
X3.0709Y-2.5984
X3.0709Y-2.6772
X3.0709Y-2.7559
X3.0709Y-3.4646
X3.0709Y-3.5433
X3.0709Y-3.622
X3.0709Y-3.7008
X3.089Y-1.2717
X3.0906Y-2.8366
X3.1082Y-1.0315
X3.1087Y-1.063
X3.1087Y-1.1024
X3.1087Y-1.1417
X3.1102Y-1.5472
X3.1102Y-3.3878
X3.1299Y-2.8366
X3.1481Y-1.0236
X3.1481Y-1.063
X3.1481Y-1.1024
X3.1481Y-1.1417
X3.1496Y-0.0787
X3.1496Y-0.1575
X3.1496Y-0.2362
X3.1496Y-0.315
X3.1496Y-0.3937
X3.1496Y-0.4724
X3.1496Y-0.5512
X3.1496Y-0.6299
X3.1496Y-0.7087
X3.1496Y-0.7874
X3.1496Y-1.811
X3.1496Y-1.9685
X3.1496Y-2.0472
X3.1496Y-2.126
X3.1496Y-2.5197
X3.1496Y-2.5984
X3.1496Y-2.6772
X3.1496Y-2.7559
X3.1496Y-3.3878
X3.1496Y-3.4646
X3.1496Y-3.5433
X3.1496Y-3.622
X3.1496Y-3.7008
X3.1609Y-0.9397
X3.1693Y-2.8366
X3.1791Y-1.6161
X3.1875Y-1.0236
X3.1875Y-1.063
X3.1875Y-1.1024
X3.1875Y-1.1417
X3.189Y-3.3878
X3.2245Y-1.6496
X3.2268Y-1.063
X3.2268Y-1.1024
X3.2268Y-1.1417
X3.2283Y-0.0787
X3.2283Y-0.1575
X3.2283Y-0.2362
X3.2283Y-0.315
X3.2283Y-0.3937
X3.2283Y-0.4724
X3.2283Y-0.5512
X3.2283Y-0.6299
X3.2283Y-0.7087
X3.2283Y-0.7874
X3.2283Y-1.4173
X3.2283Y-1.4961
X3.2283Y-1.5748
X3.2283Y-1.811
X3.2283Y-1.9685
X3.2283Y-2.0472
X3.2283Y-2.5984
X3.2283Y-2.6772
X3.2283Y-3.3878
X3.2283Y-3.4646
X3.2283Y-3.5433
X3.2283Y-3.622
X3.2283Y-3.7008
X3.248Y-2.4724
X3.2662Y-1.063
X3.2662Y-1.1024
X3.2874Y-2.4331
X3.2874Y-2.4724
X3.2977Y-0.9764
X3.3016Y-1.2086
X3.3071Y-0.0787
X3.3071Y-0.1575
X3.3071Y-0.2362
X3.3071Y-0.315
X3.3071Y-0.3937
X3.3071Y-0.4724
X3.3071Y-0.5512
X3.3071Y-0.6299
X3.3071Y-0.7087
X3.3071Y-0.7874
X3.3071Y-1.811
X3.3071Y-1.9685
X3.3071Y-2.0472
X3.3071Y-2.5984
X3.3071Y-2.6772
X3.3071Y-3.3858
X3.3071Y-3.4646
X3.3071Y-3.5433
X3.3071Y-3.622
X3.3071Y-3.7008
X3.315Y-2.3386
X3.3169Y-1.6949
X3.3253Y-1.2559
X3.3268Y-1.7441
X3.3563Y-2.3051
X3.3661Y-2.4429
X3.3661Y-2.4823
X3.3771Y-0.9996
X3.3858Y-0.0787
X3.3858Y-0.1575
X3.3858Y-0.2362
X3.3858Y-0.315
X3.3858Y-0.3937
X3.3858Y-0.4724
X3.3858Y-0.5512
X3.3858Y-0.6299
X3.3858Y-1.1024
X3.3858Y-1.9685
X3.3858Y-2.5984
X3.3858Y-3.3071
X3.3858Y-3.4646
X3.3858Y-3.5433
X3.3858Y-3.622
X3.3858Y-3.7008
X3.3957Y-2.1772
X3.3957Y-2.2165
X3.4055Y-2.4429
X3.4055Y-2.4823
X3.435Y-2.1772
X3.435Y-2.2165
X3.435Y-3.0138
X3.435Y-3.0531
X3.4449Y-2.4429
X3.4449Y-2.4823
X3.4646Y-0.0787
X3.4646Y-0.315
X3.4646Y-0.3937
X3.4646Y-0.4724
X3.4646Y-0.5512
X3.4646Y-0.6299
X3.4646Y-0.8661
X3.4646Y-2.5984
X3.4646Y-3.5433
X3.4646Y-3.622
X3.4646Y-3.7008
X3.4744Y-3.0138
X3.4744Y-3.0531
X3.5433Y-0.0787
X3.5433Y-0.315
X3.5433Y-0.3937
X3.5433Y-0.4724
X3.5433Y-0.5512
X3.5433Y-0.6299
X3.5433Y-0.8661
X3.5433Y-0.9449
X3.5433Y-1.0236
X3.5433Y-1.1024
X3.5433Y-1.1811
X3.5433Y-1.2598
X3.5433Y-1.7323
X3.5433Y-1.811
X3.5433Y-1.8898
X3.5433Y-1.9685
X3.5433Y-2.0472
X3.5433Y-3.5433
X3.5433Y-3.622
X3.5433Y-3.7008
X3.5531Y-3.3681
X3.5531Y-3.4173
X3.6024Y-3.3681
X3.6024Y-3.4173
X3.6122Y-2.0591
X3.6166Y-1.4173
X3.6166Y-1.4567
X3.622Y-0.0787
X3.622Y-0.1575
X3.622Y-0.2362
X3.622Y-0.315
X3.622Y-0.3937
X3.622Y-0.4724
X3.622Y-0.5512
X3.622Y-0.6299
X3.622Y-0.7087
X3.622Y-0.7874
X3.622Y-0.8661
X3.622Y-0.9449
X3.622Y-1.1811
X3.622Y-1.2598
X3.622Y-1.7323
X3.622Y-1.811
X3.622Y-1.8898
X3.622Y-1.9685
X3.622Y-3.5433
X3.6516Y-2.0591
X3.6516Y-2.0984
X3.6516Y-3.3681
X3.6516Y-3.4173
X3.652Y-1.5276
X3.652Y-1.5591
X3.652Y-1.5906
X3.652Y-1.622
X3.656Y-1.4567
X3.7008Y-0.0787
X3.7008Y-0.1575
X3.7008Y-0.2362
X3.7008Y-0.315
X3.7008Y-0.3937
X3.7008Y-0.4724
X3.7008Y-0.5512
X3.7008Y-0.6299
X3.7008Y-0.7087
X3.7008Y-0.7874
X3.7008Y-0.8661
X3.7008Y-0.9449
X3.7008Y-1.1811
X3.7008Y-1.2598
X3.7008Y-1.5748
X3.7008Y-1.6535
X3.7008Y-1.7323
X3.7008Y-1.811
X3.7008Y-1.8898
X3.7008Y-1.9685
X3.7008Y-2.5984
X3.7008Y-3.3681
X3.7008Y-3.4173
X3.7008Y-3.5433
T3
X0.9201Y-2.9193
X1.9094Y-2.6102
X2.3016Y-2.3228
X2.4394Y-2.3228
X2.6606Y-3.66
X2.9331Y-2.9744
X3.061Y-3.1024
X3.1654Y-3.1024
X3.1988Y-3.0138
X3.2283Y-3.2008
X3.2283Y-3.2697
X3.2579Y-2.8858
X3.2677Y-2.8169
X3.2776Y-2.1575
X3.2972Y-3.2008
X3.2972Y-3.2697
X3.4827Y-0.9449
X3.4827Y-1.7087
T5
X0.6971Y-2.8911
X0.6971Y-2.9911
X0.6971Y-3.0911
X0.6971Y-3.1911
X0.7971Y-2.9407
X0.7971Y-3.0407
X0.7971Y-3.1407
X0.7971Y-3.2407
T6
X0.1166Y-1.9472
X0.1166Y-2.0472
X0.1166Y-2.1472
X0.1166Y-2.2472
X0.1166Y-2.3472
X1.6402Y-1.902
X1.6402Y-2.002
X1.6402Y-2.102
X2.4263Y-3.41
X2.4263Y-3.51
X2.6078Y-3.7329
X2.7078Y-3.7329
X2.8078Y-3.7329
X3.5925Y-2.7283
X3.6925Y-2.7283
T7
X0.2538Y-2.8051
X0.2538Y-2.9051
X0.2538Y-3.2267
X0.2538Y-3.3267
T8
X3.5748Y-3.161
X3.5748Y-3.261
T9
X0.5668Y-2.761
X0.5668Y-3.3708
T10
X0.2898Y-0.2165
X0.3253Y-0.748
X0.8646Y-0.748
X0.9079Y-0.2165
X1.156Y-0.2165
X1.1914Y-0.748
X1.7308Y-0.748
X1.7741Y-0.2165
X2.0216Y-0.2264
X2.057Y-0.7579
X2.5964Y-0.7579
X2.6397Y-0.2264
X2.8882Y-0.2307
X2.9237Y-0.7622
X3.4631Y-0.7622
X3.5064Y-0.2307
T4
G00X3.5104Y-2.1823
M15
G01X3.5537Y-2.1823
M16
G05
G00X3.5104Y-2.5224
M15
G01X3.5537Y-2.5224
M16
G05
G00X3.6848Y-2.1823
M15
G01X3.7085Y-2.1823
M16
G05
G00X3.6848Y-2.5224
M15
G01X3.7085Y-2.5224
M16
G05
M30
