%TF.GenerationSoftware,KiCad,Pcbnew,9.0.4-1.fc42*%
%TF.CreationDate,2025-10-10T00:36:46-07:00*%
%TF.ProjectId,ThermoBoard,54686572-6d6f-4426-9f61-72642e6b6963,1A*%
%TF.SameCoordinates,Original*%
%TF.FileFunction,Legend,Bot*%
%TF.FilePolarity,Positive*%
%FSLAX46Y46*%
G04 Gerber Fmt 4.6, Leading zero omitted, Abs format (unit mm)*
G04 Created by KiCad (PCBNEW 9.0.4-1.fc42) date 2025-10-10 00:36:46*
%MOMM*%
%LPD*%
G01*
G04 APERTURE LIST*
G04 Aperture macros list*
%AMRoundRect*
0 Rectangle with rounded corners*
0 $1 Rounding radius*
0 $2 $3 $4 $5 $6 $7 $8 $9 X,Y pos of 4 corners*
0 Add a 4 corners polygon primitive as box body*
4,1,4,$2,$3,$4,$5,$6,$7,$8,$9,$2,$3,0*
0 Add four circle primitives for the rounded corners*
1,1,$1+$1,$2,$3*
1,1,$1+$1,$4,$5*
1,1,$1+$1,$6,$7*
1,1,$1+$1,$8,$9*
0 Add four rect primitives between the rounded corners*
20,1,$1+$1,$2,$3,$4,$5,0*
20,1,$1+$1,$4,$5,$6,$7,0*
20,1,$1+$1,$6,$7,$8,$9,0*
20,1,$1+$1,$8,$9,$2,$3,0*%
G04 Aperture macros list end*
%ADD10C,0.300000*%
%ADD11R,2.655000X2.655000*%
%ADD12C,2.655000*%
%ADD13R,1.700000X1.700000*%
%ADD14C,1.700000*%
%ADD15C,0.650000*%
%ADD16O,2.100000X1.000000*%
%ADD17O,1.600000X1.000000*%
%ADD18C,3.250000*%
%ADD19RoundRect,0.250500X-0.499500X0.499500X-0.499500X-0.499500X0.499500X-0.499500X0.499500X0.499500X0*%
%ADD20C,1.500000*%
%ADD21C,2.500000*%
%ADD22C,3.200000*%
%ADD23C,1.100000*%
%ADD24RoundRect,0.249999X0.850001X-0.850001X0.850001X0.850001X-0.850001X0.850001X-0.850001X-0.850001X0*%
%ADD25C,2.200000*%
G04 APERTURE END LIST*
D10*
G36*
X65522913Y-11875000D02*
G01*
X65522913Y-10347169D01*
X65057447Y-10347169D01*
X64800077Y-11068998D01*
X64764722Y-11193654D01*
X64724148Y-11358243D01*
X64686229Y-11527411D01*
X64648310Y-11358243D01*
X64608376Y-11193654D01*
X64573480Y-11068998D01*
X64320139Y-10347169D01*
X63853575Y-10347169D01*
X63853575Y-11875000D01*
X64159214Y-11875000D01*
X64159214Y-11142912D01*
X64156649Y-10995176D01*
X64151520Y-10805491D01*
X64147948Y-10611684D01*
X64202262Y-10816298D01*
X64256575Y-11003968D01*
X64299623Y-11142912D01*
X64560108Y-11875000D01*
X64816471Y-11875000D01*
X65079979Y-11142912D01*
X65123576Y-11007083D01*
X65176882Y-10823992D01*
X65232753Y-10624049D01*
X65228173Y-10813734D01*
X65223594Y-10998839D01*
X65221487Y-11142912D01*
X65221487Y-11875000D01*
X65522913Y-11875000D01*
G37*
G36*
X63237832Y-10723858D02*
G01*
X63343286Y-10751124D01*
X63434362Y-10794774D01*
X63495172Y-10839645D01*
X63544343Y-10892396D01*
X63582919Y-10953737D01*
X63611225Y-11024943D01*
X63337459Y-11072112D01*
X63309429Y-11019909D01*
X63262079Y-10975209D01*
X63222975Y-10954055D01*
X63174993Y-10940579D01*
X63115992Y-10935733D01*
X63057925Y-10941025D01*
X63013318Y-10955444D01*
X62979155Y-10977773D01*
X62953160Y-11008709D01*
X62937147Y-11047263D01*
X62931436Y-11095743D01*
X62931436Y-11100872D01*
X62938447Y-11133430D01*
X62958866Y-11156743D01*
X62996557Y-11172588D01*
X63072459Y-11186462D01*
X63211338Y-11203362D01*
X63321711Y-11220385D01*
X63422639Y-11247967D01*
X63485131Y-11275060D01*
X63538034Y-11310204D01*
X63582557Y-11353572D01*
X63615440Y-11405110D01*
X63636466Y-11470658D01*
X63644106Y-11554064D01*
X63636570Y-11637879D01*
X63615441Y-11706804D01*
X63581844Y-11763793D01*
X63535387Y-11810886D01*
X63458761Y-11858057D01*
X63368640Y-11887251D01*
X63261621Y-11897531D01*
X63176118Y-11891095D01*
X63106154Y-11873201D01*
X63048855Y-11845232D01*
X62997490Y-11806724D01*
X62957039Y-11763787D01*
X62926307Y-11716089D01*
X62916048Y-11716089D01*
X62916048Y-11875000D01*
X62633032Y-11875000D01*
X62633032Y-11464855D01*
X62929329Y-11464855D01*
X62937048Y-11523371D01*
X62959768Y-11575040D01*
X62998572Y-11621750D01*
X63048171Y-11656955D01*
X63107595Y-11678655D01*
X63179556Y-11686322D01*
X63252526Y-11676938D01*
X63307783Y-11650968D01*
X63335411Y-11624040D01*
X63352069Y-11590086D01*
X63357975Y-11546829D01*
X63351563Y-11501979D01*
X63333430Y-11466913D01*
X63303112Y-11439209D01*
X63242872Y-11410136D01*
X63161146Y-11391032D01*
X63079080Y-11378759D01*
X62989871Y-11361265D01*
X62951193Y-11349249D01*
X62929329Y-11337726D01*
X62929329Y-11464855D01*
X62633032Y-11464855D01*
X62633032Y-11103894D01*
X62641642Y-11012005D01*
X62665676Y-10937521D01*
X62703832Y-10876840D01*
X62755054Y-10825251D01*
X62814985Y-10784018D01*
X62884816Y-10752734D01*
X62997065Y-10723947D01*
X63114984Y-10714266D01*
X63237832Y-10723858D01*
G37*
G36*
X62457360Y-11875000D02*
G01*
X62086142Y-11286435D01*
X62434737Y-10728646D01*
X62111787Y-10728646D01*
X62005084Y-10912194D01*
X61946191Y-11025492D01*
X61892335Y-11135676D01*
X61839579Y-11025492D01*
X61779495Y-10912194D01*
X61668761Y-10728646D01*
X61350940Y-10728646D01*
X61707779Y-11291564D01*
X61334545Y-11875000D01*
X61655480Y-11875000D01*
X61786730Y-11656555D01*
X61846173Y-11544905D01*
X61900578Y-11436095D01*
X61951320Y-11544905D01*
X62010213Y-11656555D01*
X62140455Y-11875000D01*
X62457360Y-11875000D01*
G37*
G36*
X60686172Y-11360258D02*
G01*
X60686172Y-11600226D01*
X59955092Y-11600226D01*
X59955092Y-11875000D01*
X59663924Y-11875000D01*
X59663924Y-11600226D01*
X59472133Y-11600226D01*
X59472133Y-11354121D01*
X59663924Y-11354121D01*
X59949963Y-11354121D01*
X60378609Y-11354121D01*
X60378609Y-11341756D01*
X59962236Y-10684499D01*
X59949963Y-10684499D01*
X59949963Y-11354121D01*
X59663924Y-11354121D01*
X59663924Y-10347169D01*
X60044302Y-10347169D01*
X60686172Y-11360258D01*
G37*
G36*
X58776516Y-10335544D02*
G01*
X58875576Y-10361040D01*
X58962970Y-10402226D01*
X59040538Y-10459356D01*
X59109432Y-10533831D01*
X59163726Y-10617162D01*
X59207674Y-10714366D01*
X59240756Y-10827546D01*
X59261865Y-10959195D01*
X59269350Y-11112137D01*
X59261864Y-11265658D01*
X59240778Y-11397481D01*
X59207776Y-11510504D01*
X59163996Y-11607286D01*
X59109982Y-11689986D01*
X59041367Y-11763730D01*
X58963912Y-11820390D01*
X58876436Y-11861302D01*
X58777071Y-11886663D01*
X58663383Y-11895516D01*
X58549694Y-11886662D01*
X58450339Y-11861299D01*
X58362883Y-11820387D01*
X58285456Y-11763728D01*
X58216877Y-11689986D01*
X58162828Y-11607281D01*
X58119023Y-11510496D01*
X58086003Y-11397473D01*
X58064907Y-11265653D01*
X58057417Y-11112137D01*
X58365987Y-11112137D01*
X58371786Y-11243019D01*
X58387710Y-11349654D01*
X58411880Y-11435823D01*
X58442924Y-11504880D01*
X58487372Y-11567424D01*
X58538008Y-11609610D01*
X58595879Y-11634651D01*
X58663383Y-11643274D01*
X58730887Y-11634651D01*
X58788759Y-11609610D01*
X58839395Y-11567424D01*
X58883843Y-11504880D01*
X58914887Y-11435823D01*
X58939057Y-11349654D01*
X58954981Y-11243019D01*
X58960780Y-11112137D01*
X58954951Y-10980716D01*
X58938940Y-10873562D01*
X58914627Y-10786899D01*
X58883385Y-10717380D01*
X58838612Y-10654181D01*
X58787917Y-10611678D01*
X58730291Y-10586526D01*
X58663383Y-10577887D01*
X58595951Y-10586559D01*
X58538103Y-10611760D01*
X58487438Y-10654267D01*
X58442924Y-10717380D01*
X58411877Y-10786872D01*
X58387706Y-10873524D01*
X58371784Y-10980687D01*
X58365987Y-11112137D01*
X58057417Y-11112137D01*
X58064906Y-10959200D01*
X58086025Y-10827553D01*
X58119125Y-10714374D01*
X58163099Y-10617167D01*
X58217427Y-10533831D01*
X58286322Y-10459352D01*
X58363883Y-10402221D01*
X58451260Y-10361036D01*
X58550292Y-10335542D01*
X58663383Y-10326653D01*
X58776516Y-10335544D01*
G37*
G36*
X57817448Y-11875000D02*
G01*
X57817448Y-10347169D01*
X57519045Y-10347169D01*
X57519045Y-11174694D01*
X57501642Y-11174694D01*
X57117051Y-10728646D01*
X56771570Y-10728646D01*
X57204246Y-11224886D01*
X56748947Y-11875000D01*
X57100657Y-11875000D01*
X57428827Y-11401290D01*
X57519045Y-11502773D01*
X57519045Y-11875000D01*
X57817448Y-11875000D01*
G37*
G36*
X55564282Y-10723128D02*
G01*
X55634100Y-10747056D01*
X55693276Y-10784495D01*
X55737690Y-10828114D01*
X55773189Y-10876674D01*
X55798140Y-10920346D01*
X55812520Y-10920346D01*
X55812520Y-10728646D01*
X56105794Y-10728646D01*
X56105794Y-12303646D01*
X55807391Y-12303646D01*
X55807391Y-11692459D01*
X55798140Y-11692459D01*
X55772720Y-11736747D01*
X55736133Y-11784324D01*
X55690627Y-11826486D01*
X55631078Y-11862726D01*
X55561736Y-11886004D01*
X55472076Y-11894508D01*
X55385917Y-11886773D01*
X55306962Y-11864075D01*
X55233664Y-11826365D01*
X55169119Y-11775049D01*
X55113343Y-11709122D01*
X55066053Y-11626421D01*
X55033091Y-11536485D01*
X55012019Y-11429968D01*
X55004503Y-11303838D01*
X55004564Y-11302830D01*
X55309044Y-11302830D01*
X55316936Y-11403592D01*
X55338992Y-11486772D01*
X55373707Y-11555621D01*
X55409956Y-11599189D01*
X55452374Y-11629538D01*
X55502130Y-11648056D01*
X55561286Y-11654540D01*
X55619501Y-11648221D01*
X55668950Y-11630112D01*
X55711550Y-11600362D01*
X55748406Y-11557636D01*
X55783729Y-11489962D01*
X55806364Y-11406304D01*
X55814535Y-11302830D01*
X55806363Y-11198627D01*
X55783857Y-11115446D01*
X55748956Y-11049123D01*
X55712443Y-11007469D01*
X55669905Y-10978313D01*
X55620174Y-10960479D01*
X55561286Y-10954234D01*
X55501441Y-10960676D01*
X55451407Y-10979011D01*
X55409056Y-11008930D01*
X55373158Y-11051687D01*
X55338810Y-11119458D01*
X55316908Y-11202034D01*
X55309044Y-11302830D01*
X55004564Y-11302830D01*
X55012263Y-11175025D01*
X55033913Y-11067474D01*
X55067610Y-10977773D01*
X55115881Y-10895443D01*
X55172177Y-10830407D01*
X55236778Y-10780395D01*
X55309843Y-10743698D01*
X55387480Y-10721717D01*
X55471068Y-10714266D01*
X55564282Y-10723128D01*
G37*
G36*
X54397594Y-10723026D02*
G01*
X54493222Y-10748223D01*
X54578147Y-10789096D01*
X54653732Y-10845290D01*
X54717023Y-10914361D01*
X54768840Y-10997740D01*
X54805687Y-11089221D01*
X54828561Y-11191949D01*
X54836525Y-11307959D01*
X54828425Y-11426667D01*
X54805321Y-11530139D01*
X54768382Y-11620743D01*
X54716058Y-11702763D01*
X54651610Y-11770478D01*
X54574025Y-11825266D01*
X54487217Y-11864479D01*
X54387595Y-11888947D01*
X54272599Y-11897531D01*
X54143052Y-11887183D01*
X54034807Y-11858090D01*
X53943971Y-11811985D01*
X53865679Y-11747695D01*
X53808781Y-11672549D01*
X53771138Y-11584839D01*
X54041881Y-11532540D01*
X54076153Y-11593224D01*
X54126420Y-11636130D01*
X54189700Y-11661804D01*
X54268478Y-11670935D01*
X54344728Y-11662331D01*
X54408198Y-11637824D01*
X54461735Y-11597662D01*
X54501890Y-11544169D01*
X54528944Y-11473530D01*
X54541236Y-11380774D01*
X53753736Y-11380774D01*
X53753736Y-11294587D01*
X53760897Y-11190081D01*
X54041881Y-11190081D01*
X54540228Y-11190081D01*
X54526838Y-11120875D01*
X54501666Y-11062028D01*
X54464849Y-11011662D01*
X54417257Y-10973052D01*
X54358688Y-10949302D01*
X54285880Y-10940862D01*
X54215686Y-10948959D01*
X54159513Y-10971689D01*
X54114147Y-11008548D01*
X54079560Y-11056959D01*
X54055239Y-11116604D01*
X54041881Y-11190081D01*
X53760897Y-11190081D01*
X53762620Y-11164936D01*
X53787373Y-11057730D01*
X53826001Y-10969072D01*
X53880573Y-10889474D01*
X53944913Y-10826148D01*
X54019808Y-10777372D01*
X54102847Y-10742601D01*
X54192132Y-10721481D01*
X54288994Y-10714266D01*
X54397594Y-10723026D01*
G37*
G36*
X53542710Y-11875000D02*
G01*
X53542710Y-10728646D01*
X53254565Y-10728646D01*
X53254565Y-10926482D01*
X53242291Y-10926482D01*
X53215324Y-10860456D01*
X53179796Y-10808215D01*
X53135679Y-10767572D01*
X53083505Y-10737519D01*
X53026503Y-10719442D01*
X52963305Y-10713258D01*
X52864936Y-10722418D01*
X52864936Y-10991146D01*
X52923921Y-10979330D01*
X52996186Y-10974751D01*
X53065194Y-10982611D01*
X53123695Y-11005175D01*
X53174056Y-11042437D01*
X53212786Y-11091334D01*
X53236159Y-11148595D01*
X53244306Y-11216734D01*
X53244306Y-11875000D01*
X53542710Y-11875000D01*
G37*
G36*
X52067453Y-11124411D02*
G01*
X52067453Y-11364379D01*
X52760614Y-11364379D01*
X52760614Y-11124411D01*
X52067453Y-11124411D01*
G37*
G36*
X51493085Y-10347169D02*
G01*
X51493085Y-11875000D01*
X51791489Y-11875000D01*
X51791489Y-10347169D01*
X51493085Y-10347169D01*
G37*
G36*
X50839464Y-10723026D02*
G01*
X50935092Y-10748223D01*
X51020017Y-10789096D01*
X51095603Y-10845290D01*
X51158893Y-10914361D01*
X51210710Y-10997740D01*
X51247557Y-11089221D01*
X51270431Y-11191949D01*
X51278396Y-11307959D01*
X51270295Y-11426667D01*
X51247191Y-11530139D01*
X51210252Y-11620743D01*
X51157928Y-11702763D01*
X51093480Y-11770478D01*
X51015896Y-11825266D01*
X50929088Y-11864479D01*
X50829465Y-11888947D01*
X50714469Y-11897531D01*
X50584922Y-11887183D01*
X50476677Y-11858090D01*
X50385841Y-11811985D01*
X50307549Y-11747695D01*
X50250651Y-11672549D01*
X50213008Y-11584839D01*
X50483752Y-11532540D01*
X50518023Y-11593224D01*
X50568290Y-11636130D01*
X50631571Y-11661804D01*
X50710348Y-11670935D01*
X50786598Y-11662331D01*
X50850068Y-11637824D01*
X50903605Y-11597662D01*
X50943760Y-11544169D01*
X50970814Y-11473530D01*
X50983106Y-11380774D01*
X50195606Y-11380774D01*
X50195606Y-11294587D01*
X50202767Y-11190081D01*
X50483752Y-11190081D01*
X50982099Y-11190081D01*
X50968708Y-11120875D01*
X50943536Y-11062028D01*
X50906719Y-11011662D01*
X50859128Y-10973052D01*
X50800558Y-10949302D01*
X50727750Y-10940862D01*
X50657556Y-10948959D01*
X50601384Y-10971689D01*
X50556017Y-11008548D01*
X50521431Y-11056959D01*
X50497109Y-11116604D01*
X50483752Y-11190081D01*
X50202767Y-11190081D01*
X50204490Y-11164936D01*
X50229244Y-11057730D01*
X50267871Y-10969072D01*
X50322443Y-10889474D01*
X50386784Y-10826148D01*
X50461678Y-10777372D01*
X50544717Y-10742601D01*
X50634002Y-10721481D01*
X50730864Y-10714266D01*
X50839464Y-10723026D01*
G37*
G36*
X49619339Y-10723858D02*
G01*
X49724793Y-10751124D01*
X49815870Y-10794774D01*
X49876679Y-10839645D01*
X49925850Y-10892396D01*
X49964426Y-10953737D01*
X49992732Y-11024943D01*
X49718966Y-11072112D01*
X49690936Y-11019909D01*
X49643587Y-10975209D01*
X49604482Y-10954055D01*
X49556500Y-10940579D01*
X49497499Y-10935733D01*
X49439432Y-10941025D01*
X49394825Y-10955444D01*
X49360662Y-10977773D01*
X49334667Y-11008709D01*
X49318654Y-11047263D01*
X49312943Y-11095743D01*
X49312943Y-11100872D01*
X49319955Y-11133430D01*
X49340373Y-11156743D01*
X49378064Y-11172588D01*
X49453966Y-11186462D01*
X49592845Y-11203362D01*
X49703219Y-11220385D01*
X49804146Y-11247967D01*
X49866638Y-11275060D01*
X49919541Y-11310204D01*
X49964064Y-11353572D01*
X49996947Y-11405110D01*
X50017973Y-11470658D01*
X50025613Y-11554064D01*
X50018078Y-11637879D01*
X49996948Y-11706804D01*
X49963351Y-11763793D01*
X49916894Y-11810886D01*
X49840269Y-11858057D01*
X49750148Y-11887251D01*
X49643129Y-11897531D01*
X49557625Y-11891095D01*
X49487661Y-11873201D01*
X49430363Y-11845232D01*
X49378997Y-11806724D01*
X49338546Y-11763787D01*
X49307814Y-11716089D01*
X49297556Y-11716089D01*
X49297556Y-11875000D01*
X49014539Y-11875000D01*
X49014539Y-11464855D01*
X49310836Y-11464855D01*
X49318555Y-11523371D01*
X49341276Y-11575040D01*
X49380079Y-11621750D01*
X49429678Y-11656955D01*
X49489102Y-11678655D01*
X49561063Y-11686322D01*
X49634034Y-11676938D01*
X49689291Y-11650968D01*
X49716918Y-11624040D01*
X49733576Y-11590086D01*
X49739483Y-11546829D01*
X49733070Y-11501979D01*
X49714937Y-11466913D01*
X49684620Y-11439209D01*
X49624379Y-11410136D01*
X49542653Y-11391032D01*
X49460588Y-11378759D01*
X49371378Y-11361265D01*
X49332700Y-11349249D01*
X49310836Y-11337726D01*
X49310836Y-11464855D01*
X49014539Y-11464855D01*
X49014539Y-11103894D01*
X49023149Y-11012005D01*
X49047184Y-10937521D01*
X49085339Y-10876840D01*
X49136561Y-10825251D01*
X49196492Y-10784018D01*
X49266323Y-10752734D01*
X49378573Y-10723947D01*
X49496491Y-10714266D01*
X49619339Y-10723858D01*
G37*
G36*
X47994947Y-10920346D02*
G01*
X48005206Y-10920346D01*
X48029402Y-10876731D01*
X48064740Y-10828114D01*
X48109166Y-10784535D01*
X48168787Y-10747056D01*
X48239002Y-10723115D01*
X48332277Y-10714266D01*
X48415867Y-10721716D01*
X48493536Y-10743695D01*
X48566659Y-10780395D01*
X48631210Y-10830397D01*
X48687508Y-10895433D01*
X48735828Y-10977773D01*
X48769474Y-11067468D01*
X48791093Y-11175020D01*
X48798842Y-11303838D01*
X48791274Y-11429942D01*
X48770050Y-11536457D01*
X48736835Y-11626421D01*
X48689201Y-11709185D01*
X48633385Y-11775107D01*
X48569132Y-11826365D01*
X48496183Y-11864057D01*
X48417419Y-11886763D01*
X48331270Y-11894508D01*
X48240734Y-11885977D01*
X48171352Y-11862726D01*
X48111828Y-11826450D01*
X48066755Y-11784324D01*
X48030537Y-11736776D01*
X48005206Y-11692459D01*
X47989818Y-11692459D01*
X47989818Y-11875000D01*
X47696544Y-11875000D01*
X47696544Y-11302830D01*
X47988811Y-11302830D01*
X47996982Y-11406304D01*
X48019617Y-11489962D01*
X48054940Y-11557636D01*
X48091799Y-11600422D01*
X48134250Y-11630167D01*
X48183376Y-11648242D01*
X48241053Y-11654540D01*
X48300209Y-11648057D01*
X48349982Y-11629541D01*
X48392431Y-11599191D01*
X48428723Y-11555621D01*
X48463387Y-11486778D01*
X48485413Y-11403598D01*
X48493294Y-11302830D01*
X48485430Y-11202034D01*
X48463528Y-11119458D01*
X48429181Y-11051687D01*
X48393239Y-11008922D01*
X48350871Y-10979003D01*
X48300848Y-10960673D01*
X48241053Y-10954234D01*
X48182114Y-10960491D01*
X48132477Y-10978339D01*
X48090144Y-11007492D01*
X48053932Y-11049123D01*
X48019288Y-11115413D01*
X47996931Y-11198594D01*
X47988811Y-11302830D01*
X47696544Y-11302830D01*
X47696544Y-10347169D01*
X47994947Y-10347169D01*
X47994947Y-10920346D01*
G37*
G36*
X46932033Y-11875000D02*
G01*
X46932033Y-10728646D01*
X46643888Y-10728646D01*
X46643888Y-10926482D01*
X46631614Y-10926482D01*
X46604647Y-10860456D01*
X46569119Y-10808215D01*
X46525002Y-10767572D01*
X46472828Y-10737519D01*
X46415826Y-10719442D01*
X46352628Y-10713258D01*
X46254259Y-10722418D01*
X46254259Y-10991146D01*
X46313244Y-10979330D01*
X46385509Y-10974751D01*
X46454517Y-10982611D01*
X46513018Y-11005175D01*
X46563379Y-11042437D01*
X46602109Y-11091334D01*
X46625482Y-11148595D01*
X46633629Y-11216734D01*
X46633629Y-11875000D01*
X46932033Y-11875000D01*
G37*
G36*
X45744070Y-10723026D02*
G01*
X45839698Y-10748223D01*
X45924623Y-10789096D01*
X46000208Y-10845290D01*
X46063498Y-10914361D01*
X46115316Y-10997740D01*
X46152163Y-11089221D01*
X46175037Y-11191949D01*
X46183001Y-11307959D01*
X46174900Y-11426667D01*
X46151797Y-11530139D01*
X46114858Y-11620743D01*
X46062534Y-11702763D01*
X45998086Y-11770478D01*
X45920501Y-11825266D01*
X45833693Y-11864479D01*
X45734071Y-11888947D01*
X45619075Y-11897531D01*
X45489528Y-11887183D01*
X45381283Y-11858090D01*
X45290446Y-11811985D01*
X45212155Y-11747695D01*
X45155257Y-11672549D01*
X45117614Y-11584839D01*
X45388357Y-11532540D01*
X45422629Y-11593224D01*
X45472896Y-11636130D01*
X45536176Y-11661804D01*
X45614954Y-11670935D01*
X45691204Y-11662331D01*
X45754673Y-11637824D01*
X45808211Y-11597662D01*
X45848366Y-11544169D01*
X45875420Y-11473530D01*
X45887712Y-11380774D01*
X45100212Y-11380774D01*
X45100212Y-11294587D01*
X45107373Y-11190081D01*
X45388357Y-11190081D01*
X45886704Y-11190081D01*
X45873313Y-11120875D01*
X45848142Y-11062028D01*
X45811325Y-11011662D01*
X45763733Y-10973052D01*
X45705164Y-10949302D01*
X45632356Y-10940862D01*
X45562162Y-10948959D01*
X45505989Y-10971689D01*
X45460623Y-11008548D01*
X45426036Y-11056959D01*
X45401715Y-11116604D01*
X45388357Y-11190081D01*
X45107373Y-11190081D01*
X45109096Y-11164936D01*
X45133849Y-11057730D01*
X45172477Y-10969072D01*
X45227049Y-10889474D01*
X45291389Y-10826148D01*
X45366284Y-10777372D01*
X45449323Y-10742601D01*
X45538608Y-10721481D01*
X45635470Y-10714266D01*
X45744070Y-10723026D01*
G37*
G36*
X44439016Y-11897531D02*
G01*
X44542627Y-11891433D01*
X44632373Y-11874141D01*
X44710236Y-11846769D01*
X44777903Y-11809878D01*
X44838305Y-11761230D01*
X44884847Y-11704818D01*
X44918820Y-11639722D01*
X44940477Y-11564323D01*
X44662590Y-11516146D01*
X44643684Y-11565968D01*
X44617718Y-11605561D01*
X44584646Y-11636588D01*
X44544951Y-11658642D01*
X44494579Y-11672888D01*
X44430773Y-11678079D01*
X44346622Y-11668551D01*
X44287799Y-11643274D01*
X44257497Y-11616853D01*
X44240572Y-11587883D01*
X44234951Y-11555072D01*
X44242775Y-11516883D01*
X44266606Y-11484467D01*
X44310972Y-11456178D01*
X44384702Y-11433073D01*
X44581532Y-11392040D01*
X44692027Y-11360422D01*
X44774359Y-11319448D01*
X44834218Y-11270496D01*
X44875692Y-11213497D01*
X44900895Y-11146923D01*
X44909702Y-11067991D01*
X44901274Y-10989556D01*
X44876960Y-10921747D01*
X44836804Y-10862228D01*
X44779002Y-10809612D01*
X44712002Y-10769650D01*
X44633428Y-10739893D01*
X44541212Y-10720981D01*
X44432879Y-10714266D01*
X44301698Y-10724421D01*
X44196774Y-10752401D01*
X44112952Y-10795782D01*
X44042284Y-10857088D01*
X43991900Y-10930346D01*
X43960178Y-11017799D01*
X44224693Y-11064968D01*
X44250034Y-11012471D01*
X44291921Y-10968614D01*
X44327114Y-10947838D01*
X44371878Y-10934466D01*
X44428758Y-10929596D01*
X44502260Y-10938406D01*
X44559550Y-10962936D01*
X44589672Y-10988436D01*
X44606622Y-11017193D01*
X44612306Y-11050588D01*
X44603807Y-11091019D01*
X44577960Y-11124960D01*
X44536206Y-11150199D01*
X44460540Y-11173595D01*
X44257482Y-11214628D01*
X44146263Y-11245856D01*
X44063889Y-11285792D01*
X44004450Y-11332986D01*
X43963608Y-11387365D01*
X43938975Y-11450274D01*
X43930411Y-11524297D01*
X43937834Y-11596545D01*
X43959494Y-11661089D01*
X43995532Y-11719661D01*
X44043169Y-11770164D01*
X44102569Y-11813725D01*
X44175508Y-11850362D01*
X44253427Y-11875962D01*
X44340783Y-11891954D01*
X44439016Y-11897531D01*
G37*
G36*
X43721217Y-11875000D02*
G01*
X43721217Y-10728646D01*
X43422813Y-10728646D01*
X43422813Y-11875000D01*
X43721217Y-11875000D01*
G37*
G36*
X43572473Y-10575872D02*
G01*
X43616499Y-10570745D01*
X43655209Y-10555793D01*
X43689893Y-10530717D01*
X43717206Y-10498069D01*
X43733189Y-10461937D01*
X43738619Y-10420991D01*
X43733187Y-10380048D01*
X43717203Y-10343949D01*
X43689893Y-10311357D01*
X43655209Y-10286282D01*
X43616499Y-10271329D01*
X43572473Y-10266202D01*
X43529117Y-10271306D01*
X43490759Y-10286234D01*
X43456152Y-10311357D01*
X43428842Y-10343949D01*
X43412857Y-10380048D01*
X43407426Y-10420991D01*
X43412855Y-10461937D01*
X43428839Y-10498069D01*
X43456152Y-10530717D01*
X43490759Y-10555840D01*
X43529117Y-10570769D01*
X43572473Y-10575872D01*
G37*
G36*
X42709777Y-11897531D02*
G01*
X42813388Y-11891433D01*
X42903133Y-11874141D01*
X42980997Y-11846769D01*
X43048663Y-11809878D01*
X43109066Y-11761230D01*
X43155608Y-11704818D01*
X43189581Y-11639722D01*
X43211238Y-11564323D01*
X42933350Y-11516146D01*
X42914445Y-11565968D01*
X42888478Y-11605561D01*
X42855406Y-11636588D01*
X42815712Y-11658642D01*
X42765340Y-11672888D01*
X42701533Y-11678079D01*
X42617383Y-11668551D01*
X42558560Y-11643274D01*
X42528258Y-11616853D01*
X42511332Y-11587883D01*
X42505712Y-11555072D01*
X42513535Y-11516883D01*
X42537367Y-11484467D01*
X42581733Y-11456178D01*
X42655463Y-11433073D01*
X42852292Y-11392040D01*
X42962788Y-11360422D01*
X43045120Y-11319448D01*
X43104978Y-11270496D01*
X43146453Y-11213497D01*
X43171656Y-11146923D01*
X43180463Y-11067991D01*
X43172035Y-10989556D01*
X43147721Y-10921747D01*
X43107564Y-10862228D01*
X43049763Y-10809612D01*
X42982763Y-10769650D01*
X42904189Y-10739893D01*
X42811973Y-10720981D01*
X42703640Y-10714266D01*
X42572458Y-10724421D01*
X42467534Y-10752401D01*
X42383712Y-10795782D01*
X42313045Y-10857088D01*
X42262661Y-10930346D01*
X42230938Y-11017799D01*
X42495453Y-11064968D01*
X42520795Y-11012471D01*
X42562681Y-10968614D01*
X42597875Y-10947838D01*
X42642639Y-10934466D01*
X42699518Y-10929596D01*
X42773021Y-10938406D01*
X42830310Y-10962936D01*
X42860432Y-10988436D01*
X42877383Y-11017193D01*
X42883067Y-11050588D01*
X42874568Y-11091019D01*
X42848720Y-11124960D01*
X42806967Y-11150199D01*
X42731300Y-11173595D01*
X42528243Y-11214628D01*
X42417023Y-11245856D01*
X42334649Y-11285792D01*
X42275211Y-11332986D01*
X42234368Y-11387365D01*
X42209736Y-11450274D01*
X42201171Y-11524297D01*
X42208595Y-11596545D01*
X42230255Y-11661089D01*
X42266293Y-11719661D01*
X42313929Y-11770164D01*
X42373330Y-11813725D01*
X42446269Y-11850362D01*
X42524188Y-11875962D01*
X42611544Y-11891954D01*
X42709777Y-11897531D01*
G37*
G36*
X41426952Y-10728646D02*
G01*
X41426952Y-10956250D01*
X41647412Y-10956250D01*
X41647412Y-11542799D01*
X41640027Y-11592955D01*
X41620506Y-11625352D01*
X41588993Y-11645121D01*
X41540800Y-11652525D01*
X41491615Y-11648403D01*
X41443347Y-11639153D01*
X41400299Y-11863734D01*
X41498210Y-11884708D01*
X41594106Y-11891394D01*
X41679617Y-11885395D01*
X41749908Y-11868709D01*
X41807672Y-11842703D01*
X41855049Y-11807863D01*
X41893572Y-11763299D01*
X41921709Y-11709854D01*
X41939481Y-11645720D01*
X41945815Y-11568444D01*
X41945815Y-10956250D01*
X42103718Y-10956250D01*
X42103718Y-10728646D01*
X41945815Y-10728646D01*
X41945815Y-10455887D01*
X41647412Y-10455887D01*
X41647412Y-10728646D01*
X41426952Y-10728646D01*
G37*
G36*
X40872026Y-10723858D02*
G01*
X40977480Y-10751124D01*
X41068556Y-10794774D01*
X41129366Y-10839645D01*
X41178537Y-10892396D01*
X41217113Y-10953737D01*
X41245419Y-11024943D01*
X40971653Y-11072112D01*
X40943623Y-11019909D01*
X40896273Y-10975209D01*
X40857169Y-10954055D01*
X40809187Y-10940579D01*
X40750186Y-10935733D01*
X40692119Y-10941025D01*
X40647512Y-10955444D01*
X40613349Y-10977773D01*
X40587354Y-11008709D01*
X40571341Y-11047263D01*
X40565630Y-11095743D01*
X40565630Y-11100872D01*
X40572641Y-11133430D01*
X40593060Y-11156743D01*
X40630751Y-11172588D01*
X40706653Y-11186462D01*
X40845532Y-11203362D01*
X40955905Y-11220385D01*
X41056833Y-11247967D01*
X41119325Y-11275060D01*
X41172228Y-11310204D01*
X41216751Y-11353572D01*
X41249634Y-11405110D01*
X41270660Y-11470658D01*
X41278300Y-11554064D01*
X41270764Y-11637879D01*
X41249635Y-11706804D01*
X41216038Y-11763793D01*
X41169581Y-11810886D01*
X41092955Y-11858057D01*
X41002834Y-11887251D01*
X40895815Y-11897531D01*
X40810312Y-11891095D01*
X40740348Y-11873201D01*
X40683049Y-11845232D01*
X40631684Y-11806724D01*
X40591233Y-11763787D01*
X40560501Y-11716089D01*
X40550242Y-11716089D01*
X40550242Y-11875000D01*
X40267226Y-11875000D01*
X40267226Y-11464855D01*
X40563523Y-11464855D01*
X40571242Y-11523371D01*
X40593962Y-11575040D01*
X40632766Y-11621750D01*
X40682365Y-11656955D01*
X40741789Y-11678655D01*
X40813750Y-11686322D01*
X40886720Y-11676938D01*
X40941977Y-11650968D01*
X40969605Y-11624040D01*
X40986263Y-11590086D01*
X40992169Y-11546829D01*
X40985757Y-11501979D01*
X40967624Y-11466913D01*
X40937306Y-11439209D01*
X40877066Y-11410136D01*
X40795340Y-11391032D01*
X40713274Y-11378759D01*
X40624065Y-11361265D01*
X40585387Y-11349249D01*
X40563523Y-11337726D01*
X40563523Y-11464855D01*
X40267226Y-11464855D01*
X40267226Y-11103894D01*
X40275836Y-11012005D01*
X40299870Y-10937521D01*
X40338026Y-10876840D01*
X40389248Y-10825251D01*
X40449179Y-10784018D01*
X40519010Y-10752734D01*
X40631259Y-10723947D01*
X40749178Y-10714266D01*
X40872026Y-10723858D01*
G37*
G36*
X39704948Y-11209499D02*
G01*
X39704948Y-11875000D01*
X40003352Y-11875000D01*
X40003352Y-10728646D01*
X39721343Y-10728646D01*
X39718321Y-10964493D01*
X39679819Y-10887831D01*
X39634174Y-10826708D01*
X39581392Y-10778929D01*
X39520001Y-10743809D01*
X39447890Y-10721968D01*
X39362489Y-10714266D01*
X39274875Y-10721916D01*
X39199294Y-10743784D01*
X39133505Y-10779159D01*
X39075901Y-10828572D01*
X39030224Y-10888528D01*
X38996603Y-10959811D01*
X38975311Y-11044654D01*
X38967732Y-11145935D01*
X38967732Y-11875000D01*
X39266044Y-11875000D01*
X39266044Y-11196218D01*
X39272958Y-11125824D01*
X39292127Y-11069971D01*
X39322464Y-11025492D01*
X39363751Y-10991584D01*
X39414442Y-10970777D01*
X39477345Y-10963394D01*
X39541611Y-10970921D01*
X39595502Y-10992472D01*
X39641384Y-11028057D01*
X39675599Y-11074819D01*
X39697161Y-11134092D01*
X39704948Y-11209499D01*
G37*
G36*
X38193879Y-11897531D02*
G01*
X38306712Y-11888749D01*
X38404822Y-11863650D01*
X38490726Y-11823251D01*
X38567374Y-11767297D01*
X38631337Y-11698688D01*
X38683525Y-11616072D01*
X38720601Y-11525213D01*
X38743638Y-11422874D01*
X38751669Y-11306952D01*
X38743629Y-11190287D01*
X38720583Y-11087438D01*
X38683525Y-10996275D01*
X38631301Y-10913315D01*
X38567333Y-10844566D01*
X38490726Y-10788638D01*
X38404817Y-10748187D01*
X38306707Y-10723058D01*
X38193879Y-10714266D01*
X38093302Y-10721136D01*
X38004720Y-10740820D01*
X37926299Y-10772442D01*
X37856549Y-10815840D01*
X37795236Y-10871106D01*
X37747249Y-10934544D01*
X37711626Y-11007178D01*
X37688296Y-11090614D01*
X37965176Y-11143920D01*
X37983746Y-11086352D01*
X38009967Y-11039617D01*
X38043670Y-11001953D01*
X38084895Y-10973583D01*
X38133276Y-10956206D01*
X38190765Y-10950113D01*
X38252092Y-10956701D01*
X38303263Y-10975434D01*
X38346479Y-11005972D01*
X38383014Y-11049581D01*
X38417899Y-11118788D01*
X38440147Y-11203087D01*
X38448136Y-11305944D01*
X38440178Y-11408052D01*
X38417955Y-11492216D01*
X38383014Y-11561758D01*
X38346450Y-11605595D01*
X38303222Y-11636268D01*
X38252060Y-11655073D01*
X38190765Y-11661684D01*
X38132709Y-11655395D01*
X38083625Y-11637409D01*
X38041563Y-11607920D01*
X38007440Y-11568798D01*
X37981236Y-11520355D01*
X37963161Y-11460733D01*
X37686281Y-11513032D01*
X37709697Y-11599184D01*
X37745409Y-11673761D01*
X37793373Y-11738487D01*
X37854442Y-11794491D01*
X37924296Y-11838488D01*
X38003064Y-11870563D01*
X38092291Y-11890548D01*
X38193879Y-11897531D01*
G37*
G36*
X37083219Y-10723026D02*
G01*
X37178846Y-10748223D01*
X37263772Y-10789096D01*
X37339357Y-10845290D01*
X37402647Y-10914361D01*
X37454464Y-10997740D01*
X37491312Y-11089221D01*
X37514186Y-11191949D01*
X37522150Y-11307959D01*
X37514049Y-11426667D01*
X37490946Y-11530139D01*
X37454006Y-11620743D01*
X37401683Y-11702763D01*
X37337235Y-11770478D01*
X37259650Y-11825266D01*
X37172842Y-11864479D01*
X37073220Y-11888947D01*
X36958224Y-11897531D01*
X36828676Y-11887183D01*
X36720431Y-11858090D01*
X36629595Y-11811985D01*
X36551303Y-11747695D01*
X36494406Y-11672549D01*
X36456763Y-11584839D01*
X36727506Y-11532540D01*
X36761777Y-11593224D01*
X36812044Y-11636130D01*
X36875325Y-11661804D01*
X36954102Y-11670935D01*
X37030353Y-11662331D01*
X37093822Y-11637824D01*
X37147359Y-11597662D01*
X37187515Y-11544169D01*
X37214568Y-11473530D01*
X37226860Y-11380774D01*
X36439360Y-11380774D01*
X36439360Y-11294587D01*
X36446522Y-11190081D01*
X36727506Y-11190081D01*
X37225853Y-11190081D01*
X37212462Y-11120875D01*
X37187291Y-11062028D01*
X37150473Y-11011662D01*
X37102882Y-10973052D01*
X37044313Y-10949302D01*
X36971505Y-10940862D01*
X36901310Y-10948959D01*
X36845138Y-10971689D01*
X36799771Y-11008548D01*
X36765185Y-11056959D01*
X36740864Y-11116604D01*
X36727506Y-11190081D01*
X36446522Y-11190081D01*
X36448245Y-11164936D01*
X36472998Y-11057730D01*
X36511626Y-10969072D01*
X36566198Y-10889474D01*
X36630538Y-10826148D01*
X36705432Y-10777372D01*
X36788472Y-10742601D01*
X36877756Y-10721481D01*
X36974619Y-10714266D01*
X37083219Y-10723026D01*
G37*
G36*
X73442060Y-14395000D02*
G01*
X73107844Y-14395000D01*
X72990882Y-14035047D01*
X72441336Y-14035047D01*
X72321352Y-14395000D01*
X71984022Y-14395000D01*
X72195352Y-13795170D01*
X72521295Y-13795170D01*
X72914037Y-13795170D01*
X72864762Y-13644411D01*
X72796160Y-13396290D01*
X72722246Y-13105031D01*
X72644851Y-13396290D01*
X72571578Y-13644411D01*
X72521295Y-13795170D01*
X72195352Y-13795170D01*
X72522303Y-12867169D01*
X72917060Y-12867169D01*
X73442060Y-14395000D01*
G37*
G36*
X71092016Y-13440346D02*
G01*
X71102275Y-13440346D01*
X71126471Y-13396731D01*
X71161809Y-13348114D01*
X71206235Y-13304535D01*
X71265856Y-13267056D01*
X71336071Y-13243115D01*
X71429346Y-13234266D01*
X71512936Y-13241716D01*
X71590605Y-13263695D01*
X71663728Y-13300395D01*
X71728279Y-13350397D01*
X71784577Y-13415433D01*
X71832897Y-13497773D01*
X71866542Y-13587468D01*
X71888162Y-13695020D01*
X71895911Y-13823838D01*
X71888343Y-13949942D01*
X71867119Y-14056457D01*
X71833904Y-14146421D01*
X71786270Y-14229185D01*
X71730454Y-14295107D01*
X71666201Y-14346365D01*
X71593252Y-14384057D01*
X71514488Y-14406763D01*
X71428339Y-14414508D01*
X71337802Y-14405977D01*
X71268421Y-14382726D01*
X71208897Y-14346450D01*
X71163824Y-14304324D01*
X71127606Y-14256776D01*
X71102275Y-14212459D01*
X71086887Y-14212459D01*
X71086887Y-14395000D01*
X70793613Y-14395000D01*
X70793613Y-13822830D01*
X71085880Y-13822830D01*
X71094051Y-13926304D01*
X71116686Y-14009962D01*
X71152009Y-14077636D01*
X71188868Y-14120422D01*
X71231319Y-14150167D01*
X71280444Y-14168242D01*
X71338122Y-14174540D01*
X71397277Y-14168057D01*
X71447051Y-14149541D01*
X71489500Y-14119191D01*
X71525792Y-14075621D01*
X71560456Y-14006778D01*
X71582482Y-13923598D01*
X71590363Y-13822830D01*
X71582499Y-13722034D01*
X71560597Y-13639458D01*
X71526250Y-13571687D01*
X71490308Y-13528922D01*
X71447940Y-13499003D01*
X71397917Y-13480673D01*
X71338122Y-13474234D01*
X71279183Y-13480491D01*
X71229546Y-13498339D01*
X71187213Y-13527492D01*
X71151001Y-13569123D01*
X71116356Y-13635413D01*
X71094000Y-13718594D01*
X71085880Y-13822830D01*
X70793613Y-13822830D01*
X70793613Y-12867169D01*
X71092016Y-12867169D01*
X71092016Y-13440346D01*
G37*
G36*
X70486325Y-13248646D02*
G01*
X70187921Y-13248646D01*
X70187921Y-14455541D01*
X70195980Y-14552090D01*
X70218153Y-14628537D01*
X70252604Y-14689002D01*
X70299204Y-14736451D01*
X70356359Y-14772670D01*
X70425320Y-14799886D01*
X70508384Y-14817372D01*
X70608324Y-14823646D01*
X70668866Y-14823646D01*
X70668866Y-14586791D01*
X70628840Y-14586791D01*
X70577904Y-14582251D01*
X70542571Y-14570420D01*
X70518656Y-14552903D01*
X70495218Y-14513096D01*
X70486325Y-14451420D01*
X70486325Y-13248646D01*
G37*
G36*
X70337581Y-13095872D02*
G01*
X70381607Y-13090745D01*
X70420317Y-13075793D01*
X70455001Y-13050717D01*
X70482314Y-13018069D01*
X70498297Y-12981937D01*
X70503727Y-12940991D01*
X70498295Y-12900048D01*
X70482311Y-12863949D01*
X70455001Y-12831357D01*
X70420317Y-12806282D01*
X70381607Y-12791329D01*
X70337581Y-12786202D01*
X70294225Y-12791306D01*
X70255867Y-12806234D01*
X70221260Y-12831357D01*
X70193950Y-12863949D01*
X70177965Y-12900048D01*
X70172534Y-12940991D01*
X70177963Y-12981937D01*
X70193947Y-13018069D01*
X70221260Y-13050717D01*
X70255867Y-13075840D01*
X70294225Y-13090769D01*
X70337581Y-13095872D01*
G37*
G36*
X69531305Y-14409379D02*
G01*
X69618376Y-14401746D01*
X69693630Y-14379904D01*
X69759274Y-14344534D01*
X69816886Y-14295074D01*
X69862570Y-14235072D01*
X69896190Y-14163769D01*
X69917478Y-14078938D01*
X69925055Y-13977711D01*
X69925055Y-13248646D01*
X69626651Y-13248646D01*
X69626651Y-13927427D01*
X69619795Y-13997864D01*
X69600801Y-14053717D01*
X69570780Y-14098153D01*
X69529811Y-14131937D01*
X69479013Y-14152747D01*
X69415442Y-14160160D01*
X69351825Y-14152679D01*
X69298051Y-14131189D01*
X69251860Y-14095588D01*
X69217330Y-14048781D01*
X69195593Y-13989480D01*
X69187747Y-13914055D01*
X69187747Y-13248646D01*
X68889434Y-13248646D01*
X68889434Y-14395000D01*
X69171352Y-14395000D01*
X69174466Y-14159153D01*
X69212947Y-14235770D01*
X69258738Y-14296932D01*
X69311852Y-14344808D01*
X69373582Y-14379895D01*
X69445891Y-14401699D01*
X69531305Y-14409379D01*
G37*
G36*
X68175024Y-14417531D02*
G01*
X68278635Y-14411433D01*
X68368381Y-14394141D01*
X68446244Y-14366769D01*
X68513911Y-14329878D01*
X68574313Y-14281230D01*
X68620855Y-14224818D01*
X68654829Y-14159722D01*
X68676485Y-14084323D01*
X68398598Y-14036146D01*
X68379692Y-14085968D01*
X68353726Y-14125561D01*
X68320654Y-14156588D01*
X68280959Y-14178642D01*
X68230588Y-14192888D01*
X68166781Y-14198079D01*
X68082631Y-14188551D01*
X68023807Y-14163274D01*
X67993505Y-14136853D01*
X67976580Y-14107883D01*
X67970959Y-14075072D01*
X67978783Y-14036883D01*
X68002614Y-14004467D01*
X68046980Y-13976178D01*
X68120711Y-13953073D01*
X68317540Y-13912040D01*
X68428036Y-13880422D01*
X68510368Y-13839448D01*
X68570226Y-13790496D01*
X68611700Y-13733497D01*
X68636903Y-13666923D01*
X68645711Y-13587991D01*
X68637283Y-13509556D01*
X68612968Y-13441747D01*
X68572812Y-13382228D01*
X68515010Y-13329612D01*
X68448010Y-13289650D01*
X68369436Y-13259893D01*
X68277220Y-13240981D01*
X68168887Y-13234266D01*
X68037706Y-13244421D01*
X67932782Y-13272401D01*
X67848960Y-13315782D01*
X67778292Y-13377088D01*
X67727908Y-13450346D01*
X67696186Y-13537799D01*
X67960701Y-13584968D01*
X67986042Y-13532471D01*
X68027929Y-13488614D01*
X68063123Y-13467838D01*
X68107886Y-13454466D01*
X68164766Y-13449596D01*
X68238268Y-13458406D01*
X68295558Y-13482936D01*
X68325680Y-13508436D01*
X68342630Y-13537193D01*
X68348314Y-13570588D01*
X68339815Y-13611019D01*
X68313968Y-13644960D01*
X68272214Y-13670199D01*
X68196548Y-13693595D01*
X67993491Y-13734628D01*
X67882271Y-13765856D01*
X67799897Y-13805792D01*
X67740459Y-13852986D01*
X67699616Y-13907365D01*
X67674983Y-13970274D01*
X67666419Y-14044297D01*
X67673842Y-14116545D01*
X67695502Y-14181089D01*
X67731540Y-14239661D01*
X67779177Y-14290164D01*
X67838577Y-14333725D01*
X67911517Y-14370362D01*
X67989436Y-14395962D01*
X68076791Y-14411954D01*
X68175024Y-14417531D01*
G37*
G36*
X66892200Y-13248646D02*
G01*
X66892200Y-13476250D01*
X67112659Y-13476250D01*
X67112659Y-14062799D01*
X67105274Y-14112955D01*
X67085754Y-14145352D01*
X67054241Y-14165121D01*
X67006047Y-14172525D01*
X66956863Y-14168403D01*
X66908594Y-14159153D01*
X66865547Y-14383734D01*
X66963457Y-14404708D01*
X67059353Y-14411394D01*
X67144864Y-14405395D01*
X67215156Y-14388709D01*
X67272920Y-14362703D01*
X67320296Y-14327863D01*
X67358819Y-14283299D01*
X67386957Y-14229854D01*
X67404729Y-14165720D01*
X67411063Y-14088444D01*
X67411063Y-13476250D01*
X67568966Y-13476250D01*
X67568966Y-13248646D01*
X67411063Y-13248646D01*
X67411063Y-12975887D01*
X67112659Y-12975887D01*
X67112659Y-13248646D01*
X66892200Y-13248646D01*
G37*
G36*
X65722782Y-12855544D02*
G01*
X65821843Y-12881040D01*
X65909236Y-12922226D01*
X65986805Y-12979356D01*
X66055698Y-13053831D01*
X66109992Y-13137162D01*
X66153941Y-13234366D01*
X66187023Y-13347546D01*
X66208131Y-13479195D01*
X66215616Y-13632137D01*
X66208130Y-13785658D01*
X66187045Y-13917481D01*
X66154043Y-14030504D01*
X66110263Y-14127286D01*
X66056248Y-14209986D01*
X65987634Y-14283730D01*
X65910179Y-14340390D01*
X65822703Y-14381302D01*
X65723337Y-14406663D01*
X65609650Y-14415516D01*
X65495961Y-14406662D01*
X65396605Y-14381299D01*
X65309149Y-14340387D01*
X65231722Y-14283728D01*
X65163143Y-14209986D01*
X65109095Y-14127281D01*
X65065289Y-14030496D01*
X65032270Y-13917473D01*
X65011173Y-13785653D01*
X65003683Y-13632137D01*
X65312254Y-13632137D01*
X65318053Y-13763019D01*
X65333976Y-13869654D01*
X65358146Y-13955823D01*
X65389190Y-14024880D01*
X65433638Y-14087424D01*
X65484275Y-14129610D01*
X65542146Y-14154651D01*
X65609650Y-14163274D01*
X65677154Y-14154651D01*
X65735025Y-14129610D01*
X65785661Y-14087424D01*
X65830110Y-14024880D01*
X65861153Y-13955823D01*
X65885324Y-13869654D01*
X65901247Y-13763019D01*
X65907046Y-13632137D01*
X65901217Y-13500716D01*
X65885206Y-13393562D01*
X65860893Y-13306899D01*
X65829652Y-13237380D01*
X65784879Y-13174181D01*
X65734184Y-13131678D01*
X65676558Y-13106526D01*
X65609650Y-13097887D01*
X65542217Y-13106559D01*
X65484369Y-13131760D01*
X65433704Y-13174267D01*
X65389190Y-13237380D01*
X65358144Y-13306872D01*
X65333972Y-13393524D01*
X65318051Y-13500687D01*
X65312254Y-13632137D01*
X65003683Y-13632137D01*
X65011172Y-13479200D01*
X65032291Y-13347553D01*
X65065392Y-13234374D01*
X65109365Y-13137167D01*
X65163693Y-13053831D01*
X65232588Y-12979352D01*
X65310149Y-12922221D01*
X65397526Y-12881036D01*
X65496558Y-12855542D01*
X65609650Y-12846653D01*
X65722782Y-12855544D01*
G37*
G36*
X64756479Y-14395000D02*
G01*
X64451939Y-14395000D01*
X64451939Y-13846461D01*
X64197682Y-13846461D01*
X63904407Y-14395000D01*
X63566070Y-14395000D01*
X63893142Y-13796177D01*
X63810639Y-13752739D01*
X63743989Y-13697608D01*
X63691183Y-13630122D01*
X63653196Y-13552793D01*
X63629634Y-13464344D01*
X63621391Y-13362402D01*
X63934174Y-13362402D01*
X63942396Y-13436024D01*
X63965059Y-13492670D01*
X64001170Y-13536391D01*
X64052474Y-13569278D01*
X64123142Y-13591082D01*
X64219206Y-13599256D01*
X64451939Y-13599256D01*
X64451939Y-13118403D01*
X64220213Y-13118403D01*
X64124329Y-13126694D01*
X64054314Y-13148745D01*
X64003875Y-13181967D01*
X63966116Y-13228598D01*
X63942616Y-13287512D01*
X63934174Y-13362402D01*
X63621391Y-13362402D01*
X63630875Y-13252562D01*
X63657979Y-13157789D01*
X63701787Y-13075302D01*
X63762899Y-13003090D01*
X63837169Y-12946020D01*
X63926855Y-12903758D01*
X64035092Y-12876815D01*
X64165900Y-12867169D01*
X64756479Y-12867169D01*
X64756479Y-14395000D01*
G37*
G36*
X62889395Y-14395000D02*
G01*
X62889395Y-13248646D01*
X62601250Y-13248646D01*
X62601250Y-13446482D01*
X62588976Y-13446482D01*
X62562009Y-13380456D01*
X62526481Y-13328215D01*
X62482364Y-13287572D01*
X62430190Y-13257519D01*
X62373188Y-13239442D01*
X62309990Y-13233258D01*
X62211621Y-13242418D01*
X62211621Y-13511146D01*
X62270606Y-13499330D01*
X62342871Y-13494751D01*
X62411879Y-13502611D01*
X62470380Y-13525175D01*
X62520741Y-13562437D01*
X62559471Y-13611334D01*
X62582844Y-13668595D01*
X62590991Y-13736734D01*
X62590991Y-14395000D01*
X62889395Y-14395000D01*
G37*
G36*
X61701432Y-13243026D02*
G01*
X61797060Y-13268223D01*
X61881985Y-13309096D01*
X61957570Y-13365290D01*
X62020860Y-13434361D01*
X62072678Y-13517740D01*
X62109525Y-13609221D01*
X62132399Y-13711949D01*
X62140363Y-13827959D01*
X62132262Y-13946667D01*
X62109159Y-14050139D01*
X62072220Y-14140743D01*
X62019896Y-14222763D01*
X61955448Y-14290478D01*
X61877863Y-14345266D01*
X61791055Y-14384479D01*
X61691433Y-14408947D01*
X61576437Y-14417531D01*
X61446890Y-14407183D01*
X61338645Y-14378090D01*
X61247808Y-14331985D01*
X61169517Y-14267695D01*
X61112619Y-14192549D01*
X61074976Y-14104839D01*
X61345719Y-14052540D01*
X61379991Y-14113224D01*
X61430258Y-14156130D01*
X61493538Y-14181804D01*
X61572316Y-14190935D01*
X61648566Y-14182331D01*
X61712035Y-14157824D01*
X61765573Y-14117662D01*
X61805728Y-14064169D01*
X61832782Y-13993530D01*
X61845074Y-13900774D01*
X61057574Y-13900774D01*
X61057574Y-13814587D01*
X61064735Y-13710081D01*
X61345719Y-13710081D01*
X61844066Y-13710081D01*
X61830675Y-13640875D01*
X61805504Y-13582028D01*
X61768687Y-13531662D01*
X61721095Y-13493052D01*
X61662526Y-13469302D01*
X61589718Y-13460862D01*
X61519524Y-13468959D01*
X61463351Y-13491689D01*
X61417985Y-13528548D01*
X61383398Y-13576959D01*
X61359077Y-13636604D01*
X61345719Y-13710081D01*
X61064735Y-13710081D01*
X61066458Y-13684936D01*
X61091211Y-13577730D01*
X61129839Y-13489072D01*
X61184411Y-13409474D01*
X61248751Y-13346148D01*
X61323646Y-13297372D01*
X61406685Y-13262601D01*
X61495970Y-13241481D01*
X61592832Y-13234266D01*
X61701432Y-13243026D01*
G37*
G36*
X60396378Y-14417531D02*
G01*
X60499989Y-14411433D01*
X60589735Y-14394141D01*
X60667598Y-14366769D01*
X60735265Y-14329878D01*
X60795667Y-14281230D01*
X60842209Y-14224818D01*
X60876182Y-14159722D01*
X60897839Y-14084323D01*
X60619952Y-14036146D01*
X60601046Y-14085968D01*
X60575080Y-14125561D01*
X60542008Y-14156588D01*
X60502313Y-14178642D01*
X60451941Y-14192888D01*
X60388135Y-14198079D01*
X60303984Y-14188551D01*
X60245161Y-14163274D01*
X60214859Y-14136853D01*
X60197934Y-14107883D01*
X60192313Y-14075072D01*
X60200137Y-14036883D01*
X60223968Y-14004467D01*
X60268334Y-13976178D01*
X60342064Y-13953073D01*
X60538894Y-13912040D01*
X60649389Y-13880422D01*
X60731721Y-13839448D01*
X60791580Y-13790496D01*
X60833054Y-13733497D01*
X60858257Y-13666923D01*
X60867064Y-13587991D01*
X60858636Y-13509556D01*
X60834322Y-13441747D01*
X60794166Y-13382228D01*
X60736364Y-13329612D01*
X60669364Y-13289650D01*
X60590790Y-13259893D01*
X60498574Y-13240981D01*
X60390241Y-13234266D01*
X60259060Y-13244421D01*
X60154136Y-13272401D01*
X60070314Y-13315782D01*
X59999646Y-13377088D01*
X59949262Y-13450346D01*
X59917540Y-13537799D01*
X60182055Y-13584968D01*
X60207396Y-13532471D01*
X60249283Y-13488614D01*
X60284476Y-13467838D01*
X60329240Y-13454466D01*
X60386120Y-13449596D01*
X60459622Y-13458406D01*
X60516912Y-13482936D01*
X60547034Y-13508436D01*
X60563984Y-13537193D01*
X60569668Y-13570588D01*
X60561169Y-13611019D01*
X60535322Y-13644960D01*
X60493568Y-13670199D01*
X60417902Y-13693595D01*
X60214844Y-13734628D01*
X60103625Y-13765856D01*
X60021251Y-13805792D01*
X59961812Y-13852986D01*
X59920970Y-13907365D01*
X59896337Y-13970274D01*
X59887773Y-14044297D01*
X59895196Y-14116545D01*
X59916856Y-14181089D01*
X59952894Y-14239661D01*
X60000531Y-14290164D01*
X60059931Y-14333725D01*
X60132870Y-14370362D01*
X60210789Y-14395962D01*
X60298145Y-14411954D01*
X60396378Y-14417531D01*
G37*
G36*
X59678579Y-14395000D02*
G01*
X59678579Y-13248646D01*
X59380175Y-13248646D01*
X59380175Y-14395000D01*
X59678579Y-14395000D01*
G37*
G36*
X59529835Y-13095872D02*
G01*
X59573861Y-13090745D01*
X59612571Y-13075793D01*
X59647255Y-13050717D01*
X59674568Y-13018069D01*
X59690551Y-12981937D01*
X59695981Y-12940991D01*
X59690549Y-12900048D01*
X59674565Y-12863949D01*
X59647255Y-12831357D01*
X59612571Y-12806282D01*
X59573861Y-12791329D01*
X59529835Y-12786202D01*
X59486479Y-12791306D01*
X59448121Y-12806234D01*
X59413514Y-12831357D01*
X59386204Y-12863949D01*
X59370219Y-12900048D01*
X59364788Y-12940991D01*
X59370217Y-12981937D01*
X59386201Y-13018069D01*
X59413514Y-13050717D01*
X59448121Y-13075840D01*
X59486479Y-13090769D01*
X59529835Y-13095872D01*
G37*
G36*
X58667139Y-14417531D02*
G01*
X58770750Y-14411433D01*
X58860495Y-14394141D01*
X58938359Y-14366769D01*
X59006025Y-14329878D01*
X59066428Y-14281230D01*
X59112970Y-14224818D01*
X59146943Y-14159722D01*
X59168600Y-14084323D01*
X58890712Y-14036146D01*
X58871807Y-14085968D01*
X58845840Y-14125561D01*
X58812768Y-14156588D01*
X58773074Y-14178642D01*
X58722702Y-14192888D01*
X58658895Y-14198079D01*
X58574745Y-14188551D01*
X58515922Y-14163274D01*
X58485620Y-14136853D01*
X58468694Y-14107883D01*
X58463074Y-14075072D01*
X58470897Y-14036883D01*
X58494729Y-14004467D01*
X58539095Y-13976178D01*
X58612825Y-13953073D01*
X58809654Y-13912040D01*
X58920150Y-13880422D01*
X59002482Y-13839448D01*
X59062340Y-13790496D01*
X59103815Y-13733497D01*
X59129018Y-13666923D01*
X59137825Y-13587991D01*
X59129397Y-13509556D01*
X59105083Y-13441747D01*
X59064926Y-13382228D01*
X59007125Y-13329612D01*
X58940125Y-13289650D01*
X58861551Y-13259893D01*
X58769335Y-13240981D01*
X58661002Y-13234266D01*
X58529820Y-13244421D01*
X58424896Y-13272401D01*
X58341074Y-13315782D01*
X58270407Y-13377088D01*
X58220023Y-13450346D01*
X58188300Y-13537799D01*
X58452815Y-13584968D01*
X58478157Y-13532471D01*
X58520043Y-13488614D01*
X58555237Y-13467838D01*
X58600001Y-13454466D01*
X58656880Y-13449596D01*
X58730383Y-13458406D01*
X58787672Y-13482936D01*
X58817794Y-13508436D01*
X58834745Y-13537193D01*
X58840429Y-13570588D01*
X58831930Y-13611019D01*
X58806082Y-13644960D01*
X58764329Y-13670199D01*
X58688662Y-13693595D01*
X58485605Y-13734628D01*
X58374385Y-13765856D01*
X58292011Y-13805792D01*
X58232573Y-13852986D01*
X58191730Y-13907365D01*
X58167098Y-13970274D01*
X58158533Y-14044297D01*
X58165957Y-14116545D01*
X58187617Y-14181089D01*
X58223655Y-14239661D01*
X58271291Y-14290164D01*
X58330692Y-14333725D01*
X58403631Y-14370362D01*
X58481550Y-14395962D01*
X58568906Y-14411954D01*
X58667139Y-14417531D01*
G37*
G36*
X57384314Y-13248646D02*
G01*
X57384314Y-13476250D01*
X57604774Y-13476250D01*
X57604774Y-14062799D01*
X57597389Y-14112955D01*
X57577868Y-14145352D01*
X57546355Y-14165121D01*
X57498162Y-14172525D01*
X57448977Y-14168403D01*
X57400709Y-14159153D01*
X57357661Y-14383734D01*
X57455572Y-14404708D01*
X57551468Y-14411394D01*
X57636979Y-14405395D01*
X57707270Y-14388709D01*
X57765034Y-14362703D01*
X57812411Y-14327863D01*
X57850934Y-14283299D01*
X57879071Y-14229854D01*
X57896843Y-14165720D01*
X57903177Y-14088444D01*
X57903177Y-13476250D01*
X58061080Y-13476250D01*
X58061080Y-13248646D01*
X57903177Y-13248646D01*
X57903177Y-12975887D01*
X57604774Y-12975887D01*
X57604774Y-13248646D01*
X57384314Y-13248646D01*
G37*
G36*
X56801504Y-13243029D02*
G01*
X56899465Y-13268132D01*
X56985710Y-13308638D01*
X57062662Y-13364601D01*
X57126803Y-13433354D01*
X57179058Y-13516275D01*
X57216116Y-13607438D01*
X57239163Y-13710287D01*
X57247202Y-13826952D01*
X57239172Y-13942874D01*
X57216135Y-14045213D01*
X57179058Y-14136072D01*
X57126839Y-14218649D01*
X57062702Y-14287262D01*
X56985710Y-14343251D01*
X56899470Y-14383705D01*
X56801509Y-14408778D01*
X56689413Y-14417531D01*
X56577254Y-14408776D01*
X56479264Y-14383702D01*
X56393024Y-14343251D01*
X56316038Y-14287259D01*
X56251933Y-14218646D01*
X56199767Y-14136072D01*
X56162639Y-14045208D01*
X56139572Y-13942869D01*
X56131531Y-13826952D01*
X56131601Y-13825944D01*
X56435064Y-13825944D01*
X56442750Y-13925408D01*
X56464397Y-14009072D01*
X56498720Y-14079743D01*
X56534685Y-14124544D01*
X56577441Y-14155804D01*
X56628259Y-14174949D01*
X56689413Y-14181684D01*
X56750567Y-14174949D01*
X56801385Y-14155804D01*
X56844140Y-14124544D01*
X56880105Y-14079743D01*
X56914377Y-14009079D01*
X56935994Y-13925414D01*
X56943669Y-13825944D01*
X56935936Y-13725044D01*
X56914268Y-13641130D01*
X56880105Y-13571138D01*
X56844198Y-13526794D01*
X56801468Y-13495805D01*
X56750631Y-13476802D01*
X56689413Y-13470113D01*
X56628195Y-13476802D01*
X56577357Y-13495805D01*
X56534627Y-13526794D01*
X56498720Y-13571138D01*
X56464506Y-13641136D01*
X56442808Y-13725050D01*
X56435064Y-13825944D01*
X56131601Y-13825944D01*
X56139581Y-13710291D01*
X56162658Y-13607443D01*
X56199767Y-13516275D01*
X56251969Y-13433357D01*
X56316079Y-13364604D01*
X56393024Y-13308638D01*
X56479270Y-13268135D01*
X56577260Y-13243030D01*
X56689413Y-13234266D01*
X56801504Y-13243029D01*
G37*
G36*
X55915285Y-14395000D02*
G01*
X55915285Y-13248646D01*
X55627139Y-13248646D01*
X55627139Y-13446482D01*
X55614866Y-13446482D01*
X55587899Y-13380456D01*
X55552371Y-13328215D01*
X55508254Y-13287572D01*
X55456080Y-13257519D01*
X55399077Y-13239442D01*
X55335880Y-13233258D01*
X55237511Y-13242418D01*
X55237511Y-13511146D01*
X55296496Y-13499330D01*
X55368761Y-13494751D01*
X55437768Y-13502611D01*
X55496270Y-13525175D01*
X55546631Y-13562437D01*
X55585361Y-13611334D01*
X55608734Y-13668595D01*
X55616881Y-13736734D01*
X55616881Y-14395000D01*
X55915285Y-14395000D01*
G37*
G36*
X54616615Y-14417531D02*
G01*
X54720226Y-14411433D01*
X54809972Y-14394141D01*
X54887835Y-14366769D01*
X54955502Y-14329878D01*
X55015904Y-14281230D01*
X55062447Y-14224818D01*
X55096420Y-14159722D01*
X55118076Y-14084323D01*
X54840189Y-14036146D01*
X54821283Y-14085968D01*
X54795317Y-14125561D01*
X54762245Y-14156588D01*
X54722550Y-14178642D01*
X54672179Y-14192888D01*
X54608372Y-14198079D01*
X54524222Y-14188551D01*
X54465398Y-14163274D01*
X54435096Y-14136853D01*
X54418171Y-14107883D01*
X54412550Y-14075072D01*
X54420374Y-14036883D01*
X54444205Y-14004467D01*
X54488572Y-13976178D01*
X54562302Y-13953073D01*
X54759131Y-13912040D01*
X54869627Y-13880422D01*
X54951959Y-13839448D01*
X55011817Y-13790496D01*
X55053291Y-13733497D01*
X55078494Y-13666923D01*
X55087302Y-13587991D01*
X55078874Y-13509556D01*
X55054559Y-13441747D01*
X55014403Y-13382228D01*
X54956601Y-13329612D01*
X54889602Y-13289650D01*
X54811027Y-13259893D01*
X54718811Y-13240981D01*
X54610479Y-13234266D01*
X54479297Y-13244421D01*
X54374373Y-13272401D01*
X54290551Y-13315782D01*
X54219883Y-13377088D01*
X54169499Y-13450346D01*
X54137777Y-13537799D01*
X54402292Y-13584968D01*
X54427633Y-13532471D01*
X54469520Y-13488614D01*
X54504714Y-13467838D01*
X54549477Y-13454466D01*
X54606357Y-13449596D01*
X54679859Y-13458406D01*
X54737149Y-13482936D01*
X54767271Y-13508436D01*
X54784221Y-13537193D01*
X54789905Y-13570588D01*
X54781406Y-13611019D01*
X54755559Y-13644960D01*
X54713805Y-13670199D01*
X54638139Y-13693595D01*
X54435082Y-13734628D01*
X54323862Y-13765856D01*
X54241488Y-13805792D01*
X54182050Y-13852986D01*
X54141207Y-13907365D01*
X54116574Y-13970274D01*
X54108010Y-14044297D01*
X54115433Y-14116545D01*
X54137093Y-14181089D01*
X54173131Y-14239661D01*
X54220768Y-14290164D01*
X54280168Y-14333725D01*
X54353108Y-14370362D01*
X54431027Y-14395962D01*
X54518382Y-14411954D01*
X54616615Y-14417531D01*
G37*
G36*
X52832604Y-13248646D02*
G01*
X52832604Y-13476250D01*
X53053064Y-13476250D01*
X53053064Y-14062799D01*
X53045679Y-14112955D01*
X53026159Y-14145352D01*
X52994645Y-14165121D01*
X52946452Y-14172525D01*
X52897268Y-14168403D01*
X52848999Y-14159153D01*
X52805951Y-14383734D01*
X52903862Y-14404708D01*
X52999758Y-14411394D01*
X53085269Y-14405395D01*
X53155561Y-14388709D01*
X53213325Y-14362703D01*
X53260701Y-14327863D01*
X53299224Y-14283299D01*
X53327362Y-14229854D01*
X53345134Y-14165720D01*
X53351468Y-14088444D01*
X53351468Y-13476250D01*
X53509371Y-13476250D01*
X53509371Y-13248646D01*
X53351468Y-13248646D01*
X53351468Y-12975887D01*
X53053064Y-12975887D01*
X53053064Y-13248646D01*
X52832604Y-13248646D01*
G37*
G36*
X52249794Y-13243029D02*
G01*
X52347755Y-13268132D01*
X52434000Y-13308638D01*
X52510952Y-13364601D01*
X52575093Y-13433354D01*
X52627349Y-13516275D01*
X52664406Y-13607438D01*
X52687453Y-13710287D01*
X52695492Y-13826952D01*
X52687462Y-13942874D01*
X52664425Y-14045213D01*
X52627349Y-14136072D01*
X52575129Y-14218649D01*
X52510992Y-14287262D01*
X52434000Y-14343251D01*
X52347761Y-14383705D01*
X52249799Y-14408778D01*
X52137703Y-14417531D01*
X52025545Y-14408776D01*
X51927555Y-14383702D01*
X51841314Y-14343251D01*
X51764328Y-14287259D01*
X51700223Y-14218646D01*
X51648057Y-14136072D01*
X51610929Y-14045208D01*
X51587862Y-13942869D01*
X51579822Y-13826952D01*
X51579892Y-13825944D01*
X51883354Y-13825944D01*
X51891040Y-13925408D01*
X51912687Y-14009072D01*
X51947010Y-14079743D01*
X51982975Y-14124544D01*
X52025731Y-14155804D01*
X52076549Y-14174949D01*
X52137703Y-14181684D01*
X52198857Y-14174949D01*
X52249675Y-14155804D01*
X52292431Y-14124544D01*
X52328395Y-14079743D01*
X52362667Y-14009079D01*
X52384284Y-13925414D01*
X52391960Y-13825944D01*
X52384226Y-13725044D01*
X52362558Y-13641130D01*
X52328395Y-13571138D01*
X52292488Y-13526794D01*
X52249758Y-13495805D01*
X52198921Y-13476802D01*
X52137703Y-13470113D01*
X52076485Y-13476802D01*
X52025648Y-13495805D01*
X51982918Y-13526794D01*
X51947010Y-13571138D01*
X51912796Y-13641136D01*
X51891098Y-13725050D01*
X51883354Y-13825944D01*
X51579892Y-13825944D01*
X51587871Y-13710291D01*
X51610948Y-13607443D01*
X51648057Y-13516275D01*
X51700259Y-13433357D01*
X51764369Y-13364604D01*
X51841314Y-13308638D01*
X51927560Y-13268135D01*
X52025550Y-13243030D01*
X52137703Y-13234266D01*
X52249794Y-13243029D01*
G37*
G36*
X50862389Y-14395000D02*
G01*
X50862389Y-13248646D01*
X50585509Y-13248646D01*
X50574243Y-13471120D01*
X50536944Y-13392310D01*
X50491807Y-13332525D01*
X50438872Y-13288579D01*
X50377381Y-13256454D01*
X50313844Y-13237498D01*
X50247172Y-13231152D01*
X50166658Y-13241141D01*
X50099215Y-13269832D01*
X50041717Y-13317624D01*
X49992765Y-13387886D01*
X49952890Y-13486508D01*
X49913542Y-13404973D01*
X49864050Y-13341631D01*
X49804146Y-13293709D01*
X49734968Y-13258901D01*
X49662231Y-13238154D01*
X49584693Y-13231152D01*
X49507876Y-13237807D01*
X49439812Y-13257042D01*
X49378864Y-13288482D01*
X49323842Y-13332726D01*
X49279839Y-13386425D01*
X49247512Y-13450935D01*
X49227019Y-13528452D01*
X49219703Y-13621879D01*
X49219703Y-14395000D01*
X49518107Y-14395000D01*
X49518107Y-13676193D01*
X49524816Y-13612073D01*
X49543016Y-13564171D01*
X49571413Y-13528548D01*
X49609325Y-13501973D01*
X49652562Y-13485928D01*
X49702663Y-13480371D01*
X49760305Y-13487131D01*
X49806805Y-13506187D01*
X49844721Y-13537249D01*
X49872862Y-13577907D01*
X49890292Y-13626886D01*
X49896469Y-13686451D01*
X49896469Y-14395000D01*
X50185622Y-14395000D01*
X50185622Y-13666942D01*
X50191665Y-13612307D01*
X50208710Y-13567779D01*
X50236364Y-13531113D01*
X50272921Y-13503213D01*
X50315865Y-13486287D01*
X50367064Y-13480371D01*
X50420097Y-13486832D01*
X50466212Y-13505642D01*
X50507107Y-13537249D01*
X50537639Y-13578565D01*
X50556970Y-13631604D01*
X50563985Y-13699823D01*
X50563985Y-14395000D01*
X50862389Y-14395000D01*
G37*
G36*
X48611104Y-13243858D02*
G01*
X48716559Y-13271124D01*
X48807635Y-13314774D01*
X48868445Y-13359645D01*
X48917616Y-13412396D01*
X48956192Y-13473737D01*
X48984497Y-13544943D01*
X48710731Y-13592112D01*
X48682702Y-13539909D01*
X48635352Y-13495209D01*
X48596247Y-13474055D01*
X48548265Y-13460579D01*
X48489264Y-13455733D01*
X48431197Y-13461025D01*
X48386590Y-13475444D01*
X48352427Y-13497773D01*
X48326432Y-13528709D01*
X48310419Y-13567263D01*
X48304708Y-13615743D01*
X48304708Y-13620872D01*
X48311720Y-13653430D01*
X48332139Y-13676743D01*
X48369830Y-13692588D01*
X48445732Y-13706462D01*
X48584611Y-13723362D01*
X48694984Y-13740385D01*
X48795911Y-13767967D01*
X48858403Y-13795060D01*
X48911306Y-13830204D01*
X48955829Y-13873572D01*
X48988713Y-13925110D01*
X49009739Y-13990658D01*
X49017378Y-14074064D01*
X49009843Y-14157879D01*
X48988714Y-14226804D01*
X48955116Y-14283793D01*
X48908660Y-14330886D01*
X48832034Y-14378057D01*
X48741913Y-14407251D01*
X48634894Y-14417531D01*
X48549391Y-14411095D01*
X48479427Y-14393201D01*
X48422128Y-14365232D01*
X48370763Y-14326724D01*
X48330312Y-14283787D01*
X48299579Y-14236089D01*
X48289321Y-14236089D01*
X48289321Y-14395000D01*
X48006305Y-14395000D01*
X48006305Y-13984855D01*
X48302602Y-13984855D01*
X48310321Y-14043371D01*
X48333041Y-14095040D01*
X48371845Y-14141750D01*
X48421444Y-14176955D01*
X48480867Y-14198655D01*
X48552828Y-14206322D01*
X48625799Y-14196938D01*
X48681056Y-14170968D01*
X48708683Y-14144040D01*
X48725342Y-14110086D01*
X48731248Y-14066829D01*
X48724836Y-14021979D01*
X48706702Y-13986913D01*
X48676385Y-13959209D01*
X48616145Y-13930136D01*
X48534419Y-13911032D01*
X48452353Y-13898759D01*
X48363143Y-13881265D01*
X48324466Y-13869249D01*
X48302602Y-13857726D01*
X48302602Y-13984855D01*
X48006305Y-13984855D01*
X48006305Y-13623894D01*
X48014915Y-13532005D01*
X48038949Y-13457521D01*
X48077104Y-13396840D01*
X48128326Y-13345251D01*
X48188257Y-13304018D01*
X48258088Y-13272734D01*
X48370338Y-13243947D01*
X48488257Y-13234266D01*
X48611104Y-13243858D01*
G37*
G36*
X47177405Y-13248646D02*
G01*
X47177405Y-13476250D01*
X47397865Y-13476250D01*
X47397865Y-14062799D01*
X47390480Y-14112955D01*
X47370960Y-14145352D01*
X47339447Y-14165121D01*
X47291253Y-14172525D01*
X47242069Y-14168403D01*
X47193800Y-14159153D01*
X47150752Y-14383734D01*
X47248663Y-14404708D01*
X47344559Y-14411394D01*
X47430070Y-14405395D01*
X47500362Y-14388709D01*
X47558126Y-14362703D01*
X47605502Y-14327863D01*
X47644025Y-14283299D01*
X47672163Y-14229854D01*
X47689935Y-14165720D01*
X47696269Y-14088444D01*
X47696269Y-13476250D01*
X47854172Y-13476250D01*
X47854172Y-13248646D01*
X47696269Y-13248646D01*
X47696269Y-12975887D01*
X47397865Y-12975887D01*
X47397865Y-13248646D01*
X47177405Y-13248646D01*
G37*
G36*
X46482504Y-14417531D02*
G01*
X46595337Y-14408749D01*
X46693448Y-14383650D01*
X46779351Y-14343251D01*
X46855999Y-14287297D01*
X46919962Y-14218688D01*
X46972150Y-14136072D01*
X47009226Y-14045213D01*
X47032264Y-13942874D01*
X47040294Y-13826952D01*
X47032254Y-13710287D01*
X47009208Y-13607438D01*
X46972150Y-13516275D01*
X46919926Y-13433315D01*
X46855959Y-13364566D01*
X46779351Y-13308638D01*
X46693442Y-13268187D01*
X46595332Y-13243058D01*
X46482504Y-13234266D01*
X46381927Y-13241136D01*
X46293345Y-13260820D01*
X46214924Y-13292442D01*
X46145174Y-13335840D01*
X46083861Y-13391106D01*
X46035874Y-13454544D01*
X46000251Y-13527178D01*
X45976921Y-13610614D01*
X46253801Y-13663920D01*
X46272371Y-13606352D01*
X46298592Y-13559617D01*
X46332295Y-13521953D01*
X46373520Y-13493583D01*
X46421901Y-13476206D01*
X46479390Y-13470113D01*
X46540717Y-13476701D01*
X46591888Y-13495434D01*
X46635104Y-13525972D01*
X46671640Y-13569581D01*
X46706524Y-13638788D01*
X46728773Y-13723087D01*
X46736761Y-13825944D01*
X46728803Y-13928052D01*
X46706581Y-14012216D01*
X46671640Y-14081758D01*
X46635075Y-14125595D01*
X46591847Y-14156268D01*
X46540685Y-14175073D01*
X46479390Y-14181684D01*
X46421334Y-14175395D01*
X46372250Y-14157409D01*
X46330188Y-14127920D01*
X46296065Y-14088798D01*
X46269861Y-14040355D01*
X46251786Y-13980733D01*
X45974906Y-14033032D01*
X45998322Y-14119184D01*
X46034034Y-14193761D01*
X46081998Y-14258487D01*
X46143068Y-14314491D01*
X46212922Y-14358488D01*
X46291689Y-14390563D01*
X46380916Y-14410548D01*
X46482504Y-14417531D01*
G37*
G36*
X45464195Y-13729499D02*
G01*
X45464195Y-14395000D01*
X45762598Y-14395000D01*
X45762598Y-12867169D01*
X45470331Y-12867169D01*
X45470331Y-13466999D01*
X45431640Y-13395806D01*
X45386245Y-13338859D01*
X45334044Y-13294258D01*
X45273965Y-13261666D01*
X45203958Y-13241398D01*
X45121736Y-13234266D01*
X45034122Y-13241916D01*
X44958540Y-13263784D01*
X44892751Y-13299159D01*
X44835147Y-13348572D01*
X44789470Y-13408528D01*
X44755849Y-13479811D01*
X44734557Y-13564654D01*
X44726978Y-13665935D01*
X44726978Y-14395000D01*
X45025290Y-14395000D01*
X45025290Y-13716218D01*
X45032204Y-13645824D01*
X45051374Y-13589971D01*
X45081710Y-13545492D01*
X45122997Y-13511584D01*
X45173688Y-13490777D01*
X45236591Y-13483394D01*
X45300857Y-13490921D01*
X45354748Y-13512472D01*
X45400630Y-13548057D01*
X45434845Y-13594819D01*
X45456407Y-13654092D01*
X45464195Y-13729499D01*
G37*
G36*
X43663148Y-12867169D02*
G01*
X43663148Y-14395000D01*
X43961551Y-14395000D01*
X43961551Y-12867169D01*
X43663148Y-12867169D01*
G37*
G36*
X43009527Y-13243026D02*
G01*
X43105155Y-13268223D01*
X43190080Y-13309096D01*
X43265665Y-13365290D01*
X43328955Y-13434361D01*
X43380772Y-13517740D01*
X43417620Y-13609221D01*
X43440494Y-13711949D01*
X43448458Y-13827959D01*
X43440357Y-13946667D01*
X43417254Y-14050139D01*
X43380315Y-14140743D01*
X43327991Y-14222763D01*
X43263543Y-14290478D01*
X43185958Y-14345266D01*
X43099150Y-14384479D01*
X42999528Y-14408947D01*
X42884532Y-14417531D01*
X42754985Y-14407183D01*
X42646740Y-14378090D01*
X42555903Y-14331985D01*
X42477612Y-14267695D01*
X42420714Y-14192549D01*
X42383071Y-14104839D01*
X42653814Y-14052540D01*
X42688085Y-14113224D01*
X42738353Y-14156130D01*
X42801633Y-14181804D01*
X42880410Y-14190935D01*
X42956661Y-14182331D01*
X43020130Y-14157824D01*
X43073668Y-14117662D01*
X43113823Y-14064169D01*
X43140877Y-13993530D01*
X43153169Y-13900774D01*
X42365669Y-13900774D01*
X42365669Y-13814587D01*
X42372830Y-13710081D01*
X42653814Y-13710081D01*
X43152161Y-13710081D01*
X43138770Y-13640875D01*
X43113599Y-13582028D01*
X43076782Y-13531662D01*
X43029190Y-13493052D01*
X42970621Y-13469302D01*
X42897813Y-13460862D01*
X42827619Y-13468959D01*
X42771446Y-13491689D01*
X42726080Y-13528548D01*
X42691493Y-13576959D01*
X42667172Y-13636604D01*
X42653814Y-13710081D01*
X42372830Y-13710081D01*
X42374553Y-13684936D01*
X42399306Y-13577730D01*
X42437934Y-13489072D01*
X42492506Y-13409474D01*
X42556846Y-13346148D01*
X42631741Y-13297372D01*
X42714780Y-13262601D01*
X42804065Y-13241481D01*
X42900927Y-13234266D01*
X43009527Y-13243026D01*
G37*
G36*
X41789402Y-13243858D02*
G01*
X41894856Y-13271124D01*
X41985932Y-13314774D01*
X42046742Y-13359645D01*
X42095913Y-13412396D01*
X42134489Y-13473737D01*
X42162794Y-13544943D01*
X41889029Y-13592112D01*
X41860999Y-13539909D01*
X41813649Y-13495209D01*
X41774545Y-13474055D01*
X41726562Y-13460579D01*
X41667562Y-13455733D01*
X41609495Y-13461025D01*
X41564888Y-13475444D01*
X41530725Y-13497773D01*
X41504730Y-13528709D01*
X41488717Y-13567263D01*
X41483006Y-13615743D01*
X41483006Y-13620872D01*
X41490017Y-13653430D01*
X41510436Y-13676743D01*
X41548127Y-13692588D01*
X41624029Y-13706462D01*
X41762908Y-13723362D01*
X41873281Y-13740385D01*
X41974208Y-13767967D01*
X42036701Y-13795060D01*
X42089604Y-13830204D01*
X42134126Y-13873572D01*
X42167010Y-13925110D01*
X42188036Y-13990658D01*
X42195676Y-14074064D01*
X42188140Y-14157879D01*
X42167011Y-14226804D01*
X42133414Y-14283793D01*
X42086957Y-14330886D01*
X42010331Y-14378057D01*
X41920210Y-14407251D01*
X41813191Y-14417531D01*
X41727688Y-14411095D01*
X41657724Y-14393201D01*
X41600425Y-14365232D01*
X41549060Y-14326724D01*
X41508609Y-14283787D01*
X41477876Y-14236089D01*
X41467618Y-14236089D01*
X41467618Y-14395000D01*
X41184602Y-14395000D01*
X41184602Y-13984855D01*
X41480899Y-13984855D01*
X41488618Y-14043371D01*
X41511338Y-14095040D01*
X41550142Y-14141750D01*
X41599741Y-14176955D01*
X41659165Y-14198655D01*
X41731126Y-14206322D01*
X41804096Y-14196938D01*
X41859353Y-14170968D01*
X41886980Y-14144040D01*
X41903639Y-14110086D01*
X41909545Y-14066829D01*
X41903133Y-14021979D01*
X41884999Y-13986913D01*
X41854682Y-13959209D01*
X41794442Y-13930136D01*
X41712716Y-13911032D01*
X41630650Y-13898759D01*
X41541441Y-13881265D01*
X41502763Y-13869249D01*
X41480899Y-13857726D01*
X41480899Y-13984855D01*
X41184602Y-13984855D01*
X41184602Y-13623894D01*
X41193212Y-13532005D01*
X41217246Y-13457521D01*
X41255402Y-13396840D01*
X41306624Y-13345251D01*
X41366555Y-13304018D01*
X41436386Y-13272734D01*
X41548635Y-13243947D01*
X41666554Y-13234266D01*
X41789402Y-13243858D01*
G37*
G36*
X40165010Y-13440346D02*
G01*
X40175268Y-13440346D01*
X40199465Y-13396731D01*
X40234803Y-13348114D01*
X40279229Y-13304535D01*
X40338850Y-13267056D01*
X40409065Y-13243115D01*
X40502340Y-13234266D01*
X40585930Y-13241716D01*
X40663598Y-13263695D01*
X40736722Y-13300395D01*
X40801273Y-13350397D01*
X40857571Y-13415433D01*
X40905890Y-13497773D01*
X40939536Y-13587468D01*
X40961156Y-13695020D01*
X40968905Y-13823838D01*
X40961337Y-13949942D01*
X40940113Y-14056457D01*
X40906898Y-14146421D01*
X40859264Y-14229185D01*
X40803448Y-14295107D01*
X40739195Y-14346365D01*
X40666246Y-14384057D01*
X40587481Y-14406763D01*
X40501333Y-14414508D01*
X40410796Y-14405977D01*
X40341415Y-14382726D01*
X40281891Y-14346450D01*
X40236818Y-14304324D01*
X40200599Y-14256776D01*
X40175268Y-14212459D01*
X40159881Y-14212459D01*
X40159881Y-14395000D01*
X39866606Y-14395000D01*
X39866606Y-13822830D01*
X40158874Y-13822830D01*
X40167045Y-13926304D01*
X40189680Y-14009962D01*
X40225002Y-14077636D01*
X40261861Y-14120422D01*
X40304313Y-14150167D01*
X40353438Y-14168242D01*
X40411115Y-14174540D01*
X40470271Y-14168057D01*
X40520045Y-14149541D01*
X40562494Y-14119191D01*
X40598785Y-14075621D01*
X40633449Y-14006778D01*
X40655475Y-13923598D01*
X40663357Y-13822830D01*
X40655493Y-13722034D01*
X40633590Y-13639458D01*
X40599243Y-13571687D01*
X40563302Y-13528922D01*
X40520933Y-13499003D01*
X40470911Y-13480673D01*
X40411115Y-13474234D01*
X40352177Y-13480491D01*
X40302540Y-13498339D01*
X40260207Y-13527492D01*
X40223995Y-13569123D01*
X40189350Y-13635413D01*
X40166994Y-13718594D01*
X40158874Y-13822830D01*
X39866606Y-13822830D01*
X39866606Y-12867169D01*
X40165010Y-12867169D01*
X40165010Y-13440346D01*
G37*
G36*
X39102096Y-14395000D02*
G01*
X39102096Y-13248646D01*
X38813950Y-13248646D01*
X38813950Y-13446482D01*
X38801677Y-13446482D01*
X38774710Y-13380456D01*
X38739182Y-13328215D01*
X38695065Y-13287572D01*
X38642891Y-13257519D01*
X38585888Y-13239442D01*
X38522691Y-13233258D01*
X38424322Y-13242418D01*
X38424322Y-13511146D01*
X38483307Y-13499330D01*
X38555572Y-13494751D01*
X38624579Y-13502611D01*
X38683081Y-13525175D01*
X38733442Y-13562437D01*
X38772172Y-13611334D01*
X38795545Y-13668595D01*
X38803692Y-13736734D01*
X38803692Y-14395000D01*
X39102096Y-14395000D01*
G37*
G36*
X37914133Y-13243026D02*
G01*
X38009760Y-13268223D01*
X38094686Y-13309096D01*
X38170271Y-13365290D01*
X38233561Y-13434361D01*
X38285378Y-13517740D01*
X38322226Y-13609221D01*
X38345100Y-13711949D01*
X38353064Y-13827959D01*
X38344963Y-13946667D01*
X38321860Y-14050139D01*
X38284920Y-14140743D01*
X38232597Y-14222763D01*
X38168149Y-14290478D01*
X38090564Y-14345266D01*
X38003756Y-14384479D01*
X37904133Y-14408947D01*
X37789138Y-14417531D01*
X37659590Y-14407183D01*
X37551345Y-14378090D01*
X37460509Y-14331985D01*
X37382217Y-14267695D01*
X37325320Y-14192549D01*
X37287677Y-14104839D01*
X37558420Y-14052540D01*
X37592691Y-14113224D01*
X37642958Y-14156130D01*
X37706239Y-14181804D01*
X37785016Y-14190935D01*
X37861267Y-14182331D01*
X37924736Y-14157824D01*
X37978273Y-14117662D01*
X38018429Y-14064169D01*
X38045482Y-13993530D01*
X38057774Y-13900774D01*
X37270274Y-13900774D01*
X37270274Y-13814587D01*
X37277436Y-13710081D01*
X37558420Y-13710081D01*
X38056767Y-13710081D01*
X38043376Y-13640875D01*
X38018205Y-13582028D01*
X37981387Y-13531662D01*
X37933796Y-13493052D01*
X37875226Y-13469302D01*
X37802419Y-13460862D01*
X37732224Y-13468959D01*
X37676052Y-13491689D01*
X37630685Y-13528548D01*
X37596099Y-13576959D01*
X37571778Y-13636604D01*
X37558420Y-13710081D01*
X37277436Y-13710081D01*
X37279159Y-13684936D01*
X37303912Y-13577730D01*
X37342540Y-13489072D01*
X37397112Y-13409474D01*
X37461452Y-13346148D01*
X37536346Y-13297372D01*
X37619386Y-13262601D01*
X37708670Y-13241481D01*
X37805533Y-13234266D01*
X37914133Y-13243026D01*
G37*
G36*
X36609078Y-14417531D02*
G01*
X36712690Y-14411433D01*
X36802435Y-14394141D01*
X36880299Y-14366769D01*
X36947965Y-14329878D01*
X37008368Y-14281230D01*
X37054910Y-14224818D01*
X37088883Y-14159722D01*
X37110540Y-14084323D01*
X36832652Y-14036146D01*
X36813747Y-14085968D01*
X36787780Y-14125561D01*
X36754708Y-14156588D01*
X36715014Y-14178642D01*
X36664642Y-14192888D01*
X36600835Y-14198079D01*
X36516685Y-14188551D01*
X36457862Y-14163274D01*
X36427560Y-14136853D01*
X36410634Y-14107883D01*
X36405014Y-14075072D01*
X36412837Y-14036883D01*
X36436669Y-14004467D01*
X36481035Y-13976178D01*
X36554765Y-13953073D01*
X36751594Y-13912040D01*
X36862090Y-13880422D01*
X36944422Y-13839448D01*
X37004280Y-13790496D01*
X37045755Y-13733497D01*
X37070958Y-13666923D01*
X37079765Y-13587991D01*
X37071337Y-13509556D01*
X37047023Y-13441747D01*
X37006866Y-13382228D01*
X36949065Y-13329612D01*
X36882065Y-13289650D01*
X36803491Y-13259893D01*
X36711275Y-13240981D01*
X36602942Y-13234266D01*
X36471760Y-13244421D01*
X36366836Y-13272401D01*
X36283014Y-13315782D01*
X36212347Y-13377088D01*
X36161962Y-13450346D01*
X36130240Y-13537799D01*
X36394755Y-13584968D01*
X36420097Y-13532471D01*
X36461983Y-13488614D01*
X36497177Y-13467838D01*
X36541941Y-13454466D01*
X36598820Y-13449596D01*
X36672323Y-13458406D01*
X36729612Y-13482936D01*
X36759734Y-13508436D01*
X36776685Y-13537193D01*
X36782369Y-13570588D01*
X36773870Y-13611019D01*
X36748022Y-13644960D01*
X36706269Y-13670199D01*
X36630602Y-13693595D01*
X36427545Y-13734628D01*
X36316325Y-13765856D01*
X36233951Y-13805792D01*
X36174513Y-13852986D01*
X36133670Y-13907365D01*
X36109038Y-13970274D01*
X36100473Y-14044297D01*
X36107897Y-14116545D01*
X36129557Y-14181089D01*
X36165595Y-14239661D01*
X36213231Y-14290164D01*
X36272632Y-14333725D01*
X36345571Y-14370362D01*
X36423490Y-14395962D01*
X36510846Y-14411954D01*
X36609078Y-14417531D01*
G37*
G36*
X35891279Y-14395000D02*
G01*
X35891279Y-13248646D01*
X35592876Y-13248646D01*
X35592876Y-14395000D01*
X35891279Y-14395000D01*
G37*
G36*
X35742535Y-13095872D02*
G01*
X35786562Y-13090745D01*
X35825272Y-13075793D01*
X35859955Y-13050717D01*
X35887269Y-13018069D01*
X35903252Y-12981937D01*
X35908682Y-12940991D01*
X35903250Y-12900048D01*
X35887265Y-12863949D01*
X35859955Y-12831357D01*
X35825272Y-12806282D01*
X35786562Y-12791329D01*
X35742535Y-12786202D01*
X35699179Y-12791306D01*
X35660822Y-12806234D01*
X35626215Y-12831357D01*
X35598904Y-12863949D01*
X35582920Y-12900048D01*
X35577488Y-12940991D01*
X35582918Y-12981937D01*
X35598901Y-13018069D01*
X35626215Y-13050717D01*
X35660822Y-13075840D01*
X35699179Y-13090769D01*
X35742535Y-13095872D01*
G37*
G36*
X34879839Y-14417531D02*
G01*
X34983450Y-14411433D01*
X35073196Y-14394141D01*
X35151059Y-14366769D01*
X35218726Y-14329878D01*
X35279128Y-14281230D01*
X35325671Y-14224818D01*
X35359644Y-14159722D01*
X35381300Y-14084323D01*
X35103413Y-14036146D01*
X35084507Y-14085968D01*
X35058541Y-14125561D01*
X35025469Y-14156588D01*
X34985774Y-14178642D01*
X34935403Y-14192888D01*
X34871596Y-14198079D01*
X34787446Y-14188551D01*
X34728622Y-14163274D01*
X34698320Y-14136853D01*
X34681395Y-14107883D01*
X34675774Y-14075072D01*
X34683598Y-14036883D01*
X34707429Y-14004467D01*
X34751796Y-13976178D01*
X34825526Y-13953073D01*
X35022355Y-13912040D01*
X35132851Y-13880422D01*
X35215183Y-13839448D01*
X35275041Y-13790496D01*
X35316515Y-13733497D01*
X35341718Y-13666923D01*
X35350526Y-13587991D01*
X35342098Y-13509556D01*
X35317783Y-13441747D01*
X35277627Y-13382228D01*
X35219825Y-13329612D01*
X35152826Y-13289650D01*
X35074251Y-13259893D01*
X34982035Y-13240981D01*
X34873703Y-13234266D01*
X34742521Y-13244421D01*
X34637597Y-13272401D01*
X34553775Y-13315782D01*
X34483107Y-13377088D01*
X34432723Y-13450346D01*
X34401001Y-13537799D01*
X34665516Y-13584968D01*
X34690857Y-13532471D01*
X34732744Y-13488614D01*
X34767938Y-13467838D01*
X34812701Y-13454466D01*
X34869581Y-13449596D01*
X34943083Y-13458406D01*
X35000373Y-13482936D01*
X35030495Y-13508436D01*
X35047445Y-13537193D01*
X35053129Y-13570588D01*
X35044630Y-13611019D01*
X35018783Y-13644960D01*
X34977029Y-13670199D01*
X34901363Y-13693595D01*
X34698306Y-13734628D01*
X34587086Y-13765856D01*
X34504712Y-13805792D01*
X34445274Y-13852986D01*
X34404431Y-13907365D01*
X34379798Y-13970274D01*
X34371234Y-14044297D01*
X34378657Y-14116545D01*
X34400317Y-14181089D01*
X34436355Y-14239661D01*
X34483992Y-14290164D01*
X34543392Y-14333725D01*
X34616332Y-14370362D01*
X34694251Y-14395962D01*
X34781606Y-14411954D01*
X34879839Y-14417531D01*
G37*
G36*
X33597015Y-13248646D02*
G01*
X33597015Y-13476250D01*
X33817474Y-13476250D01*
X33817474Y-14062799D01*
X33810090Y-14112955D01*
X33790569Y-14145352D01*
X33759056Y-14165121D01*
X33710862Y-14172525D01*
X33661678Y-14168403D01*
X33613409Y-14159153D01*
X33570362Y-14383734D01*
X33668272Y-14404708D01*
X33764168Y-14411394D01*
X33849679Y-14405395D01*
X33919971Y-14388709D01*
X33977735Y-14362703D01*
X34025111Y-14327863D01*
X34063634Y-14283299D01*
X34091772Y-14229854D01*
X34109544Y-14165720D01*
X34115878Y-14088444D01*
X34115878Y-13476250D01*
X34273781Y-13476250D01*
X34273781Y-13248646D01*
X34115878Y-13248646D01*
X34115878Y-12975887D01*
X33817474Y-12975887D01*
X33817474Y-13248646D01*
X33597015Y-13248646D01*
G37*
G36*
X33042088Y-13243858D02*
G01*
X33147543Y-13271124D01*
X33238619Y-13314774D01*
X33299429Y-13359645D01*
X33348600Y-13412396D01*
X33387176Y-13473737D01*
X33415481Y-13544943D01*
X33141715Y-13592112D01*
X33113686Y-13539909D01*
X33066336Y-13495209D01*
X33027231Y-13474055D01*
X32979249Y-13460579D01*
X32920248Y-13455733D01*
X32862181Y-13461025D01*
X32817574Y-13475444D01*
X32783411Y-13497773D01*
X32757416Y-13528709D01*
X32741403Y-13567263D01*
X32735692Y-13615743D01*
X32735692Y-13620872D01*
X32742704Y-13653430D01*
X32763123Y-13676743D01*
X32800813Y-13692588D01*
X32876716Y-13706462D01*
X33015595Y-13723362D01*
X33125968Y-13740385D01*
X33226895Y-13767967D01*
X33289387Y-13795060D01*
X33342290Y-13830204D01*
X33386813Y-13873572D01*
X33419697Y-13925110D01*
X33440723Y-13990658D01*
X33448362Y-14074064D01*
X33440827Y-14157879D01*
X33419698Y-14226804D01*
X33386100Y-14283793D01*
X33339644Y-14330886D01*
X33263018Y-14378057D01*
X33172897Y-14407251D01*
X33065878Y-14417531D01*
X32980375Y-14411095D01*
X32910411Y-14393201D01*
X32853112Y-14365232D01*
X32801747Y-14326724D01*
X32761296Y-14283787D01*
X32730563Y-14236089D01*
X32720305Y-14236089D01*
X32720305Y-14395000D01*
X32437289Y-14395000D01*
X32437289Y-13984855D01*
X32733586Y-13984855D01*
X32741305Y-14043371D01*
X32764025Y-14095040D01*
X32802828Y-14141750D01*
X32852428Y-14176955D01*
X32911851Y-14198655D01*
X32983812Y-14206322D01*
X33056783Y-14196938D01*
X33112040Y-14170968D01*
X33139667Y-14144040D01*
X33156326Y-14110086D01*
X33162232Y-14066829D01*
X33155820Y-14021979D01*
X33137686Y-13986913D01*
X33107369Y-13959209D01*
X33047129Y-13930136D01*
X32965403Y-13911032D01*
X32883337Y-13898759D01*
X32794127Y-13881265D01*
X32755450Y-13869249D01*
X32733586Y-13857726D01*
X32733586Y-13984855D01*
X32437289Y-13984855D01*
X32437289Y-13623894D01*
X32445899Y-13532005D01*
X32469933Y-13457521D01*
X32508088Y-13396840D01*
X32559310Y-13345251D01*
X32619241Y-13304018D01*
X32689072Y-13272734D01*
X32801322Y-13243947D01*
X32919241Y-13234266D01*
X33042088Y-13243858D01*
G37*
G36*
X31875011Y-13729499D02*
G01*
X31875011Y-14395000D01*
X32173415Y-14395000D01*
X32173415Y-13248646D01*
X31891406Y-13248646D01*
X31888383Y-13484493D01*
X31849881Y-13407831D01*
X31804237Y-13346708D01*
X31751455Y-13298929D01*
X31690064Y-13263809D01*
X31617952Y-13241968D01*
X31532552Y-13234266D01*
X31444938Y-13241916D01*
X31369357Y-13263784D01*
X31303567Y-13299159D01*
X31245964Y-13348572D01*
X31200286Y-13408528D01*
X31166666Y-13479811D01*
X31145374Y-13564654D01*
X31137794Y-13665935D01*
X31137794Y-14395000D01*
X31436107Y-14395000D01*
X31436107Y-13716218D01*
X31443021Y-13645824D01*
X31462190Y-13589971D01*
X31492527Y-13545492D01*
X31533813Y-13511584D01*
X31584504Y-13490777D01*
X31647407Y-13483394D01*
X31711674Y-13490921D01*
X31765564Y-13512472D01*
X31811447Y-13548057D01*
X31845662Y-13594819D01*
X31867223Y-13654092D01*
X31875011Y-13729499D01*
G37*
G36*
X30363942Y-14417531D02*
G01*
X30476775Y-14408749D01*
X30574885Y-14383650D01*
X30660788Y-14343251D01*
X30737436Y-14287297D01*
X30801400Y-14218688D01*
X30853587Y-14136072D01*
X30890664Y-14045213D01*
X30913701Y-13942874D01*
X30921731Y-13826952D01*
X30913692Y-13710287D01*
X30890645Y-13607438D01*
X30853587Y-13516275D01*
X30801364Y-13433315D01*
X30737396Y-13364566D01*
X30660788Y-13308638D01*
X30574880Y-13268187D01*
X30476769Y-13243058D01*
X30363942Y-13234266D01*
X30263364Y-13241136D01*
X30174782Y-13260820D01*
X30096362Y-13292442D01*
X30026612Y-13335840D01*
X29965299Y-13391106D01*
X29917311Y-13454544D01*
X29881689Y-13527178D01*
X29858359Y-13610614D01*
X30135239Y-13663920D01*
X30153809Y-13606352D01*
X30180029Y-13559617D01*
X30213732Y-13521953D01*
X30254958Y-13493583D01*
X30303339Y-13476206D01*
X30360827Y-13470113D01*
X30422154Y-13476701D01*
X30473326Y-13495434D01*
X30516542Y-13525972D01*
X30553077Y-13569581D01*
X30587961Y-13638788D01*
X30610210Y-13723087D01*
X30618198Y-13825944D01*
X30610240Y-13928052D01*
X30588018Y-14012216D01*
X30553077Y-14081758D01*
X30516513Y-14125595D01*
X30473284Y-14156268D01*
X30422123Y-14175073D01*
X30360827Y-14181684D01*
X30302771Y-14175395D01*
X30253688Y-14157409D01*
X30211626Y-14127920D01*
X30177502Y-14088798D01*
X30151299Y-14040355D01*
X30133224Y-13980733D01*
X29856344Y-14033032D01*
X29879759Y-14119184D01*
X29915471Y-14193761D01*
X29963436Y-14258487D01*
X30024505Y-14314491D01*
X30094359Y-14358488D01*
X30173127Y-14390563D01*
X30262353Y-14410548D01*
X30363942Y-14417531D01*
G37*
G36*
X29253281Y-13243026D02*
G01*
X29348909Y-13268223D01*
X29433834Y-13309096D01*
X29509420Y-13365290D01*
X29572710Y-13434361D01*
X29624527Y-13517740D01*
X29661374Y-13609221D01*
X29684248Y-13711949D01*
X29692213Y-13827959D01*
X29684112Y-13946667D01*
X29661008Y-14050139D01*
X29624069Y-14140743D01*
X29571745Y-14222763D01*
X29507297Y-14290478D01*
X29429713Y-14345266D01*
X29342905Y-14384479D01*
X29243282Y-14408947D01*
X29128286Y-14417531D01*
X28998739Y-14407183D01*
X28890494Y-14378090D01*
X28799658Y-14331985D01*
X28721366Y-14267695D01*
X28664468Y-14192549D01*
X28626825Y-14104839D01*
X28897569Y-14052540D01*
X28931840Y-14113224D01*
X28982107Y-14156130D01*
X29045388Y-14181804D01*
X29124165Y-14190935D01*
X29200415Y-14182331D01*
X29263885Y-14157824D01*
X29317422Y-14117662D01*
X29357577Y-14064169D01*
X29384631Y-13993530D01*
X29396923Y-13900774D01*
X28609423Y-13900774D01*
X28609423Y-13814587D01*
X28616584Y-13710081D01*
X28897569Y-13710081D01*
X29395916Y-13710081D01*
X29382525Y-13640875D01*
X29357353Y-13582028D01*
X29320536Y-13531662D01*
X29272945Y-13493052D01*
X29214375Y-13469302D01*
X29141567Y-13460862D01*
X29071373Y-13468959D01*
X29015201Y-13491689D01*
X28969834Y-13528548D01*
X28935248Y-13576959D01*
X28910926Y-13636604D01*
X28897569Y-13710081D01*
X28616584Y-13710081D01*
X28618307Y-13684936D01*
X28643061Y-13577730D01*
X28681688Y-13489072D01*
X28736260Y-13409474D01*
X28800601Y-13346148D01*
X28875495Y-13297372D01*
X28958534Y-13262601D01*
X29047819Y-13241481D01*
X29144681Y-13234266D01*
X29253281Y-13243026D01*
G37*
%LPC*%
D11*
%TO.C,J107*%
X43961500Y-19000000D03*
D12*
X30261500Y-19000000D03*
X45061500Y-5500000D03*
X29361500Y-5500000D03*
%TD*%
D13*
%TO.C,JP400*%
X61629000Y-86615000D03*
D14*
X61629000Y-89155000D03*
%TD*%
D13*
%TO.C,J101*%
X41661500Y-53390000D03*
D14*
X41661500Y-50850000D03*
X41661500Y-48310000D03*
%TD*%
D15*
%TO.C,J104*%
X90245000Y-62640000D03*
X90245000Y-56860000D03*
D16*
X89715000Y-64070000D03*
D17*
X93895000Y-64070000D03*
D16*
X89715000Y-55430000D03*
D17*
X93895000Y-55430000D03*
%TD*%
D18*
%TO.C,J200*%
X11347000Y-72159000D03*
X11347000Y-83589000D03*
D19*
X17707000Y-73434000D03*
D20*
X20247000Y-74694000D03*
X17707000Y-75974000D03*
X20247000Y-77234000D03*
X17707000Y-78514000D03*
X20247000Y-79774000D03*
X17707000Y-81054000D03*
X20247000Y-82314000D03*
X6447000Y-71249000D03*
X6447000Y-73789000D03*
X6447000Y-81959000D03*
X6447000Y-84499000D03*
D21*
X14397000Y-70129000D03*
X14397000Y-85619000D03*
%TD*%
D11*
%TO.C,J108*%
X21961500Y-19000000D03*
D12*
X8261500Y-19000000D03*
X23061500Y-5500000D03*
X7361500Y-5500000D03*
%TD*%
D13*
%TO.C,J100*%
X2961500Y-49460000D03*
D14*
X2961500Y-52000000D03*
X2961500Y-54540000D03*
X2961500Y-57080000D03*
X2961500Y-59620000D03*
%TD*%
D22*
%TO.C,H1*%
X4500000Y-26000000D03*
%TD*%
D11*
%TO.C,J106*%
X65948000Y-19250000D03*
D12*
X52248000Y-19250000D03*
X67048000Y-5750000D03*
X51348000Y-5750000D03*
%TD*%
D22*
%TO.C,H2*%
X92500000Y-27000000D03*
%TD*%
%TO.C,H4*%
X4500000Y-92550000D03*
%TD*%
%TO.C,H3*%
X92500000Y-92550000D03*
%TD*%
D23*
%TO.C,J103*%
X93340000Y-82829596D03*
X93340000Y-80289596D03*
D24*
X90800000Y-82829596D03*
D25*
X90800000Y-80289596D03*
%TD*%
D13*
%TO.C,JP100*%
X93790000Y-69300000D03*
D14*
X91250000Y-69300000D03*
%TD*%
D13*
%TO.C,J102*%
X66239000Y-94815000D03*
D14*
X68779000Y-94815000D03*
X71319000Y-94815000D03*
%TD*%
D11*
%TO.C,J105*%
X87961500Y-19361000D03*
D12*
X74261500Y-19361000D03*
X89061500Y-5861000D03*
X73361500Y-5861000D03*
%TD*%
%LPD*%
M02*
